<svg xmlns="http://www.w3.org/2000/svg" xmlns:xlink="http://www.w3.org/1999/xlink" viewBox="0 0 1373.83 844.28"><defs><style>.a{fill:none;}.a,.n{stroke:#2c4e9b;stroke-width:10px;}.a,.b,.e,.g,.h,.n{stroke-miterlimit:10;}.b,.e,.i,.j,.n{fill:#fff;}.b{stroke-width:7.94px;stroke:url(#a);}.c,.j{font-size:30px;font-family:Syncopate-Bold, Syncopate;font-weight:700;}.c,.f,.g,.h{fill:#2c4d9c;}.d{font-family:Poppins-Medium, Poppins;font-weight:500;}.e,.g{stroke:#2c4d9c;}.e{stroke-width:9.91px;}.g{stroke-width:0.84px;}.h{stroke:#fff;stroke-width:9.91px;}.k{font-family:Poppins-Regular, Poppins;font-weight:400;}.l{fill:#2c4e9b;}.m{fill:#9d9e9f;}.o{clip-path:url(#b);}</style><linearGradient id="a" y1="348.47" x2="524.71" y2="348.47" gradientUnits="userSpaceOnUse"><stop offset="0" stop-color="#fff" stop-opacity="0"/><stop offset="0" stop-color="#fdfdfe" stop-opacity="0.01"/><stop offset="0.02" stop-color="#ccd4e7" stop-opacity="0.24"/><stop offset="0.04" stop-color="#a1b0d3" stop-opacity="0.45"/><stop offset="0.07" stop-color="#7c91c2" stop-opacity="0.62"/><stop offset="0.1" stop-color="#5f78b4" stop-opacity="0.76"/><stop offset="0.13" stop-color="#4864a9" stop-opacity="0.87"/><stop offset="0.17" stop-color="#3857a1" stop-opacity="0.94"/><stop offset="0.23" stop-color="#2f4f9d" stop-opacity="0.99"/><stop offset="0.39" stop-color="#2c4d9c"/></linearGradient><clipPath id="b"><circle class="a" cx="1092.97" cy="619.5" r="153.64"/></clipPath></defs><title>ref1-web-bicis</title><rect class="b" x="3.97" y="101.68" width="516.77" height="493.57" rx="70.29"/><text class="c" transform="translate(53.03 267.92)">Descargá la app <tspan x="0" y="36">“ESCOBAR 360”</tspan><tspan class="d" x="308.94" y="36" xml:space="preserve"> </tspan><tspan class="d"><tspan x="0" y="72">En Google Play o App Store.</tspan></tspan></text><circle class="e" cx="262.35" cy="101.68" r="96.73"/><path class="f" d="M262.35,132.8V83l-16.71,5.21V75.73l16.71-5.16h16.72V132.8Z"/><rect class="g" x="576.2" y="101.68" width="516.77" height="493.57" rx="70.29"/><circle class="h" cx="834.59" cy="101.68" r="96.73"/><path class="i" d="M802.57,132.8V121.94q11.83-5.44,20.55-9.72t14.45-7.77a43.69,43.69,0,0,0,8.5-6.39c1.85-1.92,2.78-3.79,2.78-5.58a11,11,0,0,0-.15-1.7,6.17,6.17,0,0,0-.71-2,8.23,8.23,0,0,0-1.61-2,9.22,9.22,0,0,0-2.92-1.7,23.1,23.1,0,0,0-4.59-1.2,41.48,41.48,0,0,0-6.62-.46,65,65,0,0,0-7.47.46q-3.88.47-7.68,1.31a69.26,69.26,0,0,0-7.34,2A48.48,48.48,0,0,0,803.27,90V75.56A98.35,98.35,0,0,1,816.81,72a83.33,83.33,0,0,1,15.7-1.43,63.47,63.47,0,0,1,13.82,1.37,33.93,33.93,0,0,1,10.32,4,18.81,18.81,0,0,1,6.44,6.27,15.77,15.77,0,0,1,2.24,8.33,19.78,19.78,0,0,1-.56,4.79,13.61,13.61,0,0,1-2,4.35,22.53,22.53,0,0,1-3.82,4.26,50.64,50.64,0,0,1-6.1,4.53q-3.69,2.39-8.81,5.15t-11.92,6.11h34.45V132.8Z"/><text class="j" transform="translate(625.26 267.92)">Escaneá el QR de <tspan x="0" y="36">la bici</tspan><tspan class="d" x="143.14" y="36" xml:space="preserve"> </tspan><tspan class="k"><tspan x="0" y="72">Encendé el bluetooth de tu </tspan><tspan x="0" y="108">celular y escaneá el QR de </tspan><tspan x="0" y="144">la bicicleta. También podés </tspan><tspan x="0" y="180">ingresar la matrícula de la </tspan><tspan x="0" y="216">bicicleta ubicada a los </tspan><tspan x="0" y="252" xml:space="preserve">costados de  la misma.</tspan></tspan></text><circle class="l" cx="460.26" cy="677.21" r="14.55"/><circle class="m" cx="504.36" cy="677.21" r="14.55"/><circle class="m" cx="548.47" cy="677.21" r="14.55"/><circle class="m" cx="592.58" cy="677.21" r="14.55"/><circle class="m" cx="636.68" cy="677.21" r="14.55"/><circle class="n" cx="1092.97" cy="619.5" r="153.64"/><g class="o"><image width="1758" height="1759" transform="translate(900.56 370.74) scale(0.27)" xlink:href="../LANDING%20PAGE%20RECURSOS/IM%C3%81GENES%20LANDING/QR%20EN%20BICI.png"/></g><circle class="a" cx="1092.97" cy="619.5" r="153.64"/></svg>