<svg xmlns="http://www.w3.org/2000/svg" viewBox="0 0 692.68 513.41"><defs><style>.a{fill:#0039e3;}</style></defs><title>las_bicis-logo</title><path class="a" d="M134.91,406.58C60.55,406.58,0,346.08,0,271.71S60.55,136.84,134.91,136.84s134.87,60.5,134.87,134.87S209.28,406.58,134.91,406.58Zm0-253.63A118.76,118.76,0,1,0,253.68,271.71,118.89,118.89,0,0,0,134.91,153Z"/><path class="a" d="M557.77,407C483.4,407,422.9,346.47,422.9,272.11s60.5-134.88,134.87-134.88,134.87,60.51,134.87,134.88S632.14,407,557.77,407Zm0-253.64A118.77,118.77,0,1,0,676.53,272.11,118.9,118.9,0,0,0,557.77,153.34Z"/><path class="a" d="M323.16,304.73a7.85,7.85,0,0,1-2.78-.5,8.06,8.06,0,0,1-4.54-4.19L222.51,97.35l14.63-6.74L327.1,286l63.06-29.21a142,142,0,0,1,8.44-48.4c9.29-26.06,30.65-61.83,79.66-87.43L436.41,29l-19.3,8.35a8,8,0,0,1-10.59-4.19h0a8.05,8.05,0,0,1,4.19-10.59l26.56-11.49a8,8,0,0,1,10.52,4.05l48.35,106.21A8.06,8.06,0,0,1,492.28,132c-39.15,18.64-65.48,45.94-78.26,81.12-9.58,26.4-7.57,47.69-7.55,47.9a8.08,8.08,0,0,1-4.63,8.14L326.54,304A8,8,0,0,1,323.16,304.73Z"/><rect class="a" x="234.26" y="51.58" width="16.11" height="95.47" rx="8.05" transform="translate(107.82 324.02) rotate(-81.38)"/><path class="a" d="M521.2,86.84h0a8,8,0,0,1,4.35-10.52L537,71.58l-8-52.2-49.3,20.21-6.11-14.91L532.31.6a8.09,8.09,0,0,1,9.22,2.25A8.19,8.19,0,0,1,543.35,7l10.49,68.41A8,8,0,0,1,549,84l-17.25,7.15A8,8,0,0,1,521.2,86.84Z"/><path class="a" d="M175.36,262.41h-8.52a1.26,1.26,0,0,1-1.26-1.21,30.69,30.69,0,0,0-61.33,0,1.26,1.26,0,0,1-1.26,1.21H94.46a1.26,1.26,0,0,1-1.26-1.29,41.73,41.73,0,0,1,83.42,0,1.26,1.26,0,0,1-1.26,1.29"/><path class="a" d="M160,262.41h-8.48a1.25,1.25,0,0,1-1.25-1.16,15.39,15.39,0,0,0-30.69,0,1.26,1.26,0,0,1-1.26,1.16h-8.47a1.27,1.27,0,0,1-1.26-1.33,26.36,26.36,0,0,1,52.66,0,1.25,1.25,0,0,1-1.25,1.33"/><circle class="a" cx="134.91" cy="262.41" r="11" transform="translate(-146.04 172.26) rotate(-45)"/><path class="a" d="M103.73,281.62H93.49a.3.3,0,0,0-.3.23l-5.74,23.33h-.09l-5.77-23.33a.31.31,0,0,0-.3-.23H71.08a.31.31,0,0,0-.31.29l-2.09,31.38a.27.27,0,0,0,.08.23.29.29,0,0,0,.23.1h6.18a.32.32,0,0,0,.31-.29l1.07-25.68h.06l7.17,25.74a.31.31,0,0,0,.31.23H90.7a.31.31,0,0,0,.3-.23l7.19-25.74h0l1.11,25.68a.32.32,0,0,0,.31.29h6.16a.29.29,0,0,0,.23-.1.27.27,0,0,0,.08-.23L104,281.91a.32.32,0,0,0-.31-.29"/><path class="a" d="M119.61,288.92a47,47,0,0,0-8.47.86.31.31,0,0,0-.24.3v4.46a.3.3,0,0,0,.12.24.3.3,0,0,0,.26.06,40.26,40.26,0,0,1,8-.85c5.42,0,5.58,1.29,5.58,4.73h-.47c-4.91,0-10.46,0-13.28,2.77a6.33,6.33,0,0,0-1.77,4.69c0,6.84,5.43,7.86,11.29,7.95l1.61,0a84.13,84.13,0,0,0,9.41-.61.3.3,0,0,0,.28-.3V297.09a7.52,7.52,0,0,0-2-5.59c-2.37-2.32-6.34-2.61-10.27-2.58m5.22,14.5v5.77a24.94,24.94,0,0,1-3.41.23c-2.77,0-4.72-.22-4.72-3s2-3,4.72-3c1.63,0,2.77,0,3.41,0"/><path class="a" d="M155.69,308.48l-.42.06a27.68,27.68,0,0,1-4.13.3c-6.19,0-8.72-2.15-8.72-7.43s2.45-7.29,8.72-7.29a37.79,37.79,0,0,1,4.37.31.33.33,0,0,0,.24-.07.31.31,0,0,0,.11-.23V289.9a.31.31,0,0,0-.24-.3,32.61,32.61,0,0,0-7-.68c-9.4,0-13.61,6.12-13.61,12.18,0,8.16,5.19,13,13.88,13a28,28,0,0,0,6.88-.77.32.32,0,0,0,.24-.3v-4.27a.3.3,0,0,0-.11-.23.32.32,0,0,0-.24-.08"/><path class="a" d="M175.23,289.54a.31.31,0,0,0-.31-.31h-.43a15.34,15.34,0,0,0-8.57,2.11v-1.62a.3.3,0,0,0-.31-.3H159.9a.3.3,0,0,0-.31.3v23.61a.31.31,0,0,0,.31.31h6.44a.31.31,0,0,0,.31-.31V296.45c2.14-1.4,5.6-1.38,7.9-1.39h.37a.3.3,0,0,0,.31-.3Z"/><path class="a" d="M188.23,288.87c-8,0-13,4.84-13,12.63s5,12.63,13,12.63c7.61,0,12.92-5.19,12.92-12.63,0-7.79-5-12.63-12.92-12.63m5.58,12.72c0,5.4-1.63,7.61-5.63,7.61s-5.68-2.21-5.68-7.61,1.65-7.65,5.68-7.65,5.63,2.22,5.63,7.65"/><path class="a" d="M558.29,237.75c-19.76,0-35.77,15.7-35.77,35.07s16,35.08,35.77,35.08,35.76-15.71,35.76-35.08S578,237.75,558.29,237.75Zm8.89,4.56c.51.15,2.53.6,6.89,3.7,2.66,1.9,3.67,2.77,3.69,3.16,0,.68-.71.17-1,0-1-.72-1.09-1-2.47-1.91A56.88,56.88,0,0,0,568,243.3a26.09,26.09,0,0,0-4.84-1.85A25.69,25.69,0,0,1,567.18,242.31Zm-7.89-.23c1.07.32,5.3,1.26,14.41,7.73,5.56,4,7.66,5.79,7.71,6.6.09,1.43-1.48.36-2,0-2-1.51-2.29-2-5.17-4-6.06-4.09-8.64-6.4-13.2-8.27a20.81,20.81,0,0,0-9-1.71S554.67,240.7,559.29,242.08Zm-15.35,4.5c1.34,0,7.16,0,19.72,7.36,7.67,4.48,9.83,5.89,10.17,7.45.58,2.72-2,1.79-2.74,1.34-2.8-1.78-1.69-1.28-6.6-4.71-8.16-5.69-12.07-6.79-17.83-8.44-6.71-1.91-11.2.08-11.2.08S538.22,246.58,543.94,246.58Zm-7.56,6c1.47-.38,10.21-1.56,25.25,7.84,16,10,19.79,15.75,19.79,15.75l.93,1c.7,5-3.58,1.88-3.58,1.88a70.2,70.2,0,0,0-16.13-13.69c-10.81-6.72-15.84-9.49-23.64-10.07a12.69,12.69,0,0,0-10,3.31A10.63,10.63,0,0,1,536.38,252.56Zm53,23.54a1,1,0,0,1,.24,0l0,0a.72.72,0,0,1,.2.09l0,0a1.49,1.49,0,0,1,.2.15l0,0,.15.18,0,0c0,.08.1.16.14.24l0,.06a1.06,1.06,0,0,1,.09.25l0,.05a1.42,1.42,0,0,1,.06.31.17.17,0,0,1,0,.07,1.73,1.73,0,0,1,0,.32v0a2.4,2.4,0,0,1,0,.37s0,.06,0,.09a3.39,3.39,0,0,1-.08.39c-.66,2.46-.88,7.5-9.07,15.68l-.78.77-.22.2-.56.52-.27.25-.52.45-.28.24-.51.42a3.11,3.11,0,0,1-.28.23l-.54.43-.24.18c-.23.18-.45.35-.68.51l-.09.07-.79.55-.18.13-.59.38-.27.17-.51.32-.29.17-.49.29a2.69,2.69,0,0,0-.29.16l-.51.27-.27.14-.59.3-.17.08q-.39.19-.78.36l-.13.06-.63.27-.26.1-.51.2-.29.11-.48.17-.29.1-.49.15-.27.09-.53.15-.23.07-.76.19h0l-.7.16-.26,0-.49.1-.3.05-.45.07-.3.05-.46.06-.29,0-.47.05-.27,0-.59,0h-.14l-.73,0h-1.37l-1.54,0h-.1l-1.62-.12c-1-.1-2-.24-3.05-.43a34.15,34.15,0,0,1-13.74-5.63l-.3-.21a31.25,31.25,0,0,1-2.44-2l-.84-.76a29.66,29.66,0,0,1-7.17-9.55l-.1-.19,0,0,0-.07,0-.09v0l-.06-.11,0,0-.07-.12,0-.05-.07-.14,0,0a1.74,1.74,0,0,0-.1-.19v0c-.07-.15-.15-.31-.24-.47v0l-.11-.21,0-.06-.1-.2,0-.07-.09-.2,0-.07-.09-.22,0-.06-.11-.27h0c-.08-.19-.15-.38-.22-.57l0,0c0-.07-.05-.14-.07-.21l0-.08-.06-.19,0-.07c0-.06,0-.12,0-.18s0-.05,0-.08a1.36,1.36,0,0,1,0-.17s0,0,0-.06l0-.21v0a1.48,1.48,0,0,1,0-.21v0a.78.78,0,0,1,0-.16.07.07,0,0,1,0-.05.5.5,0,0,1,0-.12l0,0,0-.09,0-.05.06-.07,0,0,.08-.05,0,0,.14,0h0l.19,0,.19,0h.08l.26.06.12,0,.22.08.15.07a5.12,5.12,0,0,1,.48.23h0a16.57,16.57,0,0,1,1.87,1.15l.12.08.41.29.72.51c4.82,3.42,6.93,5,11.42,6.68l.07,0,.44.16.1,0,.45.17h0l1,.33.17.06.36.12.31.1.34.11.38.12.32.11.48.14.26.09.79.24h0a20.31,20.31,0,0,0,5.93.86c7.09,0,13.37-3.36,16.83-4.66h0l.43-.16h0L572,287l.06,0,.29-.08.08,0,.32-.07.56-.07H574l.27,0,.18,0,.23.06.16.05.2.09.13.07.18.12.1.07a1.12,1.12,0,0,1,.18.2l0,0a2.26,2.26,0,0,1,.16.26.42.42,0,0,1,0,.1,1.46,1.46,0,0,1,.07.19l0,.13,0,.18v.14a1.2,1.2,0,0,1,0,.19s0,.09,0,.14l0,.2c0,.05,0,.1,0,.15l-.06.2s0,.1,0,.14-.07.15-.1.22,0,.09-.07.14l-.14.23a.41.41,0,0,1-.07.11,2.78,2.78,0,0,1-.26.34,5.61,5.61,0,0,1-1.13.93v0a18.48,18.48,0,0,1-2.61,1.39h0c-1.43.65-2.94,1.23-4.14,1.68h0l-1.6.59c-1.37.53-2.35,1.74-1.69,2.24l0,0a.19.19,0,0,0,.09.05.69.69,0,0,0,.15.07l.08,0,.19,0h.07l.31,0H565a2.68,2.68,0,0,0,.39,0h0c3-.28,11.6-4.3,12.8-7.05a3.47,3.47,0,0,0,.16-.41,5.59,5.59,0,0,0,.18-3.18c0-.06,0-.11-.05-.16a.57.57,0,0,0,0-.14,1.31,1.31,0,0,0-.05-.15l0-.13s7.38-6.69,9.06-9.07h0a2.68,2.68,0,0,1,.29-.36l.08-.09a2.72,2.72,0,0,1,.24-.24l.05-.05a1.74,1.74,0,0,1,.3-.2l.07-.05.23-.1.07,0a1.43,1.43,0,0,1,.28-.07h.34Zm-40.31,12.81a63.55,63.55,0,0,1-6.8-2.36c-1-.57-2-1.06-2.94-1.46-1.75-1-3.45-2.2-5.89-3.93l-.31-.22a2.55,2.55,0,0,1,.53-.21c1.07-.31,8.63,1.27,18,8.76A17.45,17.45,0,0,1,549.09,288.91Zm6.9.7c-9-7.25-15-11.12-20.35-12.08-3.5-.63-5.33,0-6.26,1a7.59,7.59,0,0,0-1.38-.55c.07-1.84.7-3.67,2.85-4.05,1.6-.28,11.83.09,25.61,11.24,1.77,1.43,3.26,2.61,4.52,3.6A26.68,26.68,0,0,1,556,289.61ZM529.47,260c1.17-1.13,9.63-3.22,24.95,5.73,9.35,5.46,12,7,12.38,8.94.72,3.32-2.57,2.3-3.32,1.64-2.46-2.14-2.46-2.14-8.06-5.61-9.23-5.71-12.42-7.19-19.27-8.21-7.51-1.11-9.26,3.74-9.26,3.74A8.74,8.74,0,0,1,529.47,260Zm-2.53,16c0-.35,0-.76,0-1.33,0-5.71,1.43-6.42,2.5-7.5s8.8-3,23.83,6.43a110.1,110.1,0,0,1,16.14,11.94l-1.34.56c-.79.34-1.66.7-2.57,1.07a73.15,73.15,0,0,0-11.22-8.59c-10.81-6.73-15-8.64-22.83-8.64-3.32,0-4.29,4.11-4.53,6.06C526.9,277.51,526.8,277.13,526.94,276Zm53.51-13.09c-2.65-2-2.75-2.42-6.27-5.25-7.9-6.36-10.63-7.66-17.42-10.9a21.83,21.83,0,0,0-11.93-2.26s3.5-2.28,9.6-.47c1.42.43,7,1.67,19,10.21,7.34,5.22,10.11,7.63,10.18,8.7C583.73,264.83,581.11,263.42,580.45,262.92Z"/><path class="a" d="M593.92,243c-.39.23-.71.43-.94.6l-.64.48a1.86,1.86,0,0,0-.6.65l-.43.22-1.84,1.37-.69.41c-.23.57-.31.89-.25,1l1.28,1.71q.53.71,1.35.09l4.83-3.6.65.88a1.5,1.5,0,0,1-.16,1.92l-.07,0c-.38.29-.94.68-1.69,1.16a.57.57,0,0,1-.14.21.8.8,0,0,0-.37.17l-.44.33-.4.4a.07.07,0,0,0-.11,0l-.27.31c-.33.17-.52.28-.56.31-.39.36-.46.7-.21,1l1.18,1.58a.85.85,0,0,0,1.22.18l3.87-2.88a5.31,5.31,0,0,0,1.93-2.71l.07-.05a5,5,0,0,0,3.14-1.07l3.88-2.89a5.54,5.54,0,0,0,1.91-3,5.79,5.79,0,0,0-.84-3.51c-.48-.55-.8-.94-1-1.16l-.5-.81a.7.7,0,0,1-.21-.15l0-.17-.16-.08a7.1,7.1,0,0,1-.6-.94c-.29-.38-.72-.43-1.28-.13l-1.91,1.42c-.55.41-1.29.93-2.21,1.55a2.92,2.92,0,0,1-.47.55,7.24,7.24,0,0,1-1,.53,4.56,4.56,0,0,1-.53.5L598,240c-.38.28-.82.58-1.32.88l-.34.35a9.72,9.72,0,0,0-.86.55l-.53.49a.56.56,0,0,0-.24.08l-.33.35a.8.8,0,0,1-.37.17Zm11-3.71.61.83a1.57,1.57,0,0,1,0,1.87c-.61.46-1.55,1.12-2.83,2l-.28.31a2.33,2.33,0,0,0-.55.31l-.7.52c-.75.22-1.28.12-1.6-.3l-.23-.31a3.1,3.1,0,0,1-.33-.84Z"/><path class="a" d="M576,238.36l1.75,1.19q.72.48,2.13-1.11l3.64,2.47c-.16.22-.18.4-.07.55-.49,1-.53,1.6-.11,1.88l1.62,1.1q.85.48,1.26-.12t7.65-18.81a1.54,1.54,0,0,0-.53-2.41c-.65-.38-1-.54-1-.5-.37-.25-.82-.17-1.35.25l-6.89,6.54a9.28,9.28,0,0,0-1.53,1.51q-3.14,2.91-3.41,3.3l-3.39,3.1C575.68,237.83,575.77,238.18,576,238.36Zm11.3-7.08.07.05c.09.06,0,.29-.16.68a30.63,30.63,0,0,1-1.81,4.67l-.45.67a17.86,17.86,0,0,1-1.64-.91l-.07-.05-.51-.54-.07,0Z"/><path class="a" d="M515.33,235.61l.21.36s.1,0,.18.06a7.39,7.39,0,0,1,.54.72c.62.47,1,.68,1,.63q1.2,1.31,6,.8a4.18,4.18,0,0,1,4.1,1.34c1.13,1.25,1.42,2.13.85,2.64l-.3.28c-.76.3-1.31.25-1.66-.13l-1.43-1.57c-.31-.34-.79-.3-1.45.11-1.25,1.13-1.67,1.92-1.27,2.36l.72.67.92,1.14a3.19,3.19,0,0,0,.85.56c2.24,1.2,4.15,1.07,5.74-.37l.78-.82q2.08-3.66-.44-6.45l-1.27-1.38a6.68,6.68,0,0,0-6-2.07q-3.79.57-4.84-.57l-.93-1c-.35-.39-.31-.91.14-1.55q1.3-.75,2,0l.06.06c.36.4.78.9,1.25,1.51.47.24.84.24,1.1,0l1.51-1.38c.33-.29.34-.68.06-1.16l-1.38-1.51a5.1,5.1,0,0,0-3.85-1.68,7,7,0,0,0-3.06,1.25,5,5,0,0,0-.94,6.36Z"/><path class="a" d="M503.86,246.66l.38.32s.2,0,.5.11a3.11,3.11,0,0,1,.55.53c.49.23.85.41,1.08.55.61.37,1.23.77,1.85,1.22a4.7,4.7,0,0,1,.88.43.6.6,0,0,1,.16.2.64.64,0,0,1,.33.1l.14.08a4.7,4.7,0,0,1,.86.62,6.64,6.64,0,0,1,1,.52l.49.29a4.19,4.19,0,0,1,.65.5,2.64,2.64,0,0,1,.68.31l.34.21a17,17,0,0,1,1.5,1,3.92,3.92,0,0,1,.6.26l.86.62a9.09,9.09,0,0,1,.82.4l.24.24H518l.38.33a2.79,2.79,0,0,0,.59.26,7.28,7.28,0,0,0,.87.62l.63.38c.57.21,1,.14,1.19-.23l3.16-5.24c.3-.49.08-1-.64-1.45l-1.33-.8c-.37-.23-.78-.09-1.22.42a10.3,10.3,0,0,1-.51,1l-.64,1.05a2.21,2.21,0,0,1-.62.58l-4.69-2.84.92-1.53c.43-.76.4-1.29-.08-1.59L514.1,245c-.32-.18-1.06.58-2.23,2.28l-4.75-2.86,1.73-2.86c.24-.41.08-.83-.49-1.26l-1.54-.93c-.42-.25-.81-.07-1.17.53l-1.53,2.53a7.93,7.93,0,0,0-.39.81c-.07,0-.21.19-.41.52l-.71,1.18c-.19.31-.12.71.23,1.19Z"/><path class="a" d="M531.2,225a4.65,4.65,0,0,1,.3.92c.3.55.57,1.09.79,1.61l.74,1.72.09.41s.11,0,.17.2l.1.21a4.29,4.29,0,0,1,.21.72l.14.11a.61.61,0,0,1,0,.26,14.71,14.71,0,0,1,.69,1.38l.39.9.11.48a.78.78,0,0,1,.24.34l.35.82a4.84,4.84,0,0,0,.73,1.29c1.8,1.76,3.66,2.23,5.56,1.4a6.29,6.29,0,0,0,.87-.46,5,5,0,0,0,1.72-6.5l-.64-1.49c-.19-.43-.62-.55-1.3-.33l-1.27.54a1.13,1.13,0,0,0-.73,1.38,4.77,4.77,0,0,1,.37.65l.51,1.19c.25.58-.05,1.12-.9,1.63-.61.26-1.12,0-1.55-.75l-5-11.58c-.23-.51,0-1,.62-1.41.86-.37,1.64.15,2.36,1.54a1.28,1.28,0,0,0,.1.67l.1.22a.78.78,0,0,0,1,.53l2-.84q.58-.25.39-1.14l-.68-1.57a5.07,5.07,0,0,0-3-3,6.07,6.07,0,0,0-3.49.09,5.08,5.08,0,0,0-2.72,2.94c-.43.18-.44,1.4,0,3.65C530.92,224.41,531.13,224.82,531.2,225Z"/><path class="a" d="M548.17,219.59a11.46,11.46,0,0,1,0,1.21,3.83,3.83,0,0,1,.16,1l0,.34a.56.56,0,0,1-.06.32l.1.16c0,.37.07,1.21.13,2.53,0,.11.06.41.15.89,0,.28,0,.45,0,.49.12.74.18,1.2.2,1.37s.06,1.06.12,2.45a5.45,5.45,0,0,0,1.65,3.14,5.08,5.08,0,0,0,3.55,1.18,5.93,5.93,0,0,0,2.23-.68c1.83-1.08,2.63-3,2.4-5.68l-.88-10.57a11.44,11.44,0,0,0-.34-2q-1.46-3.57-5-3.27l-.4,0a5.49,5.49,0,0,0-3.14,1.73,5.71,5.71,0,0,0-1,3.21ZM552.7,216c.94.16,1.44.5,1.48,1v.07a5.32,5.32,0,0,1,0,1,3.6,3.6,0,0,1,.12.48c.05,1.3.1,2.2.14,2.69a4,4,0,0,0,.25,1,1.75,1.75,0,0,1-.12.58,13.58,13.58,0,0,1,.21,1.54v.08a5.44,5.44,0,0,1,0,1,4.14,4.14,0,0,1,.15.8c.08,1,.16,2.24.23,3.75-.36.69-.71,1-1.06,1.07H554c-.63,0-1.1-.43-1.42-1.44l-1-12C551.53,216.63,551.89,216.08,552.7,216Z"/><path class="a" d="M567.84,235.72a6.66,6.66,0,0,0,1.73.2,5.09,5.09,0,0,0,4.68-4.18l.57-2.21a6.24,6.24,0,0,0-.16-3.65,5.65,5.65,0,0,0,1.9-3.12l.57-2.2a5.39,5.39,0,0,0-.62-4.45,6.08,6.08,0,0,0-2.64-1.85c-.81-.15-1.36-.26-1.67-.34-.49-.13-1.16-.33-2-.61-.93-.12-1.45.08-1.59.6-.11.68-.19,1.08-.22,1.2a5.51,5.51,0,0,1-.35,1l-.92,4.21a2.74,2.74,0,0,0-.41,1l-.39,1.49a3.53,3.53,0,0,1-.26.68c0,.13-.12.8-.35,2l-.18.37c-.16.62-.29,1.25-.41,1.92-.31,1-.59,2-.83,2.89a4.12,4.12,0,0,0-.08.64.08.08,0,0,0-.1.06q-.09.72-.12.81c-.07.27-.23.79-.49,1.56q.12.78.36.93Zm3.59-18.14a.14.14,0,0,1,.19-.11l.78.2c1,.36,1.46.92,1.26,1.66l-.54,2.13q-.57,2.21-1.68,1.92c-.91-.33-1.34-.58-1.31-.75Zm-2.29,8.9,1.26.33c.57.14.89.62,1,1.42l-.2.45c0,.12-.08.41-.14.89a8.16,8.16,0,0,1-.37,1.09c-.27,1-.69,1.59-1.27,1.68l-1-.27a4.62,4.62,0,0,1-.58-.31Z"/><path class="a" d="M598.45,308.15a6.19,6.19,0,0,0-3.17-1.8,5.75,5.75,0,0,0-1.64-3.27l-1.57-1.65a5.41,5.41,0,0,0-4.1-1.84,6.14,6.14,0,0,0-3,1.26c-.56.61-1,1-1.18,1.24s-.9.81-1.59,1.39-.7,1.27-.33,1.66.81.73.9.83a5.17,5.17,0,0,1,.67.83l3.08,3a2.65,2.65,0,0,0,.62.88l1.05,1.11a3.11,3.11,0,0,1,.44.59c.11.07.62.52,1.53,1.36l.22.35c.44.46.91.92,1.41,1.36.68.8,1.35,1.54,2,2.24a5.25,5.25,0,0,0,.5.41.08.08,0,0,0,0,.12c.37.3.57.48.62.53s.55.61,1.06,1.24c.49.21.81.28,1,.19l3-2.85a6.16,6.16,0,0,0,1.08-1.35A5.09,5.09,0,0,0,600,309.8Zm-7-.4c-.76.59-1.2.83-1.33.71l-3.59-3.78c-.07-.07-.06-.14,0-.22l.59-.56c.86-.68,1.55-.74,2.08-.18l1.52,1.59C591.75,306.41,592,307.23,591.44,307.75Zm6.51,6.49-.77.73a5.53,5.53,0,0,1-.57.33l-3.76-3.95.95-.9a1.41,1.41,0,0,1,1.72-.07l.28.41c.08.09.3.28.67.59a7,7,0,0,1,.73.89C597.94,313.05,598.19,313.7,598,314.24Z"/><path class="a" d="M512.93,289.68q1.05-3.68,2.53-4.16l1.31-.42c.51-.16,1,.09,1.36.77.09,1-.2,1.6-.86,1.82l-.08,0c-.52.17-1.15.34-1.89.52-.42.33-.57.66-.46,1l.62,1.94c.14.42.48.6,1,.54l1.94-.63a5.09,5.09,0,0,0,3.12-2.8,6.93,6.93,0,0,0,.15-3.31,5.92,5.92,0,0,0-1.53-2.34,5.67,5.67,0,0,0-3.88-1.15l-1,.32-.41.05s0,.1-.14.13a5.93,5.93,0,0,1-.87.19c-.69.38-1,.6-1,.66q-1.67.54-3.23,5.16a4.16,4.16,0,0,1-2.92,3.17c-1.6.51-2.52.41-2.76-.32l-.12-.39c0-.81.31-1.3.81-1.46l2-.65c.43-.14.6-.59.5-1.36-.51-1.61-1.05-2.32-1.62-2.14l-.91.38c-.85.21-1.32.34-1.42.37a2.78,2.78,0,0,0-.86.54q-3,2.3-2.05,5.37l.43,1.05q2.46,3.42,6,2.27l1.79-.57A6.7,6.7,0,0,0,512.93,289.68Z"/><path class="a" d="M527.06,302c1.52-2.08,1.58-4.07.17-6l-.24-.33a5.46,5.46,0,0,0-3.12-1.77,5.58,5.58,0,0,0-3.27.79l-1.78,1.3a10,10,0,0,1-1,.65,4.25,4.25,0,0,1-.74.65l-.27.19a.59.59,0,0,1-.31.13l-.09.16c-.29.22-1,.69-2.09,1.43-.09.07-.31.27-.67.6a4.64,4.64,0,0,0-.45.22c-.57.48-.92.78-1.06.88s-.87.61-2,1.38a5.54,5.54,0,0,0-1.82,3.05,5.07,5.07,0,0,0,.85,3.64,5.88,5.88,0,0,0,1.74,1.55c1.88,1,3.91.69,6.1-.92l8.56-6.26A11.52,11.52,0,0,0,527.06,302Zm-2.93-2.21-.06,0a5,5,0,0,1-.84.51c-.2.22-.31.34-.34.36-1.09.73-1.83,1.24-2.23,1.53a3.61,3.61,0,0,0-.69.71,1.76,1.76,0,0,1-.56.2q-.67.6-1.2,1l-.07.05a5,5,0,0,1-.84.51,4.18,4.18,0,0,1-.6.54q-1.22.89-3.09,2.16c-.77.05-1.25-.06-1.46-.35l0-.07c-.38-.51-.22-1.16.48-2l9.68-7.09c.83-.61,1.49-.59,2,.07C524.59,298.86,524.56,299.46,524.13,299.77Z"/><path class="a" d="M537.49,307a7,7,0,0,0-1.83-2.76,5,5,0,0,0-6.43.37l-.62.86-.31.28c.05,0,0,.1,0,.19a6.87,6.87,0,0,1-.59.67c-.33.71-.47,1.08-.42,1.12-.69.94-.54,3,.44,6.07a4.16,4.16,0,0,1-.49,4.28c-1,1.36-1.8,1.82-2.42,1.37l-.32-.24c-.45-.68-.52-1.23-.22-1.66l1.26-1.71c.26-.37.13-.84-.4-1.4-1.37-1-2.23-1.25-2.58-.77l-.5.84c-.57.68-.88,1.06-.94,1.14a3.24,3.24,0,0,0-.37.94q-1.08,3.64,1.51,5.54l1,.6q4,1.32,6.22-1.73l1.1-1.51a6.68,6.68,0,0,0,.83-6.26c-.89-2.4-1-4-.41-4.85l.81-1.12c.31-.43.83-.49,1.55-.18.66.75.79,1.41.38,2l0,.07c-.32.43-.73.94-1.22,1.53-.14.51-.07.87.22,1.07l1.64,1.21a.87.87,0,0,0,1.16-.18l1.2-1.66A5.06,5.06,0,0,0,537.49,307Z"/><path class="a" d="M549.39,310.77a7,7,0,0,1-.87-.21l-.85-.29c-.57-.2-1.3-.49-2.2-.85a.62.62,0,0,1-.33,0,.53.53,0,0,1-.21-.16c-.58-.14-1.07-.28-1.48-.42l-.93-.32-.74-.35c-.32-.11-.73.07-1.21.53a10.62,10.62,0,0,1-.3,1.36l-.21.36a.51.51,0,0,1,0,.25l-.13.13a.94.94,0,0,0,.71.94l1.84.64a6.65,6.65,0,0,1-.11,1.07l-.74,2.15a10.61,10.61,0,0,1-.45,1.06.62.62,0,0,1,0,.33l-.34.74c-.11.31-.24.78-.4,1.41-.66,1.75-1.11,2.94-1.33,3.58s-.47,1.45-.74,2.42c-.24.52-.47,1.1-.69,1.73-.08.24-.25.81-.5,1.72a5.09,5.09,0,0,0-.33.68,1.29,1.29,0,0,0,.31.87l2.15.74c.41.14.75,0,1-.5l5.79-16.75,1.69.58q1.23.42,1.5-.36l.68-2C550.1,311.47,549.91,311.11,549.39,310.77Z"/><path class="a" d="M558.66,311.83l-2.94-.21a5.72,5.72,0,0,0-.9,0,1.38,1.38,0,0,0-.65-.13l-1.38-.1c-.36,0-.68.23-.95.75v1.15l-.12.48c.06,0,.11.17.13.5a3.46,3.46,0,0,1-.22.73,12.07,12.07,0,0,1,0,1.22q-.07,1-.24,2.19a4.52,4.52,0,0,1,0,1,.45.45,0,0,1-.1.24.65.65,0,0,1,.06.34v.15a4.66,4.66,0,0,1-.16,1.05,6.24,6.24,0,0,1,0,1.15l0,.57a4.92,4.92,0,0,1-.14.81,2.89,2.89,0,0,1,0,.74l0,.41c0,.56-.11,1.16-.21,1.79a4.61,4.61,0,0,1,0,.65s-.06.39-.16,1.05c0,.49,0,.79,0,.91l-.11.32.07.17-.12.48a2.77,2.77,0,0,0,0,.65,8.11,8.11,0,0,0-.16,1.05l-.05.74c.07.61.32.92.75.95l6.11.43c.56,0,.9-.37,1-1.23l.11-1.55c0-.43-.28-.73-.93-.89a8.67,8.67,0,0,1-1.13,0l-1.23-.09a2.08,2.08,0,0,1-.79-.3l.38-5.46,1.79.12c.87,0,1.33-.23,1.37-.8l.16-2.2c0-.36-1-.68-3.05-.94l.39-5.54,3.34.24c.47,0,.77-.3.89-1l.13-1.8C559.7,312.14,559.37,311.88,558.66,311.83Z"/><path class="a" d="M571.62,309.48l-1.59.38c-.44.11-.68.5-.73,1.18.19.57.33,1.07.44,1.5l.07.31c.23.95.39,1.73.49,2.32.13.37.33,1.07.58,2.12l.06.25a2.89,2.89,0,0,1,.1,1.07l.12.13a4.81,4.81,0,0,0,0,.5.65.65,0,0,0,.14.22l-.14.12-.09,0-4.74-7.52a1.45,1.45,0,0,0-1.89-.88l-.46.2-1.13.18c-.46.11-.69.59-.66,1.43.43,1.31.73,2.36.92,3.13a.63.63,0,0,1,0,.26.62.62,0,0,1,.15.29l.18.72a9.41,9.41,0,0,1,.18,1.12l.32.6.22,1.63c.22.69.43,1.42.61,2.2.12.49.26,1.18.42,2.08a.67.67,0,0,1,.14.23l-.05.17a16.1,16.1,0,0,0,.8,2.58l0,.5.75,3.1c.06.26.13.66.2,1.2.37.39.64.58.81.56l2.14-.51c.41-.1.64-.46.67-1.08a.61.61,0,0,1-.16-.31l-2.16-9,.09,0c0,.2.12.3.22.27.48.84.8,1.23,1,1.19,1.48,2.45,2.59,4.14,3.32,5.09.84,1.86,1.55,2.73,2.14,2.59l2-.48c.43-.1.63-.43.6-1l-4.91-20.4A1.16,1.16,0,0,0,571.62,309.48Z"/><path class="a" d="M588.54,324.49l-9.9-18c-.16-.29-1,0-2.38.74l-.47.35c-.37.21,0,1.29,1,3.23.24.32.37.49.39.53a.67.67,0,0,0,0,.25l.27.32.12.39q.36.48.39.54c.12.22.4.78.83,1.68.32.46.5.74.55.82l.35,1,.74,1a.84.84,0,0,0,.12.41,2.28,2.28,0,0,0,.39.52l.08.33c.11.19.37.61.78,1.24a3.66,3.66,0,0,1,.24.62l1,1.49a3.91,3.91,0,0,0,.33.92c.18.34.59,1,1.21,2,.45.95.76,1.55.91,1.83a.9.9,0,0,0,1.06.25l1.78-1c.37-.2.49-.61.35-1.21A.67.67,0,0,1,588.54,324.49Z"/><path class="a" d="M612.39,299.07l-1.7-1a.79.79,0,0,0-1.06.23l-.57,1.17a11.9,11.9,0,0,1-.68,1,.51.51,0,0,1,0,.26,3.14,3.14,0,0,0-.52.44l-15.26-8.71a.87.87,0,0,0-1.22.34.52.52,0,0,0-.06.26,9.61,9.61,0,0,0-.63.94l-.08.14c-.3.77-.22,1.28.24,1.55l.91.51a5.82,5.82,0,0,1,.61.44,4,4,0,0,1,1.13.46,15,15,0,0,1,1.44.92c.56.25,1.26.62,2.1,1.1l.07,0a4.08,4.08,0,0,1,.59.43,1.33,1.33,0,0,1,.54.21c.78.45,1.37.82,1.79,1.12a12.7,12.7,0,0,1,1.17.58c.47.26,1,.61,1.66,1q1.2.59,1.8.93l1.66,1,.67.29a11.11,11.11,0,0,0,1.16.76c.8.46,1.34.45,1.61,0l3-5.29A.87.87,0,0,0,612.39,299.07Z"/><path class="a" d="M616.6,285.21l-1.49-.42c-.42-.12-.78.13-1.07.73a10.09,10.09,0,0,1-.22,1.12l-.33,1.18a2.37,2.37,0,0,1-.45.72l-5.28-1.49.49-1.72c.21-.85,0-1.35-.51-1.51l-2.13-.59q-.52-.15-1.53,2.79l-5.35-1.5.91-3.22c.12-.46-.14-.82-.8-1.08l-1.74-.49c-.47-.13-.8.15-1,.83l-.79,2.84a5.28,5.28,0,0,0-.17.88,1.52,1.52,0,0,0-.25.61l-.38,1.34c-.1.34.08.71.54,1.08l1.13.23.44.21c0-.06.19-.07.52,0a2.78,2.78,0,0,1,.67.36c.53.09.93.18,1.19.25.68.19,1.39.42,2.11.68a5,5,0,0,1,1,.18.64.64,0,0,1,.21.15.56.56,0,0,1,.34,0l.15,0a4.75,4.75,0,0,1,1,.37,6.58,6.58,0,0,1,1.13.22l.55.16a4.27,4.27,0,0,1,.76.3,2.64,2.64,0,0,1,.73.12l.39.11c.55.15,1.12.34,1.72.57a3.09,3.09,0,0,1,.64.09l1,.37.9.16.28.17.19,0a4.8,4.8,0,0,0,.45.21,2.35,2.35,0,0,0,.64.09,6.74,6.74,0,0,0,1,.37l.71.2q.9.08,1.08-.54l1.66-5.89C617.76,285.89,617.42,285.48,616.6,285.21Z"/><circle class="a" cx="507.04" cy="269.34" r="3.75"/><path class="a" d="M603.58,269.34a3.75,3.75,0,1,0,3.75-3.75A3.75,3.75,0,0,0,603.58,269.34Z"/><path class="a" d="M557.77,204.32a67.79,67.79,0,1,0,67.79,67.79A67.79,67.79,0,0,0,557.77,204.32Zm0,132.17a64.38,64.38,0,1,1,64.38-64.38A64.38,64.38,0,0,1,557.77,336.49Z"/><path class="a" d="M0,431.84H11.44V502h56v10H0Z"/><path class="a" d="M160.6,493H99.23L87.79,512H75.25L124,431.84h12.9L185.56,512H172Zm-5.36-9L130,442.06h-.25L104.59,484Z"/><path class="a" d="M192.74,485h10.72c0,8.41,4.26,18.39,33.36,18.39s34.58-7.18,34.58-15.34c0-4.75-2.8-7.79-8.4-9.26-6.33-1.7-20.09-1.94-29.83-2.43-10.35-.49-24.35-1.34-31.17-4.38-6-2.68-9.74-8.53-9.74-15.83,0-14,14-25.81,44-25.81C272,430.38,279,443.65,279,458H268.23c0-10.59-6.57-17.65-32-17.65-22.28,0-32.51,5.84-32.51,15,0,4.74,2.56,7.3,6.94,8.88,5.6,2.07,20.21,2.56,29.34,2.93,11,.48,23.87,1,31.17,3.53s11.69,8.89,11.69,16.68c0,11.81-6.94,26-46,26C197.13,513.41,192.74,495.52,192.74,485Z"/><path class="a" d="M337.51,431.84h50.17c20.94,0,30.8,8,30.8,20.7,0,8.76-5.36,15.46-13.64,17.41v.12c11,1.58,17.9,8.64,17.9,18.26,0,14.37-9.74,23.62-29.58,23.62H337.51Zm53.82,34.45c10.35,0,16.92-4.74,16.92-12.29S402,441.82,386.7,441.82H349v24.47ZM390,502c15.59,0,22-5.72,22-14.61,0-7.31-7.79-12.06-19.85-12.06H349V502Z"/><path class="a" d="M438.21,431.84h11.44V512H438.21Z"/><path class="a" d="M465.12,472.14c0-22.4,16.8-41.76,48.21-41.76,33.49,0,45.17,18.62,45.17,31.41v1.1H547.79v-.49c0-9.13-9-22-34-22-24.23,0-37.26,13.39-37.26,31.78,0,15.83,10.84,31.29,37.75,31.29,23,0,34.09-10.71,34.09-21.79V481h10.71v1c0,14.61-13.63,31.41-44.8,31.41C478.15,513.41,465.12,492.11,465.12,472.14Z"/><path class="a" d="M574.58,431.84H586V512H574.58Z"/><path class="a" d="M602.58,485H613.3c0,8.41,4.26,18.39,33.36,18.39s34.58-7.18,34.58-15.34c0-4.75-2.8-7.79-8.4-9.26-6.33-1.7-20.09-1.94-29.83-2.43-10.35-.49-24.35-1.34-31.17-4.38-6-2.68-9.74-8.53-9.74-15.83,0-14,14-25.81,43.95-25.81,35.8,0,42.74,13.27,42.74,27.63H678.07c0-10.59-6.57-17.65-32-17.65-22.28,0-32.51,5.84-32.51,15,0,4.74,2.56,7.3,6.94,8.88,5.6,2.07,20.21,2.56,29.35,2.93,10.95.48,23.86,1,31.17,3.53s11.68,8.89,11.68,16.68c0,11.81-6.94,26-46,26C607,513.41,602.58,495.52,602.58,485Z"/></svg>