<svg xmlns="http://www.w3.org/2000/svg" viewBox="0 0 278.49 72.15"><defs><style>.a{fill:#fff;}</style></defs><title>escobar-logo</title><path class="a" d="M101.72,41.07a2.17,2.17,0,0,1-.5-1.58V7.33a2.17,2.17,0,0,1,.5-1.58,2.15,2.15,0,0,1,1.58-.49h18.2a1.29,1.29,0,0,1,1.2.62,4.1,4.1,0,0,1,.36,2V9.46a4.08,4.08,0,0,1-.36,2,1.27,1.27,0,0,1-1.2.62H109.21v7.53h10.9a1.24,1.24,0,0,1,1.18.62,3.94,3.94,0,0,1,.37,2v1.61a3.93,3.93,0,0,1-.37,2,1.25,1.25,0,0,1-1.18.63h-10.9v8.4h12.35a1.28,1.28,0,0,1,1.19.62,4.1,4.1,0,0,1,.36,2V39a4.08,4.08,0,0,1-.36,2,1.26,1.26,0,0,1-1.19.62H103.3a2.15,2.15,0,0,1-1.58-.49"/><path class="a" d="M129.7,41c-1.8-.65-2.7-1.5-2.7-2.54a4.78,4.78,0,0,1,1-2.51c.65-1,1.24-1.48,1.76-1.48a2.58,2.58,0,0,1,1.14.41c.73.31,1.39.57,2,.76a7,7,0,0,0,2.1.28,4.09,4.09,0,0,0,2.36-.57,1.87,1.87,0,0,0,.8-1.61,1.81,1.81,0,0,0-.88-1.61,26.44,26.44,0,0,0-3.32-1.6,22.9,22.9,0,0,1-3.11-1.59,6.83,6.83,0,0,1-2.26-2.38,7.62,7.62,0,0,1-1-4,8,8,0,0,1,2.54-6.25,10.06,10.06,0,0,1,6.9-2.25,17.73,17.73,0,0,1,5.27.77c1.67.52,2.51,1.26,2.51,2.23a6.2,6.2,0,0,1-.77,2.55c-.53,1-1,1.55-1.46,1.55a7.91,7.91,0,0,1-1.55-.55A8.2,8.2,0,0,0,138,20c-1.83,0-2.74.64-2.74,1.92a2,2,0,0,0,.93,1.74,18.69,18.69,0,0,0,3.37,1.48A12,12,0,0,1,144,27.9a7,7,0,0,1,1.76,5.21,8.23,8.23,0,0,1-2.69,6.46Q140.38,42,135.61,42a17,17,0,0,1-5.91-1"/><path class="a" d="M152.36,38.58q-3.21-3.39-3.21-10.4t3.24-10.6Q155.63,14,162.47,14a17.58,17.58,0,0,1,5.89,1c1.82.65,2.72,1.52,2.72,2.62A5.16,5.16,0,0,1,170,20c-.71,1.07-1.27,1.61-1.68,1.61a3,3,0,0,1-.94-.37,14,14,0,0,0-2.05-.83,8.67,8.67,0,0,0-2.46-.31A5.14,5.14,0,0,0,158.43,22q-1.4,1.92-1.4,6t1.32,6a4.76,4.76,0,0,0,4.23,1.94,9.38,9.38,0,0,0,2.41-.28c.71-.19,1.3-.38,1.76-.55s.77-.29.91-.36a5.69,5.69,0,0,1,.93-.31,1.72,1.72,0,0,1,1.17.75,7.45,7.45,0,0,1,1.09,1.71,3.8,3.8,0,0,1,.44,1.48q0,1.29-1.74,2.13a14,14,0,0,1-3.91,1.16,23.2,23.2,0,0,1-3.42.34q-6.65,0-9.86-3.4"/><path class="a" d="M177.51,38.37q-3.21-3.6-3.21-10.4t3.21-10.37Q180.74,14,186.9,14t9.36,3.57q3.19,3.58,3.19,10.37t-3.19,10.4Q193.08,42,186.9,42t-9.39-3.61m13-4.46A12.11,12.11,0,0,0,191.67,28a12,12,0,0,0-1.16-5.91,3.91,3.91,0,0,0-3.61-2,4,4,0,0,0-3.63,2A11.72,11.72,0,0,0,182.08,28q0,8,4.82,7.94a3.88,3.88,0,0,0,3.61-2"/><path class="a" d="M215.09,40.89a7.32,7.32,0,0,1-2.78-2.8,10.3,10.3,0,0,1-.72,2.23,2.06,2.06,0,0,1-1,1.06,4.48,4.48,0,0,1-1.81.29h-.63c-2.07,0-3.11-.55-3.11-1.66V4.12c0-1.11,1-1.66,3.11-1.66h1.46c2.07,0,3.11.55,3.11,1.66V15.63A8.8,8.8,0,0,1,218,14a9.55,9.55,0,0,1,8.06,3.76Q229,21.54,229,28a20.72,20.72,0,0,1-1.24,7.58,10.54,10.54,0,0,1-3.45,4.79,8.2,8.2,0,0,1-5,1.64,8,8,0,0,1-4.17-1.09M221.18,28q0-7.87-4.82-7.88a7.32,7.32,0,0,0-3.63,1V32.64q1.76,3.06,4.25,3.06c2.8,0,4.2-2.57,4.2-7.73"/><path class="a" d="M235.16,39.91a8,8,0,0,1-1.84-5.5,8.92,8.92,0,0,1,3-6.9q3-2.75,11.85-2.75V23.05a2.61,2.61,0,0,0-1-2.23,5.12,5.12,0,0,0-3.08-.73,11.81,11.81,0,0,0-3.09.36,16.12,16.12,0,0,0-2.36.84,6,6,0,0,1-1.19.46q-.53,0-1.14-.78a8.46,8.46,0,0,1-1.09-1.78,4.23,4.23,0,0,1-.47-1.59c0-.59.43-1.15,1.3-1.71a11.47,11.47,0,0,1,3.58-1.35,23,23,0,0,1,5-.51c3.9,0,6.74.77,8.5,2.3a8,8,0,0,1,2.65,6.35v9.75c0,1.6,0,2.8.13,3.64s.19,1.74.33,2.74A5,5,0,0,1,256.5,40c0,.55-.7,1-2.1,1.24a19.22,19.22,0,0,1-3.71.42,1.34,1.34,0,0,1-1.3-.76,6.93,6.93,0,0,1-.54-1.63c-.12-.59-.2-1-.23-1.19a7.4,7.4,0,0,1-1.25,1.48,9.51,9.51,0,0,1-2.59,1.68A8.82,8.82,0,0,1,241,42c-2.66,0-4.61-.69-5.83-2.07M246.28,35a5.63,5.63,0,0,0,1.92-2.34V29.79q-7.26,0-7.26,3.84a2.16,2.16,0,0,0,.67,1.66,2.77,2.77,0,0,0,1.92.62,4.63,4.63,0,0,0,2.75-.93"/><path class="a" d="M262.62,40V23.57a34.38,34.38,0,0,0-.13-3.5c-.09-.81-.2-1.72-.34-2.73a5.81,5.81,0,0,1-.15-1.09c0-.55.7-1,2.1-1.24a19,19,0,0,1,3.7-.41,1.32,1.32,0,0,1,1.3.7,6.44,6.44,0,0,1,.55,1.53c.12.55.2.93.23,1.14a9.45,9.45,0,0,1,2.31-2.88A5.14,5.14,0,0,1,275.53,14a3,3,0,0,1,2.36.7,3.13,3.13,0,0,1,.6,2.1,10.39,10.39,0,0,1-.47,2.72c-.31,1.09-.69,1.63-1.14,1.63a5,5,0,0,1-1.09-.21,5.72,5.72,0,0,0-1.35-.2,3.94,3.94,0,0,0-2.46.8,6.72,6.72,0,0,0-1.68,1.79V40c0,1.11-1,1.66-3.12,1.66h-1.45c-2.07,0-3.11-.55-3.11-1.66"/><path class="a" d="M120.77,69.45a.48.48,0,0,1-.54-.54V54.67a.46.46,0,0,1,.52-.52h4.72a7.7,7.7,0,0,1,4.87,1.28,5.07,5.07,0,0,1,1.58,4.16,5.05,5.05,0,0,1-1.58,4.16A7.71,7.71,0,0,1,125.47,65h-2.22v3.89a.48.48,0,0,1-.54.54Zm4.68-7a4.15,4.15,0,0,0,2.6-.65,3.33,3.33,0,0,0,0-4.35,4.15,4.15,0,0,0-2.6-.65h-2.2v5.65Z"/><path class="a" d="M143.64,54.15a7.68,7.68,0,0,1,4.78,1.23A4.69,4.69,0,0,1,150,59.3a4.28,4.28,0,0,1-3.73,4.63l3.69,4.85a.43.43,0,0,1,.1.46.42.42,0,0,1-.42.21h-2.07a.94.94,0,0,1-.76-.43l-3.52-4.67h-2v4.56a.48.48,0,0,1-.55.54h-1.93a.48.48,0,0,1-.54-.54V54.67a.47.47,0,0,1,.54-.52Zm-.07,7.67a4.31,4.31,0,0,0,2.6-.6,2.82,2.82,0,0,0,0-3.87,4.34,4.34,0,0,0-2.58-.59h-2.34v5.06Z"/><path class="a" d="M167.45,55.89q1.77,2,1.77,5.91t-1.77,5.9a6.37,6.37,0,0,1-5,2,6.28,6.28,0,0,1-5-2c-1.18-1.33-1.76-3.29-1.76-5.89s.59-4.58,1.77-5.91a7.28,7.28,0,0,1,10,0Zm-1.34,5.91c0-3.5-1.22-5.26-3.67-5.26s-3.7,1.76-3.7,5.26S160,67,162.44,67,166.11,65.3,166.11,61.8Z"/><path class="a" d="M187.24,60.35a.48.48,0,0,1,.54.54v7a.9.9,0,0,1-.48.76,9.72,9.72,0,0,1-5,1.08q-7.44,0-7.44-7.91t7.63-7.89a8.47,8.47,0,0,1,4.39,1c.34.18.44.4.33.68L186.71,57c-.13.33-.37.42-.73.26a7.82,7.82,0,0,0-3-.63,5,5,0,0,0-3.77,1.22,5.69,5.69,0,0,0-1.16,4,5.76,5.76,0,0,0,1.14,4A4.63,4.63,0,0,0,182.69,67a5.6,5.6,0,0,0,2.33-.44V62.72h-2.37c-.36,0-.54-.17-.54-.5V60.89a.48.48,0,0,1,.54-.54Z"/><path class="a" d="M199.82,54.15a7.68,7.68,0,0,1,4.78,1.23,4.7,4.7,0,0,1,1.57,3.92,4.28,4.28,0,0,1-3.74,4.63l3.69,4.85a.38.38,0,0,1-.32.67h-2.07A.94.94,0,0,1,203,69l-3.52-4.67h-2v4.56a.48.48,0,0,1-.54.54H195a.48.48,0,0,1-.54-.54V54.67a.47.47,0,0,1,.54-.52Zm-.07,7.67a4.31,4.31,0,0,0,2.6-.6,2.82,2.82,0,0,0,0-3.87,4.32,4.32,0,0,0-2.57-.59h-2.35v5.06Z"/><path class="a" d="M215.42,62.91v3.94h6.18c.36,0,.54.17.54.52v1.54a.48.48,0,0,1-.54.54H213a.48.48,0,0,1-.55-.54V54.67a.47.47,0,0,1,.53-.52h8.56a.47.47,0,0,1,.54.52v1.55a.48.48,0,0,1-.54.54h-6.09v3.63h5.81c.35,0,.52.18.52.54v1.44c0,.36-.17.54-.52.54Z"/><path class="a" d="M236.92,68.56a7.34,7.34,0,0,1-4.24,1.09A10.68,10.68,0,0,1,228,68.8c-.31-.16-.42-.37-.32-.65l.52-1.39c.12-.35.33-.46.65-.33a8.85,8.85,0,0,0,3.46.65,5.05,5.05,0,0,0,2.33-.45,1.46,1.46,0,0,0,.86-1.37,1.37,1.37,0,0,0-.18-.69,2.82,2.82,0,0,0-.39-.51,3.39,3.39,0,0,0-.71-.45,8.53,8.53,0,0,0-.79-.38l-1-.38c-.6-.22-1.06-.4-1.39-.55a9.09,9.09,0,0,1-1.19-.64,3.62,3.62,0,0,1-1.67-2,4.25,4.25,0,0,1-.27-1.56q0-4.19,5.52-4.18a10.06,10.06,0,0,1,4.15.76q.48.24.33.66l-.5,1.34a.5.5,0,0,1-.7.31,8.35,8.35,0,0,0-3-.48q-2.76,0-2.76,1.65a1.85,1.85,0,0,0,1.24,1.61c.26.13.82.37,1.67.72l.92.37.81.37a5.22,5.22,0,0,1,.83.43l.66.47a2.29,2.29,0,0,1,.63.6c.12.18.25.41.41.68a2.7,2.7,0,0,1,.33.87,5.49,5.49,0,0,1,.09,1A3.68,3.68,0,0,1,236.92,68.56Z"/><path class="a" d="M251.35,54.15a.65.65,0,0,1,.65.5l5.07,14.2a.49.49,0,0,1,0,.43.38.38,0,0,1-.36.17h-2.11a.61.61,0,0,1-.63-.47l-1-2.85h-5.65l-1,2.85a.61.61,0,0,1-.61.47h-2.11a.44.44,0,0,1-.4-.17.41.41,0,0,1,0-.43l5.06-14.2a.66.66,0,0,1,.65-.5Zm.91,9.41-2.11-6.41h-.06l-2.15,6.41Z"/><path class="a" d="M19.3,46.34l-.6-.85c-.53-.8-1-1.6-1.48-2.44l0-.08c-.11-.22-.48-.95-.95-2.13-.11-.27-.23-.58-.35-.9s-.22-.61-.33-.93c-.44-1.26-.85-2.64-1.2-4.08L14,33.38l-.18-.89a64.35,64.35,0,0,1-1.22-10.92v-.19s0-.06,0-.09c-1,.19-2.14.33-3.42.61l-1.92.34a33.59,33.59,0,0,0-3.84.87,7.62,7.62,0,0,0-1.3.5A3,3,0,0,0,.9,24.75a3.28,3.28,0,0,0-.05,1.94C1,27.85,1.18,29,3,32.4c1.92,3.93,5.58,8.13,6.57,9.39a31.83,31.83,0,0,0,12.55,7.87A24.51,24.51,0,0,1,20,47.22C19.73,46.93,19.51,46.64,19.3,46.34Z"/><path class="a" d="M23.41,36.8c0-.37,0-.72-.05-1.1,0-1,0-2,.05-3v-.07c0-.27.1-1.13.34-2.45.05-.3.11-.65.19-1s.14-.65.21-1c.31-1.38.71-2.83,1.18-4.32l.53-1.59c.11-.31.22-.59.32-.89A69.74,69.74,0,0,1,30.5,12l-.08,0c-1.22-.52-3.09-1.21-5.57-2.05l-1.47-.56C21.77,8.76,20.61,8.31,19.44,8a4.66,4.66,0,0,0-1.21-.27A2.89,2.89,0,0,0,16.66,8a2.9,2.9,0,0,0-1.14,1.68,34.43,34.43,0,0,0-.66,7.46c0,.17.11,2.75.11,3.4v.79L15,22v.19a62.19,62.19,0,0,0,1.14,10.29l.18.82.34,1.48c.33,1.33.71,2.61,1.12,3.78.1.31.21.6.3.87l.32.81a19.09,19.09,0,0,0,.86,1.92v0c.43.76.86,1.47,1.34,2.19.18.27.36.52.54.78l.59.78a19.7,19.7,0,0,0,6.37,5.46c.43.1.87.19,1.3.27A22.77,22.77,0,0,1,23.51,38C23.47,37.57,23.44,37.19,23.41,36.8Z"/><path class="a" d="M34.82,31.58c.13-.32.28-.65.44-1s.29-.6.44-.9c.44-.84.89-1.62,1.39-2.41.14-.2.59-.88,1.42-1.89l.61-.73.64-.7c.88-1,1.86-2,2.92-2.95l1.16-1,.67-.57a62.78,62.78,0,0,1,8.77-6.18l.18-.1-.05-.07c-.12-.2-.25-.4-.38-.6l-.4-.58-.14-.22c-.8-1.18-2.08-2.9-3.82-5.13l-1-1.35c-1.08-1.5-1.87-2.59-2.74-3.58a7.76,7.76,0,0,0-1-1A2.37,2.37,0,0,0,42.42,0h0a3.24,3.24,0,0,0-2,.89A43.82,43.82,0,0,0,35.8,7.45l-.24.44-.19.33c-.63.91-1.14,1.69-1.51,2.3l-.08.13-.36.6c-.11.2-.22.38-.32.57L33,12a66.52,66.52,0,0,0-4.74,10.1c-.11.29-.21.57-.31.85l-.52,1.56c-.45,1.41-.83,2.8-1.13,4.12-.07.34-.14.66-.2,1s-.13.65-.18.94a20.24,20.24,0,0,0-.31,2.27c-.06.94-.07,1.86-.05,2.81,0,.34,0,.68.05,1s.05.72.09,1.07a20.24,20.24,0,0,0,7.56,14.48c1.21.12,2.44.19,3.67.21A20.6,20.6,0,0,1,34.82,31.58Z"/><path class="a" d="M69.67,16.31c-.25-1.78-.41-2.95-.69-4.15l-.16-.82a2.46,2.46,0,0,0-1.21-1.68,2.62,2.62,0,0,0-2-.1,39.71,39.71,0,0,0-6.77,3.16l-.38.23-.34.2c-1,.46-1.7.83-2.29,1.16l-.23.12-.45.26-.48.28-.24.15a60.42,60.42,0,0,0-8.47,6c-.22.19-.43.36-.63.55l-1.13,1c-1,.93-1.95,1.87-2.78,2.8l-.61.68-.57.68c-.78.95-1.19,1.57-1.27,1.68-.46.73-.88,1.46-1.29,2.23-.14.28-.28.56-.41.85s-.28.59-.41.89c-3.79,8.82-.53,15.76,2.79,20,.63,0,1.26-.07,1.9-.12a17.68,17.68,0,0,1-.74-1.89l0-.08C39.4,45,38.58,35.12,48.19,28c.27-.2.54-.4.82-.59l.07-.05.73-.48c.73-.46,1.47-.89,2.26-1.3l.07,0c.21-.1.89-.42,2-.83l.84-.31.86-.28c1.17-.37,2.44-.71,3.76-1l1.45-.3.81-.15a58.15,58.15,0,0,1,8.63-.85h0c-.16-1.1-.38-2.43-.65-4Z"/><path class="a" d="M57.21,48.48c.36-.14.73-.32,1.11-.5a9,9,0,0,1,3.38-1.1,3.17,3.17,0,0,1,1.12.17,5.69,5.69,0,0,1,2.11,1.23c4.32-2.87,7.38-6.87,9.86-10.12s4.27-5.71,6.46-5.77a3.45,3.45,0,0,1,1.37.27,5.06,5.06,0,0,1,.65.46l.42-1c.64-1.56,1.07-2.6,1.4-3.7a5.33,5.33,0,0,0,.29-1,3.68,3.68,0,0,0-.26-1.53,2.41,2.41,0,0,0-1.52-1.08,37.2,37.2,0,0,0-7-.63S74.05,24,73.43,24h-.74c-.21,0-.4,0-.59,0h-.19l-1.37,0a56.52,56.52,0,0,0-8.31.82l-.77.14-1.4.29c-1.24.28-2.45.61-3.57,1l-.81.27-.79.28c-1,.39-1.65.68-1.82.76-.73.38-1.41.78-2.09,1.21-.23.14-.45.29-.67.44l-.07,0-.75.53c-8.56,6.35-7.84,15.23-6.63,20a15.11,15.11,0,0,0,1,2.31A53.23,53.23,0,0,0,57.21,48.48Z"/><path class="a" d="M82.3,34.33c-3.93-1.78-6.16,9.18-16,15.34,1.41,3.18.86,5.69-4.86,9a43.35,43.35,0,0,1-8.76,3.77c-1.72.49-2.79.88-3.07.29s-.45-1.15,1.76-1.83a55.81,55.81,0,0,0,9.33-4c3.16-1.8,4.16-3,4-5.27A3.09,3.09,0,0,0,62.53,49c-1.39-.5-3.5.8-5.13,1.47-7.56,3.11-20.85,6.73-35.73,1.23C12.41,48.32,8.09,43.9,1.88,35,.71,33.33-.28,34.23.07,36,3.51,51.87,16.26,69.33,35.93,71.76c25.22,3.13,38.34-13.39,42.3-20.15S87,36.47,82.3,34.33"/></svg>