<svg xmlns="http://www.w3.org/2000/svg" width="1418" height="607" viewBox="0 0 1418 607"><path d="M1095.6211,265.4639c-6.7647.73-13.4482,1.6875-20.0068,2.874-50.5049,9.1367-86.1748,29.8149-97.8643,56.7334-8.89,20.4712-11.5244,42.8906-7.2275,61.5088,4.7451,20.5625,17.6367,35.9062,38.3173,45.6054,40.0674,18.7925,82.3584-9.4033,98.3213-34.3764,21.8448-34.1738,9.5284-82.3794-4.6513-116.8018C1100.31,275.665,1097.9922,270.4678,1095.6211,265.4639Z" fill="none"/><path d="M1375.52,439.9531c-35.1972-81.1494-86.6806-136.501-148.8847-160.0708-20.9375-7.9341-45.48-13.0464-70.9717-15.1352,10.6094,26.874,16.7988,52.3554,18.4053,75.8076,2.2744,33.2056-4.5372,62.5034-20.2471,87.0806-23.9473,37.4624-69.6074,65.9863-117.8076,65.9907a118.55,118.55,0,0,1-50.6895-11.3032c-36.3437-17.0455-60.1211-45.8467-68.7617-83.2906-7.0049-30.3554-3.3145-64.456,10.3926-96.019,19.4678-44.8311,68.7617-76.4981,138.8008-89.169.1113-.02.2168-.039.3271-.059-3.9961-5.919-6.5381-9.3-6.6172-9.4048C990.1211,112.7363,859.375,59.4531,726.3652,68.6333c-98.3027,6.7847-156.7988,46.9985-213.3681,85.8882-54.6758,37.5879-111.0557,76.3393-196.0508,76.3428-8.4649,0-17.2031-.3838-26.2627-1.1914-64.4082-5.7432-132.1885-31.7-185.9629-71.2144C45.5068,114.9468,8.5664,59.2832.7036,1.7222.6257,1.1514.5688.5728.4963,0H1L0,607H1418v-.38C1411.1982,545.6387,1396.9316,489.32,1375.52,439.9531Z" fill="none"/><path d="M137.5127,113.833c45.8516,33.6934,103.4736,55.8106,158.0889,60.6807,80.1709,7.1484,126.88-24.9673,186.0234-65.6265,59.7783-41.0957,127.5322-87.6738,240.9277-95.5a486.6342,486.6342,0,0,1,211.1338,32.76c70.4737,27.8652,129.2373,71.0263,169.9385,124.8174a405.22,405.22,0,0,1,24.3223,37.2876c41.7568-.1792,83.37,6.6059,118.3105,19.8452,38.7861,14.6967,74.1953,39.0512,105.2432,72.3852,25.6875,27.5791,48,60.9126,66.499,99.2686V0H56.52C64.0718,40.6255,92.6133,80.84,137.5127,113.833Z" fill="none"/><path d="M1017.0312,133.8052q1.005.7477,1.7774,1.2226a4.5924,4.5924,0,0,0,1.3818.6075,1.7728,1.7728,0,0,0,1.0967-.0748,2.8832,2.8832,0,0,0,1.4492-1.9458,1.74,1.74,0,0,0-.249-1.0659,4.7681,4.7681,0,0,0-.9834-1.1426q-.6768-.6027-1.6816-1.3515l-7.1875-5.3482-2.791,3.75Z" fill="#b1d6ae"/><path d="M1023.917,127.4355a2.6633,2.6633,0,0,0,1.0225.2207,1.4155,1.4155,0,0,0,.7773-.2329,2.35,2.35,0,0,0,.582-.5581,2.3741,2.3741,0,0,0,.3682-.7177,1.53,1.53,0,0,0,.0088-.8243,2.6618,2.6618,0,0,0-.4863-.9423,5.5762,5.5762,0,0,0-1.128-1.06l-7.3349-5.458-2.4746,3.3252,7.3359,5.458A6.1142,6.1142,0,0,0,1023.917,127.4355Z" fill="#b1d6ae"/><path d="M1124.7344,255.6523a7.8734,7.8734,0,0,0-1.5625.4981,7.9683,7.9683,0,0,0-1.4414.8291,5.7656,5.7656,0,0,0-1.2227,1.1885,5.678,5.678,0,0,0-.8476,1.5986,6.6915,6.6915,0,0,0-.35,2.0542,10.5266,10.5266,0,0,0,.2881,2.5591,17.13,17.13,0,0,0,1.0733,3.126,14.5885,14.5885,0,0,0,2.415,3.9575,7.7251,7.7251,0,0,0,2.6065,1.9643,5.3133,5.3133,0,0,0,2.6074.4375,7.6189,7.6189,0,0,0,4.5117-1.9922,5.3169,5.3169,0,0,0,1.4326-2.2226,7.7324,7.7324,0,0,0,.3037-3.249,14.5788,14.5788,0,0,0-1.2988-4.4512,17.0039,17.0039,0,0,0-1.5879-2.8984,10.3174,10.3174,0,0,0-1.7051-1.9331,6.7456,6.7456,0,0,0-1.7675-1.12,5.8546,5.8546,0,0,0-1.76-.4463A5.78,5.78,0,0,0,1124.7344,255.6523Z" fill="#b1d6ae"/><polygon points="1095.373 197.526 1086.291 198.677 1091.057 205.582 1095.373 197.526" fill="#b1d6ae"/><path d="M856.8447,59.3193a6.694,6.694,0,0,0,1.417,1.5274,10.5137,10.5137,0,0,0,2.2041,1.331,17.1454,17.1454,0,0,0,3.1328,1.0528,14.5928,14.5928,0,0,0,4.61.4951,7.7224,7.7224,0,0,0,3.1445-.8706,5.3233,5.3233,0,0,0,1.9365-1.8018,7.6261,7.6261,0,0,0,1.167-4.7915,5.3121,5.3121,0,0,0-.8886-2.49,7.7475,7.7475,0,0,0-2.3936-2.22,14.5684,14.5684,0,0,0-4.3213-1.6817,17.1274,17.1274,0,0,0-3.2656-.5063,10.3142,10.3142,0,0,0-2.5713.1753,6.7271,6.7271,0,0,0-1.9639.72,5.8775,5.8775,0,0,0-1.4277,1.124,5.8066,5.8066,0,0,0-.9521,1.4048,7.7284,7.7284,0,0,0-.5567,1.5425,8.021,8.021,0,0,0-.2217,1.6489,5.8079,5.8079,0,0,0,.1993,1.6934A5.6946,5.6946,0,0,0,856.8447,59.3193Z" fill="#b1d6ae"/><polygon points="790.704 38.796 785.83 46.545 794.19 47.244 790.704 38.796" fill="#b1d6ae"/><polygon points="599.143 63.833 598.154 72.935 605.977 69.902 599.143 63.833" fill="#b1d6ae"/><path d="M428.53,177.3779a15.658,15.658,0,0,0,3.0771-2.1084,6.1345,6.1345,0,0,0,1.61-2.1958,4.4557,4.4557,0,0,0,.2685-2.37,9.1726,9.1726,0,0,0-2.6465-4.8516,4.3517,4.3517,0,0,0-2.1289-1.0429,6.2876,6.2876,0,0,0-2.7109.1787,15.6722,15.6722,0,0,0-3.4385,1.4453l-6.7646,3.6894,5.9687,10.9439Z" fill="#b1d6ae"/><polygon points="457.758 155.496 449.861 150.895 450.688 160.013 457.758 155.496" fill="#b1d6ae"/><path d="M1134.84,303.5513a6.1424,6.1424,0,0,0,1.8086,2.0351,4.4564,4.4564,0,0,0,2.2608.7593,9.1654,9.1654,0,0,0,5.2988-1.57,4.352,4.352,0,0,0,1.4668-1.8638,6.2974,6.2974,0,0,0,.3936-2.688,15.6357,15.6357,0,0,0-.6934-3.6645l-2.1885-7.3882-11.9521,3.5415,2.1894,7.3877A15.6121,15.6121,0,0,0,1134.84,303.5513Z" fill="#b1d6ae"/><path d="M104.7207,158.4585c53.7744,39.5146,121.5547,65.4712,185.9629,71.2144,9.06.8076,17.7978,1.1914,26.2627,1.1914,84.9951-.0035,141.375-38.7549,196.0508-76.3428,56.5693-38.89,115.0654-79.1035,213.3681-85.8882,133.01-9.18,263.7559,44.103,333.1006,135.7471.0791.105,2.6211,3.4858,6.6172,9.4048-.11.02-.2158.039-.3271.059-70.0391,12.6709-119.333,44.3379-138.8008,89.169-13.7071,31.563-17.3975,65.6636-10.3926,96.019,8.6406,37.4439,32.418,66.2451,68.7617,83.2906a118.55,118.55,0,0,0,50.6895,11.3032c48.2-.0044,93.86-28.5283,117.8076-65.9907,15.71-24.5772,22.5215-53.875,20.2471-87.0806-1.6065-23.4522-7.7959-48.9336-18.4053-75.8076,25.4922,2.0888,50.0342,7.2011,70.9717,15.1352,62.2041,23.57,113.6875,78.9214,148.8847,160.0708,21.4121,49.3672,35.6787,105.6856,42.48,166.667V399.751c-18.499-38.356-40.8115-71.6895-66.499-99.2686-31.0479-33.334-66.4571-57.6885-105.2432-72.3852-34.94-13.2393-76.5537-20.0244-118.3105-19.8452a405.22,405.22,0,0,0-24.3223-37.2876C1062.9238,117.1733,1004.16,74.0122,933.6865,46.147a486.6342,486.6342,0,0,0-211.1338-32.76C609.1572,21.2134,541.4033,67.7915,481.625,108.8872c-59.1436,40.6592-105.8525,72.7749-186.0234,65.6265-54.6153-4.87-112.2373-26.9873-158.0889-60.6807C92.6133,80.84,64.0718,40.6255,56.52,0H.4963C.5688.5728.6257,1.1514.7036,1.7222,8.5664,59.2832,45.5068,114.9468,104.7207,158.4585Zm1002.44,239.3506c-15.9629,24.9731-58.2539,53.1689-98.3213,34.3764-20.6806-9.6992-33.5722-25.0429-38.3173-45.6054-4.2969-18.6182-1.6621-41.0376,7.2275-61.5088,11.6895-26.9185,47.3594-47.5967,97.8643-56.7334,6.5586-1.1865,13.2421-2.1436,20.0068-2.874,2.3711,5.0039,4.6885,10.2011,6.8887,15.5434C1116.69,315.43,1129.0059,363.6353,1107.1611,397.8091ZM1140.9043,360.2l-5.1133-.335.3906-5.9707,5.1133.335Zm16.8887,1.4575-4.793-.3139-9.6-1.9014.2715-4.1362,9.7646-.6338,4.793.3139Zm-1.3008-36.6611a28.5422,28.5422,0,0,1,1.3848,12.896,14.4908,14.4908,0,0,1-1.6719,5.1133,9.8883,9.8883,0,0,1-3.2852,3.48,12.1365,12.1365,0,0,1-9.9824,1.0722,9.8708,9.8708,0,0,1-3.95-2.7021,14.4816,14.4816,0,0,1-2.72-4.6416,25.8213,25.8213,0,0,1-1.4356-6.36,26.0853,26.0853,0,0,1,.0489-6.5361,14.6761,14.6761,0,0,1,1.67-5.147,9.9788,9.9788,0,0,1,3.2812-3.5127,11.976,11.976,0,0,1,9.9825-1.0723,9.9782,9.9782,0,0,1,3.9541,2.7354A14.6894,14.6894,0,0,1,1156.4922,324.9966Zm-6.332-29.1929a27.41,27.41,0,0,1,.8086,3.5435,17.2418,17.2418,0,0,1,.207,3.33,11.3125,11.3125,0,0,1-.5215,3.0214,8.3866,8.3866,0,0,1-1.3848,2.6163,9.5768,9.5768,0,0,1-2.3633,2.1206,13.1878,13.1878,0,0,1-3.4511,1.5278,13.3444,13.3444,0,0,1-3.749.6055,9.423,9.423,0,0,1-3.1358-.4913,8.6263,8.6263,0,0,1-2.5859-1.4306,10.9656,10.9656,0,0,1-2.085-2.2319,16.9581,16.9581,0,0,1-1.6377-2.897,27.1933,27.1933,0,0,1-1.2539-3.4112l-4.1406-13.9741,21.1621-6.271Zm-15.8819-41.4062a28.5052,28.5052,0,0,1,5.2393,11.8642,14.4926,14.4926,0,0,1-.0371,5.38,9.9108,9.9108,0,0,1-2.0723,4.3135,12.1435,12.1435,0,0,1-9.1846,4.0566,9.8813,9.8813,0,0,1-4.5849-1.374,14.4848,14.4848,0,0,1-4.002-3.5947,28.5031,28.5031,0,0,1-5.24-11.8643,14.6273,14.6273,0,0,1,.0254-5.4106,9.9587,9.9587,0,0,1,2.0586-4.3443,11.9726,11.9726,0,0,1,9.1836-4.0566,9.9706,9.9706,0,0,1,4.5976,1.4043A14.6726,14.6726,0,0,1,1134.2783,254.3975Zm-17.2256-23.3711-4.6953-8.5381,4.2071-2.3154,12.3906,22.5239-4.209,2.3149-4.7041-8.5527-15.13,8.3232-2.9892-5.4331Zm-15.2382-33.7827-11.34,22.4282-3.9307-5.6953,2.2129-4.147-7.2724-10.5371-4.6621.5981-3.9307-5.6953,24.9922-2.6465Zm-22.3106-29.6421-3.4326,3.2212-11.5537-12.3091-2.6582,2.4956,10.957,11.6753-3.4307,3.2212-10.958-11.6753-3.1386,2.9463,11.7129,12.4794-3.4317,3.2212-16.0723-17.1225,16.0938-15.1055Zm-33.0195-32.6324-11.459,12.8765,12.5234,11.1445-3.2138,3.6123-17.1573-15.2666,14.6739-16.4887Zm-17.958-14.5962q.7909.5889,1.542,1.2466a12.49,12.49,0,0,1,1.3437,1.3711,7.8963,7.8963,0,0,1,.9873,1.4859,4.5826,4.5826,0,0,1,.4815,1.62,4.4832,4.4832,0,0,1-.1768,1.7505,6.0018,6.0018,0,0,1-.9853,1.87,4.9985,4.9985,0,0,1-2.9219,2.08,5.7863,5.7863,0,0,1-3.791-.7285,12.3788,12.3788,0,0,1,2.0058,2.1045,5.4241,5.4241,0,0,1,.9492,1.9873,3.8546,3.8546,0,0,1-.0644,1.934,6.2655,6.2655,0,0,1-1.0274,1.9688,6.4367,6.4367,0,0,1-1.6152,1.582,4.7962,4.7962,0,0,1-3.625.7154,9.2215,9.2215,0,0,1-1.959-.6163,15.1881,15.1881,0,0,1-2.0234-1.0747q-1.0226-.6408-2.0547-1.4091l-13.3691-9.9483,13.1757-17.7075ZM1008.48,106.1392l-12.0508,18.4917-5.1953-3.3858,12.0518-18.4917ZM977.5312,87.5181l6.0215,20.8862,7.4864-13.2622,5.3711,3.0312-10.85,19.2222-5.8505-3.3027-6.04-20.8223-7.4541,13.2066-5.3994-3.0479L971.665,84.2075Zm-12.64-6.6758-1.98,4.27-15.3154-7.1011L946.0625,81.32,960.59,88.0552l-1.98,4.27L944.082,85.59l-1.8105,3.9058,15.5273,7.2-1.98,4.27-21.3056-9.8784,9.2851-20.0244ZM915.0723,59.7144l23.9746,9.2768-1.7344,4.4795-9.1035-3.5225-6.2315,16.105-5.7822-2.2378,6.2305-16.105-9.0869-3.5166Zm-31.334,6.2309a21.6,21.6,0,0,0,4.4,3.4033,27.33,27.33,0,0,0,5.7715,2.5586,20.9194,20.9194,0,0,0,3.1279.7827,8.1,8.1,0,0,0,2.0117.1,2.2222,2.2222,0,0,0,1.1143-.3623,1.2693,1.2693,0,0,0,.4531-.5976,1.1506,1.1506,0,0,0-.1983-1.0322,4.6665,4.6665,0,0,0-1.0966-1.0733,18.2526,18.2526,0,0,0-1.7618-1.1333q-1.0253-.5859-2.1835-1.2158-1.16-.6291-2.378-1.32-1.22-.6907-2.334-1.4575a20.1289,20.1289,0,0,1-2.0556-1.6143,8.9432,8.9432,0,0,1-1.5537-1.7915A5.4565,5.4565,0,0,1,886.25,59.2a4.5527,4.5527,0,0,1,.1816-2.2266,5.2995,5.2995,0,0,1,3.1993-3.5263,7.7132,7.7132,0,0,1,2.373-.5181,14.6087,14.6087,0,0,1,2.6172.0728,22.295,22.295,0,0,1,2.6562.4731q1.3184.3178,2.4825.6875,1.2714.405,2.58.9551,1.3067.55,2.543,1.187t2.3633,1.3149q1.125.6783,2.0586,1.3286l-1.5469,4.8687q-.5287-.4885-1.4316-1.18t-2.0879-1.4307a29.2007,29.2007,0,0,0-2.6289-1.4419,22.6124,22.6124,0,0,0-3.0352-1.2089q-1.2759-.4044-2.1992-.6143a14.6584,14.6584,0,0,0-1.5771-.2812,4.9112,4.9112,0,0,0-1.0616-.0259,2.3065,2.3065,0,0,0-.6543.1548.8443.8443,0,0,0-.3535.2583.9477.9477,0,0,0,.0694,1.2441,4.9713,4.9713,0,0,0,1.1123,1.0273,20.8656,20.8656,0,0,0,1.7666,1.1177q1.0239.5866,2.1777,1.2315t2.374,1.3608q1.2188.7156,2.3272,1.5064a19.3449,19.3449,0,0,1,2.04,1.6674,9.3291,9.3291,0,0,1,1.5352,1.8453,5.6528,5.6528,0,0,1,.791,2.0375,4.7094,4.7094,0,0,1-.1885,2.25,5.6615,5.6615,0,0,1-3.458,3.789,7.9653,7.9653,0,0,1-2.54.5166,16.1824,16.1824,0,0,1-2.794-.1211,23.199,23.199,0,0,1-2.8262-.5439q-1.4032-.3611-2.6445-.7559a34.65,34.65,0,0,1-5.8506-2.4233,32.6707,32.6707,0,0,1-4.4756-2.83ZM849.9941,52.8389a10.9569,10.9569,0,0,1,2.26-4.6162,9.9877,9.9877,0,0,1,3.9141-2.7915,14.6868,14.6868,0,0,1,5.3222-.9766,28.5147,28.5147,0,0,1,12.6016,3.0708,14.4992,14.4992,0,0,1,4.2432,3.3071,9.89,9.89,0,0,1,2.1591,4.271,12.14,12.14,0,0,1-2.3769,9.7549,9.8919,9.8919,0,0,1-3.8818,2.7988,14.4841,14.4841,0,0,1-5.2891.9849,28.5208,28.5208,0,0,1-12.6016-3.0708,14.6686,14.6686,0,0,1-4.2763-3.315,9.9782,9.9782,0,0,1-2.1914-4.2792A10.95,10.95,0,0,1,849.9941,52.8389Zm-29.2158-.585a21.5629,21.5629,0,0,0,4.8194,2.7778,27.2962,27.2962,0,0,0,6.0654,1.7549,20.8455,20.8455,0,0,0,3.2041.353,8.1049,8.1049,0,0,0,2.0058-.1728,2.2258,2.2258,0,0,0,1.0567-.51,1.2747,1.2747,0,0,0,.3672-.6533,1.1534,1.1534,0,0,0-.336-.9961,4.675,4.675,0,0,0-1.2324-.915,18.2182,18.2182,0,0,0-1.8984-.8843q-1.0928-.4431-2.3272-.91t-2.5341-.9863q-1.3008-.5193-2.51-1.1289a19.9483,19.9483,0,0,1-2.2559-1.3218,9.0075,9.0075,0,0,1-1.7812-1.5644,5.4526,5.4526,0,0,1-1.0664-1.8653,4.5286,4.5286,0,0,1-.1211-2.23,5.2965,5.2965,0,0,1,2.6914-3.9263,7.71,7.71,0,0,1,2.2832-.8345,14.5909,14.5909,0,0,1,2.6015-.2817,22.3253,22.3253,0,0,1,2.6954.1094q1.35.137,2.5527.3457,1.3169.2292,2.6875.5976,1.3682.3684,2.68.8325,1.31.4644,2.5176.9839t2.2207,1.0376l-.875,5.0332q-.5919-.4123-1.5782-.9756t-2.2617-1.1347a28.8911,28.8911,0,0,0-2.8-1.0733,22.3779,22.3779,0,0,0-3.1709-.7876q-1.3184-.2292-2.2617-.3115a14.6718,14.6718,0,0,0-1.6016-.0659,4.93,4.93,0,0,0-1.0547.1182,2.3164,2.3164,0,0,0-.6269.2417.8434.8434,0,0,0-.3164.3037.95.95,0,0,0,.2373,1.2231,4.9775,4.9775,0,0,0,1.2412.8677,20.7964,20.7964,0,0,0,1.9014.8686q1.0942.4433,2.3252.9258,1.2289.4827,2.5351,1.0274,1.3038.5448,2.51,1.1782a19.3734,19.3734,0,0,1,2.2461,1.3765,9.42,9.42,0,0,1,1.7715,1.6206,5.6654,5.6654,0,0,1,1.0586,1.9121,4.7122,4.7122,0,0,1,.1171,2.2539,5.6652,5.6652,0,0,1-2.914,4.2221,7.968,7.968,0,0,1-2.4473.855,16.2309,16.2309,0,0,1-2.7851.2578,23.2291,23.2291,0,0,1-2.8731-.1567q-1.4385-.1684-2.7226-.3916a34.65,34.65,0,0,1-6.1241-1.61,32.6394,32.6394,0,0,1-4.8173-2.1987ZM794.5732,33.6387,804.71,56.6348l-6.8955-.5762-1.8008-4.3418L783.2559,50.65l-2.4971,3.9824-6.8955-.5766L787.6777,33.062Zm-44.875-2.1856,25.6983.6646-.125,4.8012-9.7578-.2519L765.0674,53.93l-6.1983-.16.4454-17.2632-9.74-.2519Zm-17.3505.4644.4726,17.23,16.7588-.4595.1318,4.8335-22.956.63-.6055-22.064Zm-13.4864.521.4317,4.6865L702.4824,38.67l.334,3.6314,15.9443-1.4659.4307,4.687-15.9453,1.4659.3945,4.2871,17.044-1.5669.4306,4.6875-23.3847,2.1494-2.02-21.9795Zm-52.1758,6.54,2.0655,12.3257a7.3284,7.3284,0,0,0,.6347,2.02,3.7478,3.7478,0,0,0,1.3731,1.521,5.7644,5.7644,0,0,0,2.4355.7808,13.7233,13.7233,0,0,0,3.8223-.2007A13.5444,13.5444,0,0,0,680.67,54.373a5.7679,5.7679,0,0,0,2.04-1.5307,3.69,3.69,0,0,0,.7939-1.8838,7.514,7.514,0,0,0-.0664-2.1147L681.373,36.5176l6.1172-1.0244,2.417,14.4336a6.084,6.084,0,0,1-.3261,3.2143,7.6482,7.6482,0,0,1-2.1006,2.9414,14.2342,14.2342,0,0,1-3.9092,2.4063,28.3877,28.3877,0,0,1-11.77,1.9712,14.211,14.211,0,0,1-4.4961-.9971,7.6568,7.6568,0,0,1-2.9453-2.0967,6.0961,6.0961,0,0,1-1.3555-2.9331L660.5859,40Zm-33.9052,7.83,12.2138,14.02,3.9629-18.16,6.7032-1.7153-5.8633,24.2837-6.9951,1.79L626.0762,48.5239ZM593.9121,60.0034l6.4512-2.501,19.1836,16.2369L613.0947,76.24l-3.52-3.1152-11.9375,4.6274-.5,4.6734-6.4521,2.501ZM558.5029,76.0518l20.6309,6.8461L572.43,69.2241l5.5391-2.7148,9.7148,19.8188L581.65,89.2856l-20.5879-6.7963,6.6758,13.6162-5.5684,2.73-9.7148-19.8188Zm-31.4814,17.623,6.3262,10.7793a7.3184,7.3184,0,0,0,1.3125,1.66,3.7415,3.7415,0,0,0,1.8242.9306,5.76,5.76,0,0,0,2.5547-.1387,13.7105,13.7105,0,0,0,3.5-1.55,13.5544,13.5544,0,0,0,3.0371-2.2857,5.7811,5.7811,0,0,0,1.3613-2.1577,3.6869,3.6869,0,0,0,.0693-2.0435,7.5828,7.5828,0,0,0-.8154-1.9521l-6.3252-10.7793L545.2148,83l7.4063,12.6221a6.1019,6.1019,0,0,1,.8418,3.1191,7.661,7.661,0,0,1-.9141,3.4971,14.2367,14.2367,0,0,1-2.7939,3.6426,28.371,28.371,0,0,1-10.293,6.04,14.2282,14.2282,0,0,1-4.5576.6719,7.66,7.66,0,0,1-3.4981-.9087,6.0954,6.0954,0,0,1-2.3124-2.2563l-7.4063-12.6221Zm-22.0664,13.8867,2.6113,3.916-14.0449,9.3658,2.0234,3.0337,13.3223-8.8833,2.61,3.916-13.3213,8.8833,2.3887,3.582,14.2383-9.4956,2.6123,3.916-19.5381,13.0283L485.6123,120.46Zm-37.3887,25.1372,9.6426,14.2867,13.8945-9.3785,2.7061,4.0078-19.0362,12.8477-12.3476-18.2949Zm-17.7578,11.7491,22.01,12.1308-5.8321,3.7251-4.0654-2.3589-10.7891,6.8926.4307,4.68-5.8311,3.7256-1.7548-25.07ZM420.82,161.9126a27.2557,27.2557,0,0,1,3.2949-1.5317,17.1822,17.1822,0,0,1,3.2119-.9009,11.3045,11.3045,0,0,1,3.0635-.1245,8.3792,8.3792,0,0,1,2.8487.8066,9.59,9.59,0,0,1,2.5693,1.8652,13.1908,13.1908,0,0,1,2.2168,3.0542,13.3745,13.3745,0,0,1,1.3789,3.5391,9.4189,9.4189,0,0,1,.1758,3.1694,8.5868,8.5868,0,0,1-.8565,2.8282,11.0116,11.0116,0,0,1-1.7451,2.5068,16.9729,16.9729,0,0,1-2.4892,2.2085,27.2387,27.2387,0,0,1-3.0723,1.9409l-12.7959,6.9785L408.0527,168.875Zm-11.2236,25.1128,1.9668,4.3818-6.1,2.7378-1.9659-4.3818-2.8144-9.3721,3.7812-1.6977Zm-7.3916-15.6108,2.0986,4.6748-5.46,2.45-2.0977-4.6753Z" fill="#b1d6ae"/><path d="M1147.0186,323.291a7.8343,7.8343,0,0,0-1.64,0,8.0171,8.0171,0,0,0-1.6269.3511,5.7755,5.7755,0,0,0-1.5254.7607,5.7083,5.7083,0,0,0-1.294,1.2652,6.6772,6.6772,0,0,0-.956,1.8511,10.4361,10.4361,0,0,0-.5039,2.5253,16.9367,16.9367,0,0,0,.0722,3.3038,14.57,14.57,0,0,0,1.0967,4.5048,7.7475,7.7475,0,0,0,1.8857,2.6641,5.3366,5.3366,0,0,0,2.3516,1.21,7.63,7.63,0,0,0,4.9043-.5274,5.328,5.328,0,0,0,2.041-1.6816,7.7453,7.7453,0,0,0,1.2764-3.003,14.5628,14.5628,0,0,0,.1162-4.6357,17.18,17.18,0,0,0-.6309-3.2436,10.3364,10.3364,0,0,0-1.0371-2.36,6.7558,6.7558,0,0,0-1.3437-1.6035,5.7322,5.7322,0,0,0-3.1865-1.3809Z" fill="#b1d6ae"/><rect x="397.5327" y="172.4148" width="5.984" height="5.1243" transform="translate(-36.5309 179.3817) rotate(-24.1765)" fill="#2c4d9c"/><polygon points="403.498 189.763 405.464 194.145 411.563 191.407 409.597 187.025 404.465 178.693 400.684 180.391 403.498 189.763" fill="#2c4d9c"/><path d="M431.417,181.2744a27.2387,27.2387,0,0,0,3.0723-1.9409,16.9729,16.9729,0,0,0,2.4892-2.2085,11.0116,11.0116,0,0,0,1.7451-2.5068,8.5868,8.5868,0,0,0,.8565-2.8282,9.4189,9.4189,0,0,0-.1758-3.1694,13.3745,13.3745,0,0,0-1.3789-3.5391,13.1908,13.1908,0,0,0-2.2168-3.0542,9.59,9.59,0,0,0-2.5693-1.8652,8.3792,8.3792,0,0,0-2.8487-.8066,11.3045,11.3045,0,0,0-3.0635.1245,17.1822,17.1822,0,0,0-3.2119.9009,27.2557,27.2557,0,0,0-3.2949,1.5317l-12.7676,6.9624,10.5684,19.3779Zm-8.8555-14.8408A15.6722,15.6722,0,0,1,426,164.9883a6.2876,6.2876,0,0,1,2.7109-.1787,4.3517,4.3517,0,0,1,2.1289,1.0429,9.1726,9.1726,0,0,1,2.6465,4.8516,4.4557,4.4557,0,0,1-.2685,2.37,6.1345,6.1345,0,0,1-1.61,2.1958,15.658,15.658,0,0,1-3.0771,2.1084l-6.7647,3.689-5.9687-10.9439Z" fill="#2c4d9c"/><path d="M451.5625,169.5176l-.4307-4.68,10.7891-6.8926,4.0654,2.3589,5.8321-3.7251-22.01-12.1308-5.832,3.7251,1.7548,25.07Zm6.1953-14.022-7.07,4.5171-.8262-9.1177Z" fill="#2c4d9c"/><polygon points="493.81 141.615 491.104 137.607 477.209 146.985 467.566 132.699 462.426 136.167 474.773 154.462 493.81 141.615" fill="#2c4d9c"/><polygon points="517.396 125.795 514.783 121.879 500.545 131.375 498.156 127.793 511.478 118.91 508.867 114.994 495.545 123.877 493.521 120.843 507.566 111.478 504.955 107.562 485.612 120.46 497.857 138.824 517.396 125.795" fill="#2c4d9c"/><path d="M531.4062,111.6831a7.66,7.66,0,0,0,3.4981.9087,14.2282,14.2282,0,0,0,4.5576-.6719,28.371,28.371,0,0,0,10.293-6.04,14.2367,14.2367,0,0,0,2.7939-3.6426,7.661,7.661,0,0,0,.9141-3.4971,6.1019,6.1019,0,0,0-.8418-3.1191L545.2148,83l-5.3486,3.1382,6.3252,10.7793a7.5828,7.5828,0,0,1,.8154,1.9521,3.6869,3.6869,0,0,1-.0693,2.0435,5.7811,5.7811,0,0,1-1.3613,2.1577,13.5544,13.5544,0,0,1-3.0371,2.2857,13.7105,13.7105,0,0,1-3.5,1.55,5.76,5.76,0,0,1-2.5547.1387,3.7415,3.7415,0,0,1-1.8242-.9306,7.3184,7.3184,0,0,1-1.3125-1.66l-6.3262-10.7793-5.334,3.13,7.4063,12.6221A6.0954,6.0954,0,0,0,531.4062,111.6831Z" fill="#2c4d9c"/><polygon points="567.738 96.105 561.063 82.489 581.65 89.286 587.684 86.328 577.969 66.509 572.43 69.224 579.134 82.898 558.503 76.052 552.455 79.017 562.17 98.835 567.738 96.105" fill="#2c4d9c"/><path d="M597.6367,77.7524l11.9375-4.6274,3.52,3.1152,6.4522-2.5009L600.3633,57.5024l-6.4512,2.501-3.2275,24.9234,6.4521-2.501Zm1.5059-13.9189,6.834,6.0688-7.8223,3.0323Z" fill="#2c4d9c"/><polygon points="649.797 65.238 655.66 40.954 648.957 42.669 644.994 60.829 632.78 46.809 626.076 48.524 642.802 67.027 649.797 65.238" fill="#2c4d9c"/><path d="M664.3594,57.3662a7.6568,7.6568,0,0,0,2.9453,2.0967,14.211,14.211,0,0,0,4.4961.9971,28.3877,28.3877,0,0,0,11.77-1.9712,14.2342,14.2342,0,0,0,3.9092-2.4063,7.6482,7.6482,0,0,0,2.1006-2.9414,6.084,6.084,0,0,0,.3261-3.2143L687.49,35.4932l-6.1172,1.0244,2.0645,12.3262a7.514,7.514,0,0,1,.0664,2.1147,3.69,3.69,0,0,1-.7939,1.8838,5.7679,5.7679,0,0,1-2.04,1.5307,13.5444,13.5444,0,0,1-3.6533,1.0518,13.7233,13.7233,0,0,1-3.8223.2007,5.7644,5.7644,0,0,1-2.4355-.7808,3.7478,3.7478,0,0,1-1.3731-1.521,7.3284,7.3284,0,0,1-.6347-2.02l-2.0655-12.3257L660.5859,40l2.418,14.4331A6.0961,6.0961,0,0,0,664.3594,57.3662Z" fill="#2c4d9c"/><polygon points="721.115 54.396 720.685 49.709 703.641 51.276 703.246 46.989 719.191 45.523 718.761 40.836 702.816 42.302 702.482 38.67 719.293 37.125 718.861 32.438 695.71 34.566 697.73 56.546 721.115 54.396" fill="#2c4d9c"/><polygon points="749.711 53.521 749.579 48.688 732.82 49.147 732.348 31.917 726.149 32.087 726.755 54.151 749.711 53.521" fill="#2c4d9c"/><polygon points="758.869 53.77 765.067 53.93 765.514 36.667 775.271 36.919 775.396 32.118 749.698 31.453 749.574 36.254 759.314 36.506 758.869 53.77" fill="#2c4d9c"/><path d="M780.7588,54.6328l2.4971-3.9824,12.7578,1.0664,1.8008,4.3418,6.8955.5762L794.5732,33.6387l-6.8955-.5767L773.8633,54.0562Zm9.9453-15.8369,3.4863,8.4482-8.36-.6992Z" fill="#2c4d9c"/><path d="M830.8184,61.2544q1.2846.2234,2.7226.3916a23.2291,23.2291,0,0,0,2.8731.1567,16.2309,16.2309,0,0,0,2.7851-.2578,7.968,7.968,0,0,0,2.4473-.855,5.6652,5.6652,0,0,0,2.914-4.2221,4.7122,4.7122,0,0,0-.1171-2.2539,5.6654,5.6654,0,0,0-1.0586-1.9121,9.42,9.42,0,0,0-1.7715-1.6206,19.3734,19.3734,0,0,0-2.2461-1.3765q-1.2041-.6336-2.51-1.1782t-2.5351-1.0274q-1.232-.4833-2.3252-.9258a20.7964,20.7964,0,0,1-1.9014-.8686,4.9775,4.9775,0,0,1-1.2412-.8677.95.95,0,0,1-.2373-1.2231.8434.8434,0,0,1,.3164-.3037,2.3164,2.3164,0,0,1,.6269-.2417,4.93,4.93,0,0,1,1.0547-.1182,14.6718,14.6718,0,0,1,1.6016.0659q.9433.0828,2.2617.3115a22.3779,22.3779,0,0,1,3.1709.7876,28.8911,28.8911,0,0,1,2.8,1.0733q1.2744.5719,2.2617,1.1347t1.5782.9756l.875-5.0332q-1.0137-.5178-2.2207-1.0376t-2.5176-.9839q-1.311-.4635-2.68-.8325-1.3711-.3684-2.6875-.5976-1.2012-.2088-2.5527-.3457a22.3253,22.3253,0,0,0-2.6954-.1094,14.5909,14.5909,0,0,0-2.6015.2817,7.71,7.71,0,0,0-2.2832.8345,5.2965,5.2965,0,0,0-2.6914,3.9263,4.5286,4.5286,0,0,0,.1211,2.23,5.4526,5.4526,0,0,0,1.0664,1.8653,9.0075,9.0075,0,0,0,1.7812,1.5644,19.9483,19.9483,0,0,0,2.2559,1.3218q1.2071.6095,2.51,1.1289,1.3007.5193,2.5341.9863t2.3272.91a18.2182,18.2182,0,0,1,1.8984.8843,4.675,4.675,0,0,1,1.2324.915,1.1534,1.1534,0,0,1,.336.9961,1.2747,1.2747,0,0,1-.3672.6533,2.2258,2.2258,0,0,1-1.0567.51,8.1049,8.1049,0,0,1-2.0058.1728,20.8455,20.8455,0,0,1-3.2041-.353,27.2962,27.2962,0,0,1-6.0654-1.7549,21.5629,21.5629,0,0,1-4.8194-2.7778l-.9013,5.1914a32.6394,32.6394,0,0,0,4.8173,2.1987A34.65,34.65,0,0,0,830.8184,61.2544Z" fill="#2c4d9c"/><path d="M852.0684,62.2563a14.6686,14.6686,0,0,0,4.2763,3.315,28.5208,28.5208,0,0,0,12.6016,3.0708,14.4841,14.4841,0,0,0,5.2891-.9849,9.8919,9.8919,0,0,0,3.8818-2.7988,12.14,12.14,0,0,0,2.3769-9.7549,9.89,9.89,0,0,0-2.1591-4.271,14.4992,14.4992,0,0,0-4.2432-3.3071A28.5147,28.5147,0,0,0,861.49,44.4546a14.6868,14.6868,0,0,0-5.3222.9766,9.9877,9.9877,0,0,0-3.9141,2.7915,11.9778,11.9778,0,0,0-2.3769,9.7544A9.9782,9.9782,0,0,0,852.0684,62.2563Zm4.0478-7.9257a7.7284,7.7284,0,0,1,.5567-1.5425,5.8066,5.8066,0,0,1,.9521-1.4048,5.8775,5.8775,0,0,1,1.4277-1.124,6.7271,6.7271,0,0,1,1.9639-.72,10.3142,10.3142,0,0,1,2.5713-.1753,17.1274,17.1274,0,0,1,3.2656.5063,14.5684,14.5684,0,0,1,4.3213,1.6817,7.7475,7.7475,0,0,1,2.3936,2.22,5.3121,5.3121,0,0,1,.8886,2.49,7.6261,7.6261,0,0,1-1.167,4.7915,5.3233,5.3233,0,0,1-1.9365,1.8018,7.7224,7.7224,0,0,1-3.1445.8706,14.5928,14.5928,0,0,1-4.61-.4951,17.1454,17.1454,0,0,1-3.1328-1.0528,10.5137,10.5137,0,0,1-2.2041-1.331,6.694,6.694,0,0,1-1.417-1.5274,5.6946,5.6946,0,0,1-.7509-1.6464,5.8079,5.8079,0,0,1-.1993-1.6934A8.021,8.021,0,0,1,856.1162,54.3306Z" fill="#2c4d9c"/><path d="M892.4707,76.22q1.2422.3948,2.6445.7559a23.199,23.199,0,0,0,2.8262.5439,16.1824,16.1824,0,0,0,2.794.1211,7.9653,7.9653,0,0,0,2.54-.5166,5.6615,5.6615,0,0,0,3.458-3.789,4.7094,4.7094,0,0,0,.1885-2.25,5.6528,5.6528,0,0,0-.791-2.0375,9.3291,9.3291,0,0,0-1.5352-1.8453,19.3449,19.3449,0,0,0-2.04-1.6674q-1.1089-.79-2.3272-1.5064t-2.374-1.3608q-1.1542-.6453-2.1777-1.2315a20.8656,20.8656,0,0,1-1.7666-1.1177,4.9713,4.9713,0,0,1-1.1123-1.0273.9477.9477,0,0,1-.0694-1.2441.8443.8443,0,0,1,.3535-.2583,2.3065,2.3065,0,0,1,.6543-.1548,4.9112,4.9112,0,0,1,1.0616.0259,14.6584,14.6584,0,0,1,1.5771.2812q.9243.21,2.1992.6143a22.6124,22.6124,0,0,1,3.0352,1.2089,29.2007,29.2007,0,0,1,2.6289,1.4419q1.185.74,2.0879,1.4307t1.4316,1.18l1.5469-4.8687q-.9347-.65-2.0586-1.3286-1.128-.6774-2.3633-1.3149t-2.543-1.187q-1.3065-.55-2.58-.9551-1.1646-.37-2.4825-.6875a22.295,22.295,0,0,0-2.6562-.4731,14.6087,14.6087,0,0,0-2.6172-.0728,7.7132,7.7132,0,0,0-2.373.5181,5.2995,5.2995,0,0,0-3.1993,3.5263A4.5527,4.5527,0,0,0,886.25,59.2a5.4565,5.4565,0,0,0,.8057,1.9917,8.9432,8.9432,0,0,0,1.5537,1.7915,20.1289,20.1289,0,0,0,2.0556,1.6143q1.1148.7668,2.334,1.4575t2.378,1.32q1.1586.63,2.1835,1.2158a18.2526,18.2526,0,0,1,1.7618,1.1333,4.6665,4.6665,0,0,1,1.0966,1.0733,1.1506,1.1506,0,0,1,.1983,1.0322,1.2693,1.2693,0,0,1-.4531.5976,2.2222,2.2222,0,0,1-1.1143.3623,8.1,8.1,0,0,1-2.0117-.1,20.9194,20.9194,0,0,1-3.1279-.7827,27.33,27.33,0,0,1-5.7715-2.5586,21.6,21.6,0,0,1-4.4-3.4033l-1.5938,5.0215a32.6707,32.6707,0,0,0,4.4756,2.83A34.65,34.65,0,0,0,892.4707,76.22Z" fill="#2c4d9c"/><polygon points="916.195 83.815 921.978 86.053 928.209 69.948 937.313 73.471 939.047 68.991 915.072 59.714 913.339 64.194 922.426 67.71 916.195 83.815" fill="#2c4d9c"/><polygon points="955.819 100.965 957.799 96.695 942.271 89.496 944.082 85.59 958.609 92.325 960.59 88.055 946.063 81.32 947.597 78.011 962.912 85.112 964.892 80.842 943.799 71.063 934.514 91.087 955.819 100.965" fill="#2c4d9c"/><polygon points="966.216 106.477 973.67 93.271 979.71 114.093 985.561 117.396 996.41 98.173 991.039 95.142 983.553 108.404 977.531 87.518 971.665 84.208 960.816 103.429 966.216 106.477" fill="#2c4d9c"/><rect x="988.8207" y="110.5918" width="22.0721" height="6.2008" transform="translate(358.703 889.2959) rotate(-56.9083)" fill="#2c4d9c"/><path d="M1015.5918,138.26q1.0313.7683,2.0547,1.4091a15.1881,15.1881,0,0,0,2.0234,1.0747,9.2215,9.2215,0,0,0,1.959.6163,4.7962,4.7962,0,0,0,3.625-.7154,6.4367,6.4367,0,0,0,1.6152-1.582,6.2655,6.2655,0,0,0,1.0274-1.9688,3.8546,3.8546,0,0,0,.0644-1.934,5.4241,5.4241,0,0,0-.9492-1.9873,12.3788,12.3788,0,0,0-2.0058-2.1045,5.7863,5.7863,0,0,0,3.791.7285,4.9985,4.9985,0,0,0,2.9219-2.08,6.0018,6.0018,0,0,0,.9853-1.87,4.4832,4.4832,0,0,0,.1768-1.7505,4.5826,4.5826,0,0,0-.4815-1.62,7.8963,7.8963,0,0,0-.9873-1.4859,12.49,12.49,0,0,0-1.3437-1.3711q-.7515-.6576-1.542-1.2466l-13.128-9.7685-13.1757,17.7075Zm2.1348-20.397,7.3349,5.458a5.5762,5.5762,0,0,1,1.128,1.06,2.6618,2.6618,0,0,1,.4863.9423,1.53,1.53,0,0,1-.0088.8243,2.3741,2.3741,0,0,1-.3682.7177,2.35,2.35,0,0,1-.582.5581,1.4155,1.4155,0,0,1-.7773.2329,2.6633,2.6633,0,0,1-1.0225-.2207,6.1142,6.1142,0,0,1-1.3291-.789l-7.3359-5.458Zm2.0957,12.1914q1.0049.7485,1.6816,1.3515a4.7681,4.7681,0,0,1,.9834,1.1426,1.74,1.74,0,0,1,.249,1.0659,2.8832,2.8832,0,0,1-1.4492,1.9458,1.7728,1.7728,0,0,1-1.0967.0748,4.5924,4.5924,0,0,1-1.3818-.6075q-.7705-.4738-1.7774-1.2226l-7.1874-5.3482,2.791-3.75Z" fill="#2c4d9c"/><polygon points="1044.335 162.603 1047.549 158.99 1035.025 147.846 1046.484 134.969 1041.852 130.847 1027.178 147.336 1044.335 162.603" fill="#2c4d9c"/><polygon points="1063.57 182.877 1067.002 179.656 1055.289 167.177 1058.428 164.23 1069.386 175.906 1072.816 172.685 1061.859 161.009 1064.518 158.514 1076.071 170.823 1079.504 167.602 1063.592 150.649 1047.498 165.755 1063.57 182.877" fill="#2c4d9c"/><path d="M1076.8223,199.8906l4.6621-.5981,7.2724,10.5371-2.2129,4.147,3.9307,5.6953,11.34-22.4282-3.9307-5.6949-24.9922,2.6465Zm18.5507-2.3642-4.3164,8.0556-4.7656-6.9052Z" fill="#2c4d9c"/><polygon points="1120.042 236.459 1124.746 245.012 1128.955 242.697 1116.564 220.173 1112.357 222.488 1117.053 231.026 1101.923 239.349 1104.912 244.782 1120.042 236.459" fill="#2c4d9c"/><path d="M1120.627,250.3862a10.9484,10.9484,0,0,0-4.1465,3.0376,9.9587,9.9587,0,0,0-2.0586,4.3443,14.6273,14.6273,0,0,0-.0254,5.4106,28.5031,28.5031,0,0,0,5.24,11.8643,14.4848,14.4848,0,0,0,4.002,3.5947,9.8813,9.8813,0,0,0,4.5849,1.374,12.1435,12.1435,0,0,0,9.1846-4.0566,9.9108,9.9108,0,0,0,2.0723-4.3135,14.4926,14.4926,0,0,0,.0371-5.38,28.5052,28.5052,0,0,0-5.2393-11.8642,14.6726,14.6726,0,0,0-4.0166-3.626,9.9706,9.9706,0,0,0-4.5976-1.4043A10.9538,10.9538,0,0,0,1120.627,250.3862Zm7.5625,5.6128a6.7456,6.7456,0,0,1,1.7675,1.12,10.3174,10.3174,0,0,1,1.7051,1.9331,17.0039,17.0039,0,0,1,1.5879,2.8984,14.5788,14.5788,0,0,1,1.2988,4.4512,7.7324,7.7324,0,0,1-.3037,3.249,5.3169,5.3169,0,0,1-1.4326,2.2226,7.6189,7.6189,0,0,1-4.5117,1.9922,5.3133,5.3133,0,0,1-2.6074-.4375,7.7251,7.7251,0,0,1-2.6065-1.9643,14.5885,14.5885,0,0,1-2.415-3.9575,17.13,17.13,0,0,1-1.0733-3.126,10.5266,10.5266,0,0,1-.2881-2.5591,6.6915,6.6915,0,0,1,.35-2.0542,5.678,5.678,0,0,1,.8476-1.5986,5.7656,5.7656,0,0,1,1.2227-1.1885,7.9683,7.9683,0,0,1,1.4414-.8291,7.8734,7.8734,0,0,1,1.5625-.4981,5.78,5.78,0,0,1,1.6953-.1A5.8546,5.8546,0,0,1,1128.19,255.999Z" fill="#2c4d9c"/><path d="M1129.0078,302.1064a27.1933,27.1933,0,0,0,1.2539,3.4112,16.9581,16.9581,0,0,0,1.6377,2.897,10.9656,10.9656,0,0,0,2.085,2.2319,8.6263,8.6263,0,0,0,2.5859,1.4306,9.423,9.423,0,0,0,3.1358.4913,13.3444,13.3444,0,0,0,3.749-.6055,13.1878,13.1878,0,0,0,3.4511-1.5278,9.5768,9.5768,0,0,0,2.3633-2.1206,8.3866,8.3866,0,0,0,1.3848-2.6163,11.3125,11.3125,0,0,0,.5215-3.0214,17.2418,17.2418,0,0,0-.207-3.33,27.41,27.41,0,0,0-.8086-3.5435l-4.1309-13.9424-21.1621,6.271Zm14.1787-12.935,2.1885,7.3882a15.6357,15.6357,0,0,1,.6934,3.6645,6.2974,6.2974,0,0,1-.3936,2.688,4.352,4.352,0,0,1-1.4668,1.8638,9.1654,9.1654,0,0,1-5.2988,1.57,4.4564,4.4564,0,0,1-2.2608-.7593,6.1424,6.1424,0,0,1-1.8086-2.0351,15.6121,15.6121,0,0,1-1.416-3.4507l-2.1894-7.3877Z" fill="#2c4d9c"/><path d="M1144.7061,317.0254a10.96,10.96,0,0,0-4.8741,1.6328,9.9788,9.9788,0,0,0-3.2812,3.5127,14.6761,14.6761,0,0,0-1.67,5.147,26.0853,26.0853,0,0,0-.0489,6.5361,25.8213,25.8213,0,0,0,1.4356,6.36,14.4816,14.4816,0,0,0,2.72,4.6416,9.8708,9.8708,0,0,0,3.95,2.7021,12.1365,12.1365,0,0,0,9.9824-1.0722,9.8883,9.8883,0,0,0,3.2852-3.48,14.4908,14.4908,0,0,0,1.6719-5.1133,28.5422,28.5422,0,0,0-1.3848-12.896,14.6894,14.6894,0,0,0-2.7236-4.6753,9.9782,9.9782,0,0,0-3.9541-2.7354A10.9532,10.9532,0,0,0,1144.7061,317.0254Zm6.8427,9.25a10.3364,10.3364,0,0,1,1.0371,2.36,17.18,17.18,0,0,1,.6309,3.2436,14.5628,14.5628,0,0,1-.1162,4.6357,7.7453,7.7453,0,0,1-1.2764,3.003,5.328,5.328,0,0,1-2.041,1.6816,7.63,7.63,0,0,1-4.9043.5274,5.3366,5.3366,0,0,1-2.3516-1.21,7.7475,7.7475,0,0,1-1.8857-2.6641,14.57,14.57,0,0,1-1.0967-4.5048,16.9367,16.9367,0,0,1-.0722-3.3038,10.4361,10.4361,0,0,1,.5039-2.5253,6.6772,6.6772,0,0,1,.956-1.8511,5.7083,5.7083,0,0,1,1.294-1.2652,5.7755,5.7755,0,0,1,1.5254-.7607,8.0171,8.0171,0,0,1,1.6269-.3511,7.8343,7.8343,0,0,1,1.64,0,5.7322,5.7322,0,0,1,3.1865,1.3809A6.7558,6.7558,0,0,1,1151.5488,326.2754Z" fill="#2c4d9c"/><polygon points="1143.672 355.306 1143.4 359.442 1153 361.344 1157.793 361.658 1158.229 354.986 1153.437 354.672 1143.672 355.306" fill="#2c4d9c"/><rect x="1135.5512" y="354.4852" width="5.9835" height="5.1242" transform="translate(707.8351 1469.8158) rotate(-86.252)" fill="#2c4d9c"/></svg>