<svg xmlns="http://www.w3.org/2000/svg" viewBox="0 0 251.56 58.08"><defs><style>.a{fill:#fff;}</style></defs><title>macro-logo</title><path class="a" d="M90.51,46h-9.4a1.39,1.39,0,0,1-1.38-1.34,33.81,33.81,0,0,0-67.57,0A1.38,1.38,0,0,1,10.78,46H1.39A1.39,1.39,0,0,1,0,44.55a46,46,0,0,1,91.89,0A1.37,1.37,0,0,1,90.51,46"/><path class="a" d="M73.57,46H64.23a1.39,1.39,0,0,1-1.38-1.29,17,17,0,0,0-33.81,0A1.38,1.38,0,0,1,27.66,46H18.33a1.39,1.39,0,0,1-1.39-1.46,29,29,0,0,1,58,0A1.38,1.38,0,0,1,73.57,46"/><circle class="a" cx="45.95" cy="45.97" r="12.12" transform="translate(-19.05 45.95) rotate(-45)"/><path class="a" d="M144.25,10.74H133a.34.34,0,0,0-.33.26l-6.32,25.7h-.09L119.86,11a.35.35,0,0,0-.34-.26H108.27a.34.34,0,0,0-.34.32l-2.3,34.57a.35.35,0,0,0,.09.26A.36.36,0,0,0,106,46h6.81a.34.34,0,0,0,.34-.32l1.19-28.3h.06l7.9,28.36a.35.35,0,0,0,.33.26h7.29a.35.35,0,0,0,.33-.25l7.93-28.37h0l1.22,28.29a.35.35,0,0,0,.34.33h6.79a.36.36,0,0,0,.25-.11.31.31,0,0,0,.09-.26l-2.3-34.57a.34.34,0,0,0-.34-.32"/><path class="a" d="M161.74,18.78a52.48,52.48,0,0,0-9.33.95.35.35,0,0,0-.27.34V25a.35.35,0,0,0,.42.34,44.59,44.59,0,0,1,8.78-.94c6,0,6.15,1.43,6.15,5.21H167c-5.41,0-11.52,0-14.63,3.05a7,7,0,0,0-2,5.16c0,7.54,6,8.67,12.44,8.77l1.77,0A93.35,93.35,0,0,0,175,45.91a.34.34,0,0,0,.31-.34V27.79a8.28,8.28,0,0,0-2.23-6.16c-2.61-2.56-7-2.87-11.31-2.85m5.75,16v6.36a28.49,28.49,0,0,1-3.76.25c-3,0-5.2-.24-5.2-3.33s2.15-3.32,5.2-3.32c1.8,0,3.06,0,3.76,0"/><path class="a" d="M201.48,40.33l-.46.07a31.25,31.25,0,0,1-4.54.33c-6.83,0-9.61-2.37-9.61-8.18s2.69-8,9.61-8a39.43,39.43,0,0,1,4.81.34.32.32,0,0,0,.26-.09.3.3,0,0,0,.12-.25V19.87a.35.35,0,0,0-.27-.34,36.19,36.19,0,0,0-7.67-.75c-10.36,0-15,6.74-15,13.42,0,9,5.71,14.36,15.29,14.36a30.46,30.46,0,0,0,7.58-.85.35.35,0,0,0,.26-.34v-4.7a.36.36,0,0,0-.39-.34"/><path class="a" d="M223,19.47a.35.35,0,0,0-.35-.34h-.47a16.68,16.68,0,0,0-9.43,2.33V19.67a.35.35,0,0,0-.35-.34h-6.29a.34.34,0,0,0-.34.34v26a.34.34,0,0,0,.34.34h7.1a.34.34,0,0,0,.34-.34V27.08c2.35-1.54,6.17-1.52,8.7-1.53h.4a.35.35,0,0,0,.35-.34Z"/><path class="a" d="M237.33,18.73c-8.85,0-14.34,5.33-14.34,13.92s5.49,13.91,14.34,13.91c8.38,0,14.23-5.72,14.23-13.91,0-8.59-5.45-13.92-14.23-13.92m6.14,14c0,6-1.79,8.38-6.19,8.38S231,38.7,231,32.74s1.81-8.42,6.26-8.42,6.19,2.44,6.19,8.42"/></svg>