<svg xmlns="http://www.w3.org/2000/svg" viewBox="0 0 1920 908"><defs><style>.a{fill:none;}.b{fill:#b1d6ae;}.c{fill:#2c4d9c;}</style></defs><title>ribbon</title><path class="a" d="M1271.92,519.64c-28.79,16.94-48.39,37-58.25,59.75-15.39,35.45-20,74.28-12.52,106.53,8.22,35.61,30.55,62.18,66.37,79,69.39,32.55,142.63-16.29,170.27-59.54,37.84-59.18,16.5-142.67-8-202.28-3.81-9.26-7.83-18.25-11.93-26.92q-17.58,1.89-34.65,5C1339.89,489,1301.42,502.28,1271.92,519.64Z"/><path class="a" d="M354.45,205C458,133.82,575.32,53.15,771.71,39.6a847.13,847.13,0,0,1,365.65,56.73c122.05,48.26,223.82,123,294.31,216.17,1.26,1.67,19.84,26.39,42.12,64.58,72.36-.34,144.39,11.44,204.9,34.37,67.17,25.45,128.49,67.63,182.27,125.36a626.89,626.89,0,0,1,59,74.2V0H0V314.63q16.2,2.55,32.29,4C171.12,331,252,275.41,354.45,205Z"/><path class="a" d="M1902.55,778.35c-61-140.54-150.12-236.4-257.84-277.22-36.27-13.74-78.77-22.59-122.92-26.21,18.38,46.54,29.09,90.67,31.88,131.29,3.94,57.5-7.86,108.24-35.07,150.81-27.55,43.11-71.57,78.91-120.75,98.24-57.39,22.54-118.14,21.29-171.06-3.53-32.46-15.23-59.32-36.06-79.84-61.92a205.71,205.71,0,0,1-39.25-82.33c-12.13-52.57-5.74-111.63,18-166.29,18.11-41.71,50.94-76.77,97.58-104.21,39.7-23.36,87.75-40.26,142.8-50.22l.57-.1c-6.92-10.25-11.32-16.11-11.46-16.29-120.09-158.71-346.52-251-576.88-235.09C608.06,147,506.76,216.67,408.78,284c-54,37.15-105.06,72.23-165.67,97.5C173.71,410.46,102,421.14,23.77,414.17c-7.9-.7-15.83-1.6-23.77-2.65V908H1920V821.93Q1911.8,799.67,1902.55,778.35Z"/><path class="b" d="M243.11,381.52c60.61-25.27,111.64-60.35,165.67-97.5,98-67.35,199.28-137,369.53-148.74,230.36-15.9,456.79,76.38,576.88,235.09.14.18,4.54,6,11.46,16.29l-.57.1c-55,10-103.1,26.86-142.8,50.22-46.64,27.44-79.47,62.5-97.58,104.21-23.74,54.66-30.13,113.72-18,166.29A205.71,205.71,0,0,0,1147,789.81c20.52,25.86,47.38,46.69,79.84,61.92,52.92,24.82,113.67,26.07,171.06,3.53,49.18-19.33,93.2-55.13,120.75-98.24,27.21-42.57,39-93.31,35.07-150.81-2.79-40.62-13.5-84.75-31.88-131.29,44.15,3.62,86.65,12.47,122.92,26.21C1752.43,542,1841.6,637.81,1902.55,778.35q9.24,21.3,17.45,43.58V611a626.89,626.89,0,0,0-59-74.2c-53.78-57.73-115.1-99.91-182.27-125.36-60.51-22.93-132.54-34.71-204.9-34.37-22.28-38.19-40.86-62.91-42.12-64.58-70.49-93.16-172.26-167.91-294.31-216.17A847.13,847.13,0,0,0,771.71,39.6C575.32,53.15,458,133.82,354.45,205,252,275.41,171.12,331,32.29,318.65q-16.07-1.44-32.29-4v96.89c7.94,1.05,15.87,2,23.77,2.65C102,421.14,173.71,410.46,243.11,381.52ZM1350.67,313l-7.3-7.54,6.69-6.48,7.3,7.54Zm79.07,190.11c24.55,59.61,45.89,143.1,8,202.28-27.64,43.25-100.88,92.09-170.27,59.54-35.82-16.8-58.15-43.37-66.37-79-7.44-32.25-2.87-71.08,12.52-106.53,9.86-22.71,29.46-42.81,58.25-59.75,29.5-17.36,68-30.68,111.24-38.5q17-3.09,34.65-5C1421.91,484.83,1425.93,493.82,1429.74,503.08Zm-54.52-209.42a7.74,7.74,0,0,0-1.06-2.39,19.3,19.3,0,0,0-2.5-3.07,25.51,25.51,0,0,0-2.7-2.39c-1-.76-2-1.46-3-2.1a32.55,32.55,0,0,0-3.08-1.68,20.2,20.2,0,0,0-2.75-1.12l7.14-6.91a26.2,26.2,0,0,1,2.34,1.43c.91.62,1.86,1.31,2.85,2.08s2,1.6,3,2.47,1.9,1.74,2.74,2.6a38.38,38.38,0,0,1,4.62,5.72,19,19,0,0,1,2.58,5.66,11.24,11.24,0,0,1,.09,5.34,9.75,9.75,0,0,1-2.86,4.74,10.34,10.34,0,0,1-3.53,2.34,10.89,10.89,0,0,1-3.69.72,12.08,12.08,0,0,1-3.67-.49,24.19,24.19,0,0,1-3.5-1.32,27.78,27.78,0,0,1-3.18-1.78c-1-.65-1.89-1.26-2.68-1.82l-2.18,2.11-7.3-7.53,6.53-6.32c.93.91,1.89,1.77,2.86,2.59s1.93,1.57,2.87,2.23a24.88,24.88,0,0,0,2.76,1.7,12.24,12.24,0,0,0,2.55,1,5.52,5.52,0,0,0,2.17.17,3,3,0,0,0,1.7-.83,3.76,3.76,0,0,0,.88-1.34A3.24,3.24,0,0,0,1375.22,293.66Zm-54.94-43.23a8.49,8.49,0,0,1,2-3.54,10.21,10.21,0,0,1,3.74-2.81,9.91,9.91,0,0,1,4.07-.79,13.54,13.54,0,0,1,4.22.79,25.54,25.54,0,0,1,4.16,1.93,37.8,37.8,0,0,1,3.93,2.62q1.88,1.44,3.48,2.85,1.74,1.56,3.44,3.36t3.21,3.72q1.5,1.9,2.81,3.8c.87,1.27,1.65,2.47,2.32,3.62l-6.16,6.95a32.07,32.07,0,0,0-1.42-2.93,42.19,42.19,0,0,0-2.29-3.81,47.75,47.75,0,0,0-3.15-4.19,38.36,38.36,0,0,0-4-4.1c-1.17-1-2.19-1.87-3.08-2.53a24.83,24.83,0,0,0-2.33-1.56,8.1,8.1,0,0,0-1.69-.77,3.87,3.87,0,0,0-1.18-.2,1.43,1.43,0,0,0-.76.18,1.77,1.77,0,0,0-.46.37,1.91,1.91,0,0,0-.37,1.73,8.83,8.83,0,0,0,1,2.46,34.36,34.36,0,0,0,2,3.07l2.58,3.53q1.38,1.86,2.8,3.89t2.62,4.1a31.25,31.25,0,0,1,2,4.16,16.11,16.11,0,0,1,1.09,4.1,10.06,10.06,0,0,1-.26,3.91,8.77,8.77,0,0,1-2,3.57,10.94,10.94,0,0,1-4.06,3,10.53,10.53,0,0,1-4.36.82,14.2,14.2,0,0,1-4.49-.91,28,28,0,0,1-4.41-2.14,37.24,37.24,0,0,1-4.15-2.85q-2-1.56-3.69-3.08a57.77,57.77,0,0,1-7.61-8,56.1,56.1,0,0,1-5.08-7.76l6.35-7.18a37,37,0,0,0,4.53,8.66,45.71,45.71,0,0,0,7.38,8.21,34.52,34.52,0,0,0,4.45,3.46,13.78,13.78,0,0,0,3.17,1.56,4,4,0,0,0,2.07.17,2.42,2.42,0,0,0,1.18-.67,2.11,2.11,0,0,0,.45-1.84,8,8,0,0,0-1-2.53,30.44,30.44,0,0,0-2-3.09q-1.21-1.67-2.61-3.51t-2.83-3.82q-1.45-2-2.67-4a35.21,35.21,0,0,1-2.1-4.09,15.34,15.34,0,0,1-1.15-4A9.69,9.69,0,0,1,1320.28,250.43Zm-.33-19.38-24.75,31.6-8.53-6.69,24.75-31.6Zm-60.9-30.71a18.49,18.49,0,0,1,8.52-2.14,26.55,26.55,0,0,1,9.56,1.78,45.74,45.74,0,0,1,10,5.33,51.57,51.57,0,0,1,4.31,3.29A42.13,42.13,0,0,1,1295,212a45.05,45.05,0,0,1,2.94,3.5c.91,1.19,1.77,2.43,2.59,3.7l-5.54,8c-.57-1.13-1.19-2.29-1.86-3.47a32.83,32.83,0,0,0-2.43-3.63,35.11,35.11,0,0,0-3.36-3.73,34.74,34.74,0,0,0-4.67-3.78,29,29,0,0,0-7.58-3.95,14.84,14.84,0,0,0-6-.75,9.72,9.72,0,0,0-4.62,1.7,13.75,13.75,0,0,0-3.33,3.39,14.64,14.64,0,0,0-1.51,2.81,10.24,10.24,0,0,0-.72,3.09,10.87,10.87,0,0,0,.31,3.32,12.31,12.31,0,0,0,1.55,3.52,21.62,21.62,0,0,0,3,3.69,33.18,33.18,0,0,0,4.69,3.82,38,38,0,0,0,5.17,3,33.49,33.49,0,0,0,4.66,1.84,30,30,0,0,0,4.24,1c1.35.21,2.66.37,3.93.49l-5.54,8c-1.49-.32-3-.69-4.39-1.11s-2.87-.92-4.32-1.5a41.52,41.52,0,0,1-4.39-2.1,49.29,49.29,0,0,1-4.61-2.86,45.52,45.52,0,0,1-8.55-7.49,26.65,26.65,0,0,1-5.07-8.3,18.63,18.63,0,0,1-1-8.73,21.61,21.61,0,0,1,10.5-15.22Zm-5.63-16-20.83,34.31-9.27-5.62,20.83-34.32ZM1193.94,151l25.25,13.44c1,.53,2,1.12,3,1.75a21.63,21.63,0,0,1,2.68,2,13.79,13.79,0,0,1,2.07,2.35,7.95,7.95,0,0,1,1.33,5.9,11.29,11.29,0,0,1-1.28,3.62,9.3,9.3,0,0,1-4.62,4.58,10,10,0,0,1-6.8-.16,20.65,20.65,0,0,1,4,3.14,9.58,9.58,0,0,1,2.13,3.25,7.1,7.1,0,0,1,.34,3.46,11.92,11.92,0,0,1-1.33,3.81,12.11,12.11,0,0,1-2.45,3.29,8.92,8.92,0,0,1-2.9,1.82,8.55,8.55,0,0,1-3.27.54,15.37,15.37,0,0,1-3.57-.51,25.06,25.06,0,0,1-3.79-1.3c-1.29-.56-2.6-1.19-3.92-1.89l-25.72-13.68Zm-82.25-4.91a36.43,36.43,0,0,0,7.14,6.66,46.47,46.47,0,0,0,9.69,5.3,35.6,35.6,0,0,0,5.35,1.78,13.4,13.4,0,0,0,3.5.41,3.86,3.86,0,0,0,2-.52,2.41,2.41,0,0,0,.9-1,2.12,2.12,0,0,0-.18-1.88,8.44,8.44,0,0,0-1.75-2.07,32.19,32.19,0,0,0-2.9-2.25c-1.13-.79-2.34-1.6-3.62-2.45s-2.6-1.74-3.95-2.66-2.63-1.9-3.85-2.91a34.76,34.76,0,0,1-3.34-3.15,16.1,16.1,0,0,1-2.42-3.42,9.81,9.81,0,0,1-1.09-3.69,8.65,8.65,0,0,1,.68-4,10.29,10.29,0,0,1,2.6-3.89,10,10,0,0,1,3.57-2.1,13.7,13.7,0,0,1,4.25-.65,24.61,24.61,0,0,1,4.56.44,38.39,38.39,0,0,1,4.58,1.16c1.5.49,2.91,1,4.23,1.54s2.9,1.26,4.36,2,2.89,1.58,4.26,2.44,2.68,1.75,3.92,2.66,2.37,1.78,3.39,2.64l-3.5,8.6c-.57-.63-1.34-1.39-2.31-2.3a44.38,44.38,0,0,0-3.43-2.82,47.82,47.82,0,0,0-4.36-2.92,38.68,38.68,0,0,0-5.12-2.53c-1.44-.59-2.69-1.05-3.75-1.37a24.34,24.34,0,0,0-2.71-.7,9.28,9.28,0,0,0-1.86-.17,4.24,4.24,0,0,0-1.17.21,1.51,1.51,0,0,0-.66.42,2.2,2.2,0,0,0-.32.5,1.88,1.88,0,0,0,.24,1.75,8.42,8.42,0,0,0,1.78,2,34.11,34.11,0,0,0,2.91,2.22q1.7,1.19,3.61,2.48t3.93,2.74c1.35,1,2.63,2,3.83,3a32.76,32.76,0,0,1,3.3,3.25,16.42,16.42,0,0,1,2.39,3.51,10.19,10.19,0,0,1,1,3.77,8.92,8.92,0,0,1-.69,4,11.12,11.12,0,0,1-2.82,4.21,10.61,10.61,0,0,1-3.85,2.22,13.76,13.76,0,0,1-4.53.64,28.16,28.16,0,0,1-4.87-.55,38.71,38.71,0,0,1-4.86-1.31q-2.4-.83-4.51-1.68a58.53,58.53,0,0,1-9.85-5.06,56.36,56.36,0,0,1-7.37-5.63Zm-15.55-35.22,7.38,44.7L1092,151.81l-1.21-8.39-21.25-7-6,6-11.48-3.79,32.51-31.55Zm-74.83-21.59L1031.8,92l-7.86,30.34,28.36,7.35-2.2,8.52-38.86-10.07ZM935.18,73.45l11.63,1.85,22.42,31.61,4.35-27.35,10.65,1.69-6.31,39.65-11.6-1.85L943.91,87.56l-4.33,27.23-10.7-1.7Zm-29.6-3,17.47,41.8-12-1-3.1-7.89-22.29-1.93-4.41,7.24-12.05-1,24.39-38.18ZM827,66.55l44.91,1.18-.22,8.73L854.65,76l-.83,31.39L843,107.13l.83-31.4-17-.45Zm-47.16,1.61,28.28,26.51L807,67l10.77-.46,1.72,40.1-11.73.5L779.47,80.75l1.18,27.56-10.83.46-1.72-40.1ZM755,69.84l1,8.5-29.3,3.51.79,6.59,27.79-3.33,1,8.5-27.79,3.33.93,7.77,29.7-3.56,1,8.5-40.75,4.88-4.78-39.85Zm-91.1,14.37,4.54,22.27a13.81,13.81,0,0,0,1.27,3.63,6.84,6.84,0,0,0,2.52,2.69,9.84,9.84,0,0,0,4.31,1.29,23,23,0,0,0,6.67-.55,22.4,22.4,0,0,0,6.31-2.1,9.9,9.9,0,0,0,3.46-2.88,6.73,6.73,0,0,0,1.24-3.46,13.94,13.94,0,0,0-.27-3.83L689.38,79,700,76.83l5.32,26.08a11.31,11.31,0,0,1-.32,5.85,13.68,13.68,0,0,1-3.45,5.44,24.24,24.24,0,0,1-6.66,4.57,47.78,47.78,0,0,1-20.43,4.17,24.26,24.26,0,0,1-8-1.58,13.56,13.56,0,0,1-5.3-3.66,11.41,11.41,0,0,1-2.6-5.25l-5.33-26.08Zm-62.57,28.5a18.48,18.48,0,0,1,3.65-8,26.72,26.72,0,0,1,7.37-6.35,46.33,46.33,0,0,1,10.44-4.5,51.7,51.7,0,0,1,5.27-1.3,40.7,40.7,0,0,1,4.82-.64c1.56-.11,3.08-.15,4.58-.11s3,.14,4.51.3l2.8,9.34c-1.24-.26-2.53-.5-3.87-.71a30.81,30.81,0,0,0-4.35-.37,33.94,33.94,0,0,0-5,.28,36.63,36.63,0,0,0-5.87,1.28,29.13,29.13,0,0,0-7.83,3.45,14.93,14.93,0,0,0-4.35,4.23,9.69,9.69,0,0,0-1.56,4.67,13.74,13.74,0,0,0,.56,4.72,14.13,14.13,0,0,0,1.25,2.94,10.27,10.27,0,0,0,2,2.49,10.64,10.64,0,0,0,2.78,1.83,11.79,11.79,0,0,0,3.71,1,20.58,20.58,0,0,0,4.76,0,32.66,32.66,0,0,0,5.92-1.27,37.5,37.5,0,0,0,5.62-2.12,35.31,35.31,0,0,0,4.35-2.48,30.76,30.76,0,0,0,3.43-2.69c1-.92,2-1.84,2.83-2.76l2.8,9.35q-1.75,1.44-3.6,2.72a45.46,45.46,0,0,1-3.88,2.43,40.54,40.54,0,0,1-4.38,2.13,52.21,52.21,0,0,1-5.11,1.8,45.55,45.55,0,0,1-11.2,2,26.56,26.56,0,0,1-9.64-1.24,18.66,18.66,0,0,1-7.45-4.66,21.66,21.66,0,0,1-5.31-17.71Zm-55.68-8.2,6.58,5.54L540.4,121.12l-4.39-3.5ZM564,114.88l3.42,7.85L540.4,134.51l2.64,6.08,25.66-11.17,3.42,7.85-25.66,11.17,3.12,7.18,27.43-12,3.42,7.85L542.8,167.91l-16-36.81Zm-83,39.84,10.69,20.05a13.67,13.67,0,0,0,2.25,3.13,6.81,6.81,0,0,0,3.18,1.86,10,10,0,0,0,4.51,0,28.31,28.31,0,0,0,11.69-6.23,10,10,0,0,0,2.49-3.75,6.77,6.77,0,0,0,.21-3.67,14,14,0,0,0-1.36-3.6L504,142.47l9.56-5.09L526,160.87a11.47,11.47,0,0,1,1.35,5.7,13.74,13.74,0,0,1-1.76,6.2,24.5,24.5,0,0,1-5.09,6.27,48,48,0,0,1-18.41,9.81,24.32,24.32,0,0,1-8.06.73,13.68,13.68,0,0,1-6.13-2,11.41,11.41,0,0,1-4-4.3L471.45,159.8ZM423.6,194.29a25.24,25.24,0,0,1,5.2-8,48.06,48.06,0,0,1,19.24-12,24.77,24.77,0,0,1,9.4-1.12,17.7,17.7,0,0,1,8.11,2.74,20.88,20.88,0,0,1,6.44,6.74,22.27,22.27,0,0,1,2.53,5.53,18.24,18.24,0,0,1,.77,5.46,74.51,74.51,0,0,0,7.52-1.86l.43,9q-2.49.48-5.1.93c-1.74.31-3.51.58-5.3.83a27.77,27.77,0,0,1-5.1,6.52,46.63,46.63,0,0,1-7.69,5.89,44,44,0,0,1-10.35,4.85,25.27,25.27,0,0,1-9.45,1.16,18,18,0,0,1-8.16-2.72,22.6,22.6,0,0,1-9.66-15.49A18,18,0,0,1,423.6,194.29Zm-67.75,40.59,38,7.48-15.68-22.83,8.89-6.11,22.72,33.09-9.68,6.65-37.93-7.4,15.61,22.73-8.94,6.14-22.72-33.09Zm-54,41.68a25.16,25.16,0,0,1,5-8.12,48,48,0,0,1,18.89-12.53,24.8,24.8,0,0,1,9.36-1.4,17.92,17.92,0,0,1,8.19,2.51,22.88,22.88,0,0,1,10.09,15.21,17.78,17.78,0,0,1-.86,8.52,25,25,0,0,1-4.93,8.09,43.14,43.14,0,0,1-8.68,7.39,44.05,44.05,0,0,1-10.2,5.15,25.14,25.14,0,0,1-9.42,1.42,17.87,17.87,0,0,1-8.23-2.47,22.54,22.54,0,0,1-10.1-15.22A18,18,0,0,1,301.84,276.56Zm-45.08,26.91a26.39,26.39,0,0,1,5.69-7.88,45.86,45.86,0,0,1,9.1-6.81,50.64,50.64,0,0,1,4.82-2.49,40.9,40.9,0,0,1,4.54-1.75c1.49-.47,3-.85,4.42-1.16s2.95-.57,4.46-.77l4.9,8.44q-1.89,0-3.93.21a31.24,31.24,0,0,0-4.32.65,35.21,35.21,0,0,0-4.81,1.44,36.55,36.55,0,0,0-5.4,2.61,29,29,0,0,0-6.81,5.18,14.71,14.71,0,0,0-3.25,5.13,9.67,9.67,0,0,0-.44,4.9,13.89,13.89,0,0,0,1.65,4.46,14.47,14.47,0,0,0,1.9,2.57,10.13,10.13,0,0,0,2.49,2,10.52,10.52,0,0,0,3.13,1.14,12.14,12.14,0,0,0,3.84.1,21.32,21.32,0,0,0,4.62-1.15,34.05,34.05,0,0,0,5.46-2.61,38.93,38.93,0,0,0,5-3.38,34.72,34.72,0,0,0,3.65-3.42,30.66,30.66,0,0,0,2.71-3.42c.76-1.13,1.47-2.24,2.11-3.34l4.91,8.44q-1.38,1.82-2.88,3.49t-3.2,3.27a42.89,42.89,0,0,1-3.77,3.08,52,52,0,0,1-4.55,2.95,45.52,45.52,0,0,1-10.42,4.53,26.43,26.43,0,0,1-9.67,1,18.58,18.58,0,0,1-8.33-2.79,21.67,21.67,0,0,1-9.29-16A18.52,18.52,0,0,1,256.76,303.47Zm-19.17,5.19,4,8.42-9.45,4.48-4-8.42Zm-11.83,29.75a12.09,12.09,0,0,1,1.64-3.32,23.58,23.58,0,0,1,2.38-2.89,27.93,27.93,0,0,1,2.7-2.45c.94-.73,1.8-1.38,2.61-2L233.77,325l9.45-4.49,3.91,8.24a53.44,53.44,0,0,0-4.95,2.86,28.59,28.59,0,0,0-4,3.09,10.78,10.78,0,0,0-2.33,3.08,3.24,3.24,0,0,0-.07,2.86,3.74,3.74,0,0,0,1,1.29,3.15,3.15,0,0,0,1.7.65,7.77,7.77,0,0,0,2.6-.23,19.36,19.36,0,0,0,3.71-1.39,24.46,24.46,0,0,0,3.13-1.79,33.43,33.43,0,0,0,3-2.24c.93-.78,1.79-1.57,2.57-2.37a20.12,20.12,0,0,0,2-2.23l4.26,9a24.32,24.32,0,0,1-2.11,1.76c-.87.67-1.83,1.34-2.87,2s-2.14,1.36-3.29,2-2.27,1.25-3.36,1.77a38.35,38.35,0,0,1-6.89,2.55,19.21,19.21,0,0,1-6.19.62,11,11,0,0,1-5.09-1.63,9.69,9.69,0,0,1-3.57-4.22,10.42,10.42,0,0,1-1.09-4.09A10.73,10.73,0,0,1,225.76,338.41Z"/><path class="b" d="M433.67,203.07a14.77,14.77,0,0,0,1.3,2.68,15.53,15.53,0,0,0,1.86,2.39,11,11,0,0,0,2.41,1.92,10.31,10.31,0,0,0,3,1.16,11.72,11.72,0,0,0,3.69.17,18.06,18.06,0,0,0,4.38-1.09,27.81,27.81,0,0,0,5.16-2.61,32.45,32.45,0,0,0,2.7-1.85,22,22,0,0,0,2.2-1.93c-1.35.11-2.67.2-4,.25s-2.51.08-3.68.08l-.09-8.31c1.68.07,3.55.06,5.61-.06s4.2-.3,6.41-.55a9.55,9.55,0,0,0-.47-3.61,15.15,15.15,0,0,0-1.53-3.23,14.23,14.23,0,0,0-3-3.43,9.79,9.79,0,0,0-4.28-2.07,13.48,13.48,0,0,0-5.75.18,24.71,24.71,0,0,0-7.41,3.31,29.25,29.25,0,0,0-4.61,3.48,17.38,17.38,0,0,0-2.9,3.47,12,12,0,0,0-1.46,3.41,10.68,10.68,0,0,0-.28,3.24A10.51,10.51,0,0,0,433.67,203.07Z"/><polygon class="b" points="898.76 79.87 890.15 93.96 904.76 95.23 898.76 79.87"/><path class="b" d="M1212.8,178.41a4.7,4.7,0,0,0,1.84.08,2.51,2.51,0,0,0,1.3-.65,4.47,4.47,0,0,0,.89-1.16,4.76,4.76,0,0,0,.47-1.39,2.71,2.71,0,0,0-.18-1.47,4.65,4.65,0,0,0-1.07-1.53,9.35,9.35,0,0,0-2.22-1.54l-14.11-7.51-3.54,6.66,14.11,7.5A10.32,10.32,0,0,0,1212.8,178.41Z"/><polygon class="b" points="1087.34 118.46 1075.72 130.19 1089.65 134.78 1087.34 118.46"/><path class="b" d="M1205.66,193.44a7.56,7.56,0,0,0,2.56.66,3.08,3.08,0,0,0,1.9-.46,5.43,5.43,0,0,0,2.07-3.89,3,3,0,0,0-.69-1.82,7.85,7.85,0,0,0-2-1.74c-.88-.58-2-1.21-3.25-1.9l-13.83-7.35-4,7.5,13.82,7.36C1203.55,192.48,1204.68,193,1205.66,193.44Z"/><path class="b" d="M312.15,285.06a15.76,15.76,0,0,0,1.39,2.64,15.53,15.53,0,0,0,1.92,2.33,10.71,10.71,0,0,0,2.47,1.85A10.37,10.37,0,0,0,321,293a11.31,11.31,0,0,0,3.69.06,17.89,17.89,0,0,0,4.35-1.2,28.5,28.5,0,0,0,5.08-2.76,24.72,24.72,0,0,0,6.08-5.37,13.47,13.47,0,0,0,2.55-5.16,9.75,9.75,0,0,0-.11-4.75,14.32,14.32,0,0,0-5-7.48,9.78,9.78,0,0,0-4.34-1.94,13.39,13.39,0,0,0-5.74.35,24.49,24.49,0,0,0-7.31,3.51,29.37,29.37,0,0,0-4.51,3.61,17.54,17.54,0,0,0-2.8,3.56,12,12,0,0,0-1.36,3.44,10.63,10.63,0,0,0-.19,3.25A10.82,10.82,0,0,0,312.15,285.06Z"/><path class="c" d="M229.92,350.45a11,11,0,0,0,5.09,1.63,19.21,19.21,0,0,0,6.19-.62,38.35,38.35,0,0,0,6.89-2.55q1.64-.78,3.36-1.77c1.15-.67,2.25-1.34,3.29-2s2-1.36,2.87-2a24.32,24.32,0,0,0,2.11-1.76l-4.26-9a20.12,20.12,0,0,1-2,2.23c-.78.8-1.64,1.59-2.57,2.37a33.43,33.43,0,0,1-3,2.24,24.46,24.46,0,0,1-3.13,1.79,19.36,19.36,0,0,1-3.71,1.39,7.77,7.77,0,0,1-2.6.23,3.15,3.15,0,0,1-1.7-.65,3.74,3.74,0,0,1-1-1.29,3.24,3.24,0,0,1,.07-2.86,10.78,10.78,0,0,1,2.33-3.08,28.59,28.59,0,0,1,4-3.09,53.44,53.44,0,0,1,4.95-2.86l-3.91-8.24L233.77,325l1.32,2.77c-.81.58-1.67,1.23-2.61,2a27.93,27.93,0,0,0-2.7,2.45,23.58,23.58,0,0,0-2.38,2.89,12.09,12.09,0,0,0-1.64,3.32,10.73,10.73,0,0,0-.5,3.73,10.42,10.42,0,0,0,1.09,4.09A9.69,9.69,0,0,0,229.92,350.45Z"/><rect class="c" x="229.63" y="310.45" width="10.46" height="9.32" transform="translate(-112.43 131.15) rotate(-25.39)"/><path class="c" d="M257.91,321.13a19.69,19.69,0,0,0,6.44,7,18.58,18.58,0,0,0,8.33,2.79,26.43,26.43,0,0,0,9.67-1,45.52,45.52,0,0,0,10.42-4.53,52,52,0,0,0,4.55-2.95,42.89,42.89,0,0,0,3.77-3.08q1.71-1.59,3.2-3.27t2.88-3.49l-4.91-8.44c-.64,1.1-1.35,2.21-2.11,3.34a30.66,30.66,0,0,1-2.71,3.42,34.72,34.72,0,0,1-3.65,3.42,38.93,38.93,0,0,1-5,3.38,34.05,34.05,0,0,1-5.46,2.61,21.32,21.32,0,0,1-4.62,1.15,12.14,12.14,0,0,1-3.84-.1,10.52,10.52,0,0,1-3.13-1.14,10.13,10.13,0,0,1-2.49-2,14.47,14.47,0,0,1-1.9-2.57,13.89,13.89,0,0,1-1.65-4.46,9.67,9.67,0,0,1,.44-4.9,14.71,14.71,0,0,1,3.25-5.13,29,29,0,0,1,6.81-5.18,36.55,36.55,0,0,1,5.4-2.61,35.21,35.21,0,0,1,4.81-1.44,31.24,31.24,0,0,1,4.32-.65q2-.17,3.93-.21l-4.9-8.44c-1.51.2-3,.46-4.46.77s-2.93.69-4.42,1.16a40.9,40.9,0,0,0-4.54,1.75,50.64,50.64,0,0,0-4.82,2.49,45.86,45.86,0,0,0-9.1,6.81,26.39,26.39,0,0,0-5.69,7.88,18.52,18.52,0,0,0-1.7,8.63A19.62,19.62,0,0,0,257.91,321.13Z"/><path class="c" d="M304.36,293.79a20.7,20.7,0,0,0,6.66,6.54,17.87,17.87,0,0,0,8.23,2.47,25.14,25.14,0,0,0,9.42-1.42,44.05,44.05,0,0,0,10.2-5.15,43.14,43.14,0,0,0,8.68-7.39,25,25,0,0,0,4.93-8.09,17.78,17.78,0,0,0,.86-8.52A22.88,22.88,0,0,0,343.25,257a17.92,17.92,0,0,0-8.19-2.51,24.8,24.8,0,0,0-9.36,1.4,48,48,0,0,0-18.89,12.53,25.16,25.16,0,0,0-5,8.12,18,18,0,0,0-.92,8.55A20.72,20.72,0,0,0,304.36,293.79Zm7.25-15a12,12,0,0,1,1.36-3.44,17.54,17.54,0,0,1,2.8-3.56,29.37,29.37,0,0,1,4.51-3.61,24.49,24.49,0,0,1,7.31-3.51,13.39,13.39,0,0,1,5.74-.35,9.78,9.78,0,0,1,4.34,1.94,14.32,14.32,0,0,1,5,7.48,9.75,9.75,0,0,1,.11,4.75,13.47,13.47,0,0,1-2.55,5.16,24.72,24.72,0,0,1-6.08,5.37,28.5,28.5,0,0,1-5.08,2.76,17.89,17.89,0,0,1-4.35,1.2A11.31,11.31,0,0,1,321,293a10.37,10.37,0,0,1-3.06-1.07,10.71,10.71,0,0,1-2.47-1.85,15.53,15.53,0,0,1-1.92-2.33,15.76,15.76,0,0,1-1.39-2.64,10.82,10.82,0,0,1-.73-3A10.63,10.63,0,0,1,311.61,278.82Z"/><polygon class="c" points="377.8 268.49 362.19 245.76 400.12 253.16 409.8 246.51 387.08 213.43 378.19 219.53 393.87 242.36 355.85 234.88 346.14 241.54 368.86 274.63 377.8 268.49"/><path class="c" d="M425.63,211.58a20.55,20.55,0,0,0,6.46,6.72,18,18,0,0,0,8.16,2.72,25.27,25.27,0,0,0,9.45-1.16A44,44,0,0,0,460.05,215a46.63,46.63,0,0,0,7.69-5.89,27.77,27.77,0,0,0,5.1-6.52c1.79-.25,3.56-.52,5.3-.83s3.44-.61,5.1-.93l-.43-9a74.51,74.51,0,0,1-7.52,1.86,18.24,18.24,0,0,0-.77-5.46,22.27,22.27,0,0,0-2.53-5.53,20.88,20.88,0,0,0-6.44-6.74,17.7,17.7,0,0,0-8.11-2.74,24.77,24.77,0,0,0-9.4,1.12,48.06,48.06,0,0,0-19.24,12,25.24,25.24,0,0,0-5.2,8,18,18,0,0,0-1.17,8.52A20.63,20.63,0,0,0,425.63,211.58Zm7.67-14.75a12,12,0,0,1,1.46-3.41,17.38,17.38,0,0,1,2.9-3.47,29.25,29.25,0,0,1,4.61-3.48,24.71,24.71,0,0,1,7.41-3.31,13.48,13.48,0,0,1,5.75-.18,9.79,9.79,0,0,1,4.28,2.07,14.23,14.23,0,0,1,3,3.43,15.15,15.15,0,0,1,1.53,3.23,9.55,9.55,0,0,1,.47,3.61c-2.21.25-4.34.44-6.41.55s-3.93.13-5.61.06l.09,8.31c1.17,0,2.4,0,3.68-.08s2.61-.14,4-.25a22,22,0,0,1-2.2,1.93,32.45,32.45,0,0,1-2.7,1.85,27.81,27.81,0,0,1-5.16,2.61,18.06,18.06,0,0,1-4.38,1.09,11.72,11.72,0,0,1-3.69-.17,10.31,10.31,0,0,1-3-1.16,11,11,0,0,1-2.41-1.92,15.53,15.53,0,0,1-1.86-2.39,14.77,14.77,0,0,1-1.3-2.68,10.51,10.51,0,0,1-.65-3A10.68,10.68,0,0,1,433.3,196.83Z"/><path class="c" d="M487.94,187.59a13.68,13.68,0,0,0,6.13,2,24.32,24.32,0,0,0,8.06-.73A48,48,0,0,0,520.54,179a24.5,24.5,0,0,0,5.09-6.27,13.74,13.74,0,0,0,1.76-6.2,11.47,11.47,0,0,0-1.35-5.7l-12.52-23.49L504,142.47l10.68,20.06a14,14,0,0,1,1.36,3.6,6.77,6.77,0,0,1-.21,3.67,10,10,0,0,1-2.49,3.75,28.31,28.31,0,0,1-11.69,6.23,10,10,0,0,1-4.51,0,6.81,6.81,0,0,1-3.18-1.86,13.67,13.67,0,0,1-2.25-3.13L481,154.72l-9.53,5.08L484,183.29A11.41,11.41,0,0,0,487.94,187.59Z"/><polygon class="c" points="580.43 151.52 577.01 143.68 549.59 155.62 546.46 148.44 572.12 137.27 568.7 129.42 543.04 140.59 540.4 134.51 567.45 122.73 564.03 114.88 526.77 131.1 542.8 167.91 580.43 151.52"/><polygon class="c" points="552.21 110.06 545.63 104.51 536.01 117.62 540.4 121.12 552.21 110.06"/><path class="c" d="M606.62,130.42a18.66,18.66,0,0,0,7.45,4.66,26.56,26.56,0,0,0,9.64,1.24,45.55,45.55,0,0,0,11.2-2,52.21,52.21,0,0,0,5.11-1.8,40.54,40.54,0,0,0,4.38-2.13,45.46,45.46,0,0,0,3.88-2.43q1.85-1.27,3.6-2.72l-2.8-9.35c-.88.92-1.83,1.84-2.83,2.76a30.76,30.76,0,0,1-3.43,2.69,35.31,35.31,0,0,1-4.35,2.48,37.5,37.5,0,0,1-5.62,2.12,32.66,32.66,0,0,1-5.92,1.27,20.58,20.58,0,0,1-4.76,0,11.79,11.79,0,0,1-3.71-1,10.64,10.64,0,0,1-2.78-1.83,10.27,10.27,0,0,1-2-2.49,14.13,14.13,0,0,1-1.25-2.94,13.74,13.74,0,0,1-.56-4.72,9.69,9.69,0,0,1,1.56-4.67,14.93,14.93,0,0,1,4.35-4.23,29.13,29.13,0,0,1,7.83-3.45,36.63,36.63,0,0,1,5.87-1.28,33.94,33.94,0,0,1,5-.28,30.81,30.81,0,0,1,4.35.37c1.34.21,2.63.45,3.87.71L642,92.12c-1.51-.16-3-.26-4.51-.3s-3,0-4.58.11a40.7,40.7,0,0,0-4.82.64,51.7,51.7,0,0,0-5.27,1.3,46.33,46.33,0,0,0-10.44,4.5,26.72,26.72,0,0,0-7.37,6.35,18.48,18.48,0,0,0-3.65,8,21.66,21.66,0,0,0,5.31,17.71Z"/><path class="c" d="M661.21,117.7a13.56,13.56,0,0,0,5.3,3.66,24.26,24.26,0,0,0,8,1.58,47.78,47.78,0,0,0,20.43-4.17,24.24,24.24,0,0,0,6.66-4.57,13.68,13.68,0,0,0,3.45-5.44,11.31,11.31,0,0,0,.32-5.85L700,76.83,689.38,79l4.55,22.27a13.94,13.94,0,0,1,.27,3.83,6.73,6.73,0,0,1-1.24,3.46,9.9,9.9,0,0,1-3.46,2.88,22.4,22.4,0,0,1-6.31,2.1,23,23,0,0,1-6.67.55,9.84,9.84,0,0,1-4.31-1.29,6.84,6.84,0,0,1-2.52-2.69,13.81,13.81,0,0,1-1.27-3.63l-4.54-22.27-10.6,2.16,5.33,26.08A11.41,11.41,0,0,0,661.21,117.7Z"/><polygon class="c" points="760.16 109.65 759.14 101.15 729.44 104.71 728.51 96.94 756.3 93.61 755.28 85.11 727.49 88.44 726.7 81.85 756 78.34 754.98 69.84 714.63 74.68 719.41 114.53 760.16 109.65"/><polygon class="c" points="780.65 108.31 779.47 80.75 807.71 107.14 819.44 106.64 817.72 66.54 806.95 67 808.14 94.67 779.86 68.16 768.1 68.67 769.82 108.77 780.65 108.31"/><polygon class="c" points="842.99 107.13 853.82 107.41 854.65 76.02 871.71 76.47 871.93 67.73 827.02 66.55 826.79 75.28 843.82 75.73 842.99 107.13"/><path class="c" d="M881.2,108.67l4.41-7.24,22.29,1.93,3.1,7.89,12,1-17.47-41.8-12-1-24.39,38.18Zm17.56-28.8,6,15.36L890.15,94Z"/><polygon class="c" points="943.91 87.56 966.32 119.05 977.92 120.9 984.23 81.25 973.59 79.56 969.23 106.91 946.81 75.3 935.18 73.45 928.88 113.09 939.58 114.79 943.91 87.56"/><polygon class="c" points="1052.3 129.72 1023.94 122.37 1031.8 92.03 1021.31 89.31 1011.24 128.17 1050.1 138.24 1052.3 129.72"/><path class="c" d="M1063.62,142.45l6-6,21.25,7,1.21,8.39,11.48,3.79-7.38-44.7-11.49-3.79-32.51,31.55Zm23.72-24,2.31,16.32-13.93-4.59Z"/><path class="c" d="M1125.3,165.69q2.12.85,4.51,1.68a38.71,38.71,0,0,0,4.86,1.31,28.16,28.16,0,0,0,4.87.55,13.76,13.76,0,0,0,4.53-.64,10.61,10.61,0,0,0,3.85-2.22,11.12,11.12,0,0,0,2.82-4.21,8.92,8.92,0,0,0,.69-4,10.19,10.19,0,0,0-1-3.77,16.42,16.42,0,0,0-2.39-3.51,32.76,32.76,0,0,0-3.3-3.25c-1.2-1-2.48-2-3.83-3s-2.65-1.87-3.93-2.74-2.48-1.69-3.61-2.48a34.11,34.11,0,0,1-2.91-2.22,8.42,8.42,0,0,1-1.78-2,1.88,1.88,0,0,1-.24-1.75,2.2,2.2,0,0,1,.32-.5,1.51,1.51,0,0,1,.66-.42,4.24,4.24,0,0,1,1.17-.21,9.28,9.28,0,0,1,1.86.17,24.34,24.34,0,0,1,2.71.7c1.06.32,2.31.78,3.75,1.37a38.68,38.68,0,0,1,5.12,2.53,47.82,47.82,0,0,1,4.36,2.92,44.38,44.38,0,0,1,3.43,2.82c1,.91,1.74,1.67,2.31,2.3l3.5-8.6q-1.53-1.29-3.39-2.64c-1.24-.91-2.55-1.79-3.92-2.66s-2.79-1.67-4.26-2.44-2.92-1.44-4.36-2-2.73-1-4.23-1.54a38.39,38.39,0,0,0-4.58-1.16,24.61,24.61,0,0,0-4.56-.44,13.7,13.7,0,0,0-4.25.65,10,10,0,0,0-3.57,2.1,10.29,10.29,0,0,0-2.6,3.89,8.65,8.65,0,0,0-.68,4,9.81,9.81,0,0,0,1.09,3.69,16.1,16.1,0,0,0,2.42,3.42,34.76,34.76,0,0,0,3.34,3.15q1.83,1.51,3.85,2.91c1.35.92,2.66,1.81,3.95,2.66s2.49,1.66,3.62,2.45a32.19,32.19,0,0,1,2.9,2.25,8.44,8.44,0,0,1,1.75,2.07,2.12,2.12,0,0,1,.18,1.88,2.41,2.41,0,0,1-.9,1,3.86,3.86,0,0,1-2,.52,13.4,13.4,0,0,1-3.5-.41,35.6,35.6,0,0,1-5.35-1.78,46.47,46.47,0,0,1-9.69-5.3,36.43,36.43,0,0,1-7.14-6.66l-3.61,8.88a56.36,56.36,0,0,0,7.37,5.63A58.53,58.53,0,0,0,1125.3,165.69Z"/><path class="c" d="M1204.72,202a25.06,25.06,0,0,0,3.79,1.3,15.37,15.37,0,0,0,3.57.51,8.55,8.55,0,0,0,3.27-.54,8.92,8.92,0,0,0,2.9-1.82,12.11,12.11,0,0,0,2.45-3.29,11.92,11.92,0,0,0,1.33-3.81,7.1,7.1,0,0,0-.34-3.46,9.58,9.58,0,0,0-2.13-3.25,20.65,20.65,0,0,0-4-3.14,10,10,0,0,0,6.8.16,9.3,9.3,0,0,0,4.62-4.58,11.29,11.29,0,0,0,1.28-3.62,7.95,7.95,0,0,0-1.33-5.9,13.79,13.79,0,0,0-2.07-2.35,21.63,21.63,0,0,0-2.68-2c-1-.63-2-1.22-3-1.75L1193.94,151l-18.86,35.44,25.72,13.68C1202.12,200.85,1203.43,201.48,1204.72,202Zm-5-38.8,14.11,7.51a9.35,9.35,0,0,1,2.22,1.54,4.65,4.65,0,0,1,1.07,1.53,2.71,2.71,0,0,1,.18,1.47,4.76,4.76,0,0,1-.47,1.39,4.47,4.47,0,0,1-.89,1.16,2.51,2.51,0,0,1-1.3.65,4.7,4.7,0,0,1-1.84-.08,10.32,10.32,0,0,1-2.51-1l-14.11-7.5Zm-7.29,13.7,13.83,7.35c1.29.69,2.37,1.32,3.25,1.9a7.85,7.85,0,0,1,2,1.74,3,3,0,0,1,.69,1.82,5.43,5.43,0,0,1-2.07,3.89,3.08,3.08,0,0,1-1.9.46,7.56,7.56,0,0,1-2.56-.66c-1-.41-2.11-1-3.4-1.64l-13.82-7.36Z"/><rect class="c" x="1218.3" y="193.26" width="40.14" height="10.84" transform="matrix(0.52, -0.85, 0.85, 0.52, 425.94, 1148.19)"/><path class="c" d="M1248.55,215.56a18.63,18.63,0,0,0,1,8.73,26.65,26.65,0,0,0,5.07,8.3,45.52,45.52,0,0,0,8.55,7.49,49.29,49.29,0,0,0,4.61,2.86,41.52,41.52,0,0,0,4.39,2.1q2.18.87,4.32,1.5c1.44.42,2.9.79,4.39,1.11l5.54-8c-1.27-.12-2.58-.28-3.93-.49a30,30,0,0,1-4.24-1,33.49,33.49,0,0,1-4.66-1.84,38,38,0,0,1-5.17-3,33.18,33.18,0,0,1-4.69-3.82,21.62,21.62,0,0,1-3-3.69,12.31,12.31,0,0,1-1.55-3.52,10.87,10.87,0,0,1-.31-3.32,10.24,10.24,0,0,1,.72-3.09,14.64,14.64,0,0,1,1.51-2.81,13.75,13.75,0,0,1,3.33-3.39,9.72,9.72,0,0,1,4.62-1.7,14.84,14.84,0,0,1,6,.75,29,29,0,0,1,7.58,3.95,34.74,34.74,0,0,1,4.67,3.78,35.11,35.11,0,0,1,3.36,3.73,32.83,32.83,0,0,1,2.43,3.63c.67,1.18,1.29,2.34,1.86,3.47l5.54-8c-.82-1.27-1.68-2.51-2.59-3.7A45.05,45.05,0,0,0,1295,212a42.13,42.13,0,0,0-3.52-3.37,51.57,51.57,0,0,0-4.31-3.29,45.74,45.74,0,0,0-10-5.33,26.55,26.55,0,0,0-9.56-1.78,18.49,18.49,0,0,0-8.52,2.14,21.61,21.61,0,0,0-10.5,15.22Z"/><rect class="c" x="1283.24" y="238.08" width="40.14" height="10.84" transform="translate(307.93 1119.37) rotate(-51.93)"/><path class="c" d="M1321.23,258.3a35.21,35.21,0,0,0,2.1,4.09q1.22,2,2.67,4t2.83,3.82q1.39,1.84,2.61,3.51a30.44,30.44,0,0,1,2,3.09,8,8,0,0,1,1,2.53,2.11,2.11,0,0,1-.45,1.84,2.42,2.42,0,0,1-1.18.67,4,4,0,0,1-2.07-.17,13.78,13.78,0,0,1-3.17-1.56,34.52,34.52,0,0,1-4.45-3.46,45.71,45.71,0,0,1-7.38-8.21,37,37,0,0,1-4.53-8.66L1304.8,267a56.1,56.1,0,0,0,5.08,7.76,57.77,57.77,0,0,0,7.61,8q1.71,1.51,3.69,3.08a37.24,37.24,0,0,0,4.15,2.85,28,28,0,0,0,4.41,2.14,14.2,14.2,0,0,0,4.49.91,10.53,10.53,0,0,0,4.36-.82,10.94,10.94,0,0,0,4.06-3,8.77,8.77,0,0,0,2-3.57,10.06,10.06,0,0,0,.26-3.91,16.11,16.11,0,0,0-1.09-4.1,31.25,31.25,0,0,0-2-4.16q-1.18-2.07-2.62-4.1t-2.8-3.89l-2.58-3.53a34.36,34.36,0,0,1-2-3.07,8.83,8.83,0,0,1-1-2.46,1.91,1.91,0,0,1,.37-1.73,1.77,1.77,0,0,1,.46-.37,1.43,1.43,0,0,1,.76-.18,3.87,3.87,0,0,1,1.18.2,8.1,8.1,0,0,1,1.69.77,24.83,24.83,0,0,1,2.33,1.56c.89.66,1.91,1.5,3.08,2.53a38.36,38.36,0,0,1,4,4.1,47.75,47.75,0,0,1,3.15,4.19,42.19,42.19,0,0,1,2.29,3.81,32.07,32.07,0,0,1,1.42,2.93l6.16-6.95c-.67-1.15-1.45-2.35-2.32-3.62s-1.81-2.53-2.81-3.8-2.08-2.51-3.21-3.72-2.28-2.32-3.44-3.36-2.23-1.89-3.48-2.85a37.8,37.8,0,0,0-3.93-2.62,25.54,25.54,0,0,0-4.16-1.93,13.54,13.54,0,0,0-4.22-.79,9.91,9.91,0,0,0-4.07.79,10.21,10.21,0,0,0-3.74,2.81,8.49,8.49,0,0,0-2,3.54,9.69,9.69,0,0,0-.2,3.84A15.34,15.34,0,0,0,1321.23,258.3Z"/><path class="c" d="M1374.27,296.82a3,3,0,0,1-1.7.83,5.52,5.52,0,0,1-2.17-.17,12.24,12.24,0,0,1-2.55-1,24.88,24.88,0,0,1-2.76-1.7c-.94-.66-1.9-1.4-2.87-2.23s-1.93-1.68-2.86-2.59l-6.53,6.32,7.3,7.53,2.18-2.11c.79.56,1.68,1.17,2.68,1.82a27.78,27.78,0,0,0,3.18,1.78,24.19,24.19,0,0,0,3.5,1.32,12.08,12.08,0,0,0,3.67.49,10.89,10.89,0,0,0,3.69-.72,10.34,10.34,0,0,0,3.53-2.34,9.75,9.75,0,0,0,2.86-4.74,11.24,11.24,0,0,0-.09-5.34,19,19,0,0,0-2.58-5.66,38.38,38.38,0,0,0-4.62-5.72c-.84-.86-1.75-1.73-2.74-2.6s-2-1.69-3-2.47-1.94-1.46-2.85-2.08a26.2,26.2,0,0,0-2.34-1.43l-7.14,6.91a20.2,20.2,0,0,1,2.75,1.12,32.55,32.55,0,0,1,3.08,1.68c1,.64,2,1.34,3,2.1a25.51,25.51,0,0,1,2.7,2.39,19.3,19.3,0,0,1,2.5,3.07,7.74,7.74,0,0,1,1.06,2.39,3.24,3.24,0,0,1-.07,1.82A3.76,3.76,0,0,1,1374.27,296.82Z"/><rect class="c" x="1345.7" y="300.72" width="9.32" height="10.49" transform="translate(167.5 1025.63) rotate(-44.08)"/></svg>