<svg xmlns="http://www.w3.org/2000/svg" viewBox="0 0 120.2 37.43"><defs><style>.a{fill:#fff;}</style></defs><title>smoop-logo</title><path class="a" d="M94.37,4.1c.31.27.34,1,1,.79C95.62,4.83,98.09,2.49,99,2c7.21-4.2,17-1.14,20.17,6.68a14.15,14.15,0,0,1-16.53,19.19c-.66-.17-3.74-1.52-3.94-1.39a1.69,1.69,0,0,0-.44,1.12c-.34,3,1.46,9.33-2.83,9.8-5.29.57-3.54-6.16-3.8-9.35l.19-.47c.46-.15,2.62-2.32,1.45-2.53C93,25,91,26.36,90.55,26.58A13.87,13.87,0,0,1,75,24.25L78.4,18c5.12,7,15.92,1,12.48-7C88.1,4.57,78.06,6.07,77.21,13c-.47,3.76-.29,5.95-2.72,9.23-8.08,10.93-25.17,5.23-25.42-8.37a27.47,27.47,0,0,0,.23-3.32c-.42-3.66-5.51-4.58-7.75-2-.68.78-.83,2.49-.89,3.54-.28,4.23.37,8.61.15,12.81a3.36,3.36,0,0,1-6.46,1c-.64-4.81.53-10.65-.16-15.33-.64-4.35-6.85-4.79-8.47-.84-.61,4.79.46,10.44-.13,15.14-.52,4.11-5.88,3.65-6.3,1,0-.24,1.23-1.78,0-2-.36-.06-2.05,1.92-2.54,2.29-3.92,3-10.48,2.23-14.44-.35-2.12-1.39-3.06-4.35-.8-6,2.43-1.8,4.12.44,6.13,1.15,1.57.56,5.05,1,5.71-1,1-3.09-4.1-2.31-5.71-2.51C-2.24,16.24-2.77,2.7,7.42.77,10.59.17,15.6.69,17.87,3.25a3.35,3.35,0,0,1-3.16,5.59c-1.05-.17-1.62-1-2.47-1.28C10.65,7,6.67,6.86,6.78,9.23s4,1.53,5.42,1.68a11.68,11.68,0,0,1,4,1.35c.54.32,2.22,2.22,2.55,1.14s.13-3.17.31-4.33C19.82,4.14,24.58.42,29.48.26a13.06,13.06,0,0,1,8,2.81C40.87.52,44.78-.47,48.91,1a13.47,13.47,0,0,1,3,1.61c.66.77-1,1.6.33,2.27.46,0,1.76-1.57,2.22-1.93A14.3,14.3,0,0,1,68.39,1c.8.32,4.15,2.15,4.15,2.93,0,.27-1.59,2.41-1.89,3-.52,1-.8,2.1-1.33,3.1-.36.09-1.06-1.09-1.45-1.42-3.8-3.21-10-1.67-11.43,3.15a7.16,7.16,0,0,0,12.11,7C71,16.13,70,12.38,71.26,9.06,74.94-1,86.56-2.53,94.37,4.1ZM105,7C94.74,8.3,98.44,24.76,108.67,21,116.65,18.11,113.9,5.81,105,7Z"/></svg>