<svg xmlns="http://www.w3.org/2000/svg" viewBox="0 0 85 85"><defs><style>.a{fill:#fff;}</style></defs><title>sostenible-logo</title><path class="a" d="M28.31,49.88a3,3,0,0,0-.88.13c3,2.1,4.37,2.9,9.22,4.37l.84.21C33.82,51.86,30,49.88,28.31,49.88Z"/><path class="a" d="M42.82,21A22.21,22.21,0,0,0,20.4,43a22.43,22.43,0,0,0,44.85,0A22.21,22.21,0,0,0,42.82,21Zm5.58,2.86a13.07,13.07,0,0,1,4.32,2.32c1.67,1.19,2.3,1.73,2.31,2,0,.43-.44.11-.59,0-.61-.45-.69-.61-1.55-1.19a34.25,34.25,0,0,0-4-2.48,16.58,16.58,0,0,0-3-1.16,15.29,15.29,0,0,1,2.51.54Zm-4.95-.15c.68.2,3.32.79,9,4.85,3.48,2.48,4.8,3.63,4.83,4.14.06.89-.93.22-1.24,0-1.26-.95-1.44-1.28-3.24-2.49-3.8-2.57-5.42-4-8.28-5.18a13.07,13.07,0,0,0-5.67-1.08,5.71,5.71,0,0,1,4.56-.22ZM40.4,24.91c.89.26,4.38,1,11.92,6.39,4.6,3.28,6.33,4.79,6.38,5.46.07,1.18-1.57.3-2,0-1.66-1.25-1.72-1.51-3.93-3.29a42.6,42.6,0,0,0-10.92-6.83,13.66,13.66,0,0,0-7.48-1.42s2.19-1.43,6-.29Zm-6.57,1.58c.83,0,4.49,0,12.36,4.62,4.81,2.81,6.16,3.69,6.37,4.67.37,1.71-1.27,1.13-1.71.84-1.75-1.12-1.06-.8-4.14-2.95a30.47,30.47,0,0,0-11.18-5.29,11,11,0,0,0-7,.05A7.3,7.3,0,0,1,33.83,26.49Zm-4.74,3.76c.92-.24,6.4-1,15.83,4.91C55,41.43,57.32,45,57.32,45l.59.65c.44,3.13-2.24,1.17-2.24,1.17a44,44,0,0,0-10.12-8.58c-6.78-4.21-9.93-6-14.82-6.31A8,8,0,0,0,24.49,34,6.67,6.67,0,0,1,29.09,30.25Zm-4.33,4.68c.73-.71,6-2,15.64,3.59,5.86,3.43,7.51,4.41,7.76,5.61.45,2.08-1.61,1.44-2.08,1a41.25,41.25,0,0,0-5-3.52c-5.79-3.58-7.79-4.51-12.09-5.15-4.71-.69-5.8,2.35-5.8,2.35a5.48,5.48,0,0,1,1.62-3.91ZM57.4,56.58c-5.54,5.54-11.08,6.69-16.11,6.19a21.55,21.55,0,0,1-12.24-5.16A19.28,19.28,0,0,1,24,51c-.24-.44-2.6-4.55,0-3.34-.23-1.4-.3-3.72,1.68-4.07,1-.18,7.41.06,16.06,7,1.81,1.46,3.15,2.5,4.17,3.32.95-.3,1.82-.64,2.61-1a46.62,46.62,0,0,0-8.14-6.45c-6.78-4.21-9.41-5.42-14.32-5.42-2.07,0-2.68,2.58-2.84,3.81,0,.94-.08.7,0,0,0-.22,0-.48,0-.84,0-3.58.89-4,1.56-4.7s5.52-1.86,15,4A62.86,62.86,0,0,1,50.92,52a5.67,5.67,0,0,1,1-.3c2.17-.36,2.53,1.18,1.54,2.35a3.68,3.68,0,0,1-.71.58c0,1.39-1,1.2-1.65.88-.9.41-1.84.77-2.6,1.05a1.27,1.27,0,0,1,.09.42c.13,2.06-1.6,1.19-2.15.75-.28.44-.14.84.88.74,1.9-.18,7.28-2.7,8-4.42a3.4,3.4,0,0,0,.09-2.62,67.25,67.25,0,0,0,5.68-5.68c1.09-1.54,2.39-.5,2,1s-.55,4.7-5.69,9.83Z"/><path class="a" d="M27.4,47.91c.67-.2,5.53.81,11.52,5.66l1.64,1.34a15,15,0,0,0,2.34-.21l-1.06-.86c-5.91-4.79-9.78-7.32-13.21-7.94-3.63-.65-4.39.82-4.5,1.89a9.75,9.75,0,0,1,1.25.77l.79.56A1.7,1.7,0,0,1,27.4,47.9Z"/><path class="a" d="M62.23,45c.65,0,1.12.77.86,1.75-.41,1.54-.55,4.7-5.69,9.83-4.78,4.78-9.56,6.29-14,6.29a20.44,20.44,0,0,1-2.09-.11A21.44,21.44,0,0,1,29.05,57.6,19,19,0,0,1,24,51c-.22-.39-2-3.56-.79-3.56a4.82,4.82,0,0,1,2.2,1.1c4.63,3.27,5.43,4,11.27,5.82a12.85,12.85,0,0,0,3.73.54c5.23,0,9.76-2.92,11.52-3.22a4.54,4.54,0,0,1,.6-.05c1.63,0,1.83,1.35.94,2.4s-4.79,2.44-6,2.89-1.8,1.55-.47,1.55l.29,0c1.9-.18,7.28-2.7,8-4.42a3.38,3.38,0,0,0,.09-2.61,67.71,67.71,0,0,0,5.68-5.69A1.5,1.5,0,0,1,62.23,45m0-1.41h0A2.81,2.81,0,0,0,60,44.94a60.71,60.71,0,0,1-5.47,5.46l-.31.27a3.28,3.28,0,0,0-1.67-.42,5,5,0,0,0-.83.08,13.79,13.79,0,0,0-2.7,1,22.35,22.35,0,0,1-8.6,2.23A11.32,11.32,0,0,1,37.06,53a25.31,25.31,0,0,1-9.8-4.86l-1.08-.76a5.65,5.65,0,0,0-3-1.36,1.77,1.77,0,0,0-1.57.87c-.57,1-.26,2.29,1.1,4.73l0,.05q.15.27.3.57a20,20,0,0,0,5.08,6.38,22.88,22.88,0,0,0,13,5.5,21.11,21.11,0,0,0,2.23.12c5.59,0,10.5-2.2,15-6.71,4.8-4.8,5.53-8.12,5.92-9.89.05-.23.09-.42.13-.57A3,3,0,0,0,64,44.49a2.25,2.25,0,0,0-1.78-.9h0Z"/><path class="a" d="M74.35,21.3c-.29-.35-.5-.59-.6-.73l-.32-.51A.36.36,0,0,1,73.3,20v-.1l-.1-.06a5.34,5.34,0,0,1-.38-.58c-.18-.25-.45-.27-.8-.08L70.82,20c-.35.27-.82.59-1.39,1a1.52,1.52,0,0,1-.29.35,4.51,4.51,0,0,1-.62.33,2.85,2.85,0,0,1-.33.31l-.48.36c-.24.17-.51.36-.83.55l-.21.22a6.14,6.14,0,0,0-.54.34l-.33.31a.43.43,0,0,0-.16.05l-.2.22a.48.48,0,0,1-.23.1l0,.1c-.25.14-.44.27-.59.37l-.4.31a1.13,1.13,0,0,0-.37.4l-.27.14-1.15.86-.44.26c-.14.35-.19.56-.15.61l.79,1.07c.23.3.51.32.85.06l3-2.25.41.55a.94.94,0,0,1-.1,1.2l0,0c-.24.18-.6.42-1.06.73l-.09.13a.4.4,0,0,0-.23.11l-.28.2-.25.25s0,0-.07,0l-.17.19-.35.19c-.24.23-.28.44-.13.65l.74,1a.52.52,0,0,0,.76.11L68,29.59a3.31,3.31,0,0,0,1.22-1.7l0,0a3,3,0,0,0,2-.67l2.44-1.81a3.54,3.54,0,0,0,1.2-1.88,3.69,3.69,0,0,0-.53-2.21Zm-1.93,2.31-1.78,1.26-.17.19a1.7,1.7,0,0,0-.35.19l-.44.33c-.47.14-.8.08-1-.19l-.15-.19a2.22,2.22,0,0,1-.21-.52L72,21.92l.39.52a1,1,0,0,1,0,1.17Z"/><path class="a" d="M64.82,11.78a2.22,2.22,0,0,0-.65-.32c-.23-.15-.51-.1-.84.16L59,15.72a5.58,5.58,0,0,0-1,1c-1.32,1.21-2,1.9-2.14,2.06l-2.12,1.95c-.06.33,0,.55.16.66l1.1.75c.3.2.74,0,1.33-.69l2.28,1.54c-.09.14-.11.26,0,.34-.31.61-.33,1-.07,1.18l1,.69c.36.2.62.18.8-.07S62.09,21,65.15,13.29a1,1,0,0,0-.33-1.51ZM61,17.36a19.36,19.36,0,0,1-1.13,2.93l-.28.42a8.4,8.4,0,0,1-1-.57l-.05,0-.32-.35,0,0L61,16.9l0,0c.06,0,0,.18-.1.43Z"/><path class="a" d="M16,15.13A4.42,4.42,0,0,1,18,14.35a3.17,3.17,0,0,1,2.41,1.06l.86.94c.19.31.17.55,0,.73l-1,.86q-.24.22-.69,0c-.29-.37-.55-.69-.78-.94l0,0c-.3-.32-.72-.33-1.26,0-.28.41-.31.73-.09,1l.59.64c.43.48,1.45.59,3,.36a4.17,4.17,0,0,1,3.74,1.3l.79.86a3.16,3.16,0,0,1,.28,4l-.49.52a2.89,2.89,0,0,1-3.6.23,1.89,1.89,0,0,1-.53-.35s-.24-.28-.58-.71l-.45-.42c-.25-.28,0-.77.79-1.49.42-.25.72-.27.91-.07l.9,1c.22.24.57.27,1,.08l.18-.17c.36-.33.18-.88-.53-1.66a2.61,2.61,0,0,0-2.57-.84c-2,.21-3.29,0-3.79-.5t-.63-.39a3.67,3.67,0,0,0-.34-.46c0-.05-.08-.06-.11,0l-.13-.22-.45-.5a3.53,3.53,0,0,1-.35-2.51A3.63,3.63,0,0,1,16,15.13Z"/><path class="a" d="M7.91,25.48l.45-.75c.12-.2.21-.31.26-.32a4.26,4.26,0,0,1,.24-.51l1-1.58c.23-.38.47-.49.74-.34l1,.59c.36.27.46.53.31.78l-1.08,1.8,3,1.79c.73-1.06,1.2-1.54,1.39-1.42l1.19.71c.3.18.32.52.05,1l-.58,1L18.72,30a1.15,1.15,0,0,0,.39-.36l.4-.66a4.54,4.54,0,0,0,.32-.63c.28-.32.53-.41.77-.27l.83.51c.45.3.59.6.4.91l-2,3.28c-.14.23-.39.28-.74.15l-.4-.24a6.08,6.08,0,0,1-.54-.39,1.73,1.73,0,0,1-.37-.16l-.24-.21h-.12l-.14-.15c-.06,0-.24-.12-.51-.25l-.55-.39a2.06,2.06,0,0,0-.37-.16c-.32-.24-.63-.44-.94-.63l-.22-.13a2,2,0,0,0-.42-.2,2.67,2.67,0,0,0-.41-.3l-.31-.19a4.77,4.77,0,0,0-.64-.32,2.71,2.71,0,0,0-.54-.39l-.08-.05a.58.58,0,0,0-.21-.07.44.44,0,0,0-.1-.12,3.14,3.14,0,0,0-.56-.27c-.39-.28-.77-.53-1.15-.76-.15-.09-.38-.21-.68-.35a2.36,2.36,0,0,0-.35-.33c-.19-.08-.3-.11-.31-.07l-.24-.21-.64-.32c-.22-.3-.27-.55-.15-.74Z"/><path class="a" d="M27.17,8.06A3.78,3.78,0,0,1,29.36,8a3.16,3.16,0,0,1,1.86,1.86l.42,1c.09.37,0,.61-.24.72l-1.22.53a.49.49,0,0,1-.64-.34l-.06-.13a.89.89,0,0,1-.07-.42c-.45-.88-.94-1.2-1.48-1s-.53.56-.39.89l3.13,7.26c.27.47.59.63,1,.46.54-.32.72-.65.57-1l-.32-.75a2.8,2.8,0,0,0-.24-.41.71.71,0,0,1,.46-.86l.8-.34c.42-.14.7-.06.81.21l.4.93a3.13,3.13,0,0,1-1.07,4.07,4.52,4.52,0,0,1-.55.3,2.94,2.94,0,0,1-3.94-1.69l-.22-.52a.63.63,0,0,0-.15-.21l-.08-.3-.24-.56c-.11-.26-.25-.54-.43-.87a.62.62,0,0,0,0-.16l-.09-.07a3.25,3.25,0,0,0-.13-.45L27.15,16c0-.09-.08-.14-.11-.12L27,15.64l-.46-1.08c-.14-.33-.31-.67-.49-1a4.32,4.32,0,0,0-.19-.58c-.05-.11-.18-.36-.4-.77-.25-1.41-.25-2.17,0-2.29a3.13,3.13,0,0,1,1.7-1.84Z"/><path class="a" d="M43.15,15,42.6,8.39a6.88,6.88,0,0,0-.21-1.26,2.9,2.9,0,0,0-3.15-2L39,5.1a3.4,3.4,0,0,0-2,1.09,3.54,3.54,0,0,0-.65,2l.12,1.38a6.17,6.17,0,0,1,0,.76,2.8,2.8,0,0,1,.11.61v.21a.37.37,0,0,1,0,.21l.06.1c0,.22,0,.75.08,1.58a5.23,5.23,0,0,0,.1.56c0,.17,0,.28,0,.31.07.46.12.75.12.86s0,.66.08,1.53a3.41,3.41,0,0,0,1,2,3.21,3.21,0,0,0,2.23.74,4,4,0,0,0,1.4-.42A3.45,3.45,0,0,0,43.15,15Zm-2.94,1.73h-.05c-.4,0-.7-.26-.9-.89l-.62-7.5c-.06-.64.17-1,.68-1s.9.31.93.64V8a3.09,3.09,0,0,1,0,.61,2.14,2.14,0,0,1,.07.3c0,.82.07,1.39.09,1.69a2.24,2.24,0,0,0,.16.6,1.12,1.12,0,0,1-.07.37c.06.37.11.69.13,1v0a3.2,3.2,0,0,1,0,.62,2.29,2.29,0,0,1,.09.5c.05.62.1,1.41.15,2.35-.23.43-.45.66-.67.67Z"/><path class="a" d="M54.25,7.39a3.84,3.84,0,0,0-1.66-1.15L51.54,6c-.3-.08-.73-.2-1.26-.38s-.91.05-1,.38-.12.67-.14.75a3.29,3.29,0,0,1-.21.63L48.35,10a1.66,1.66,0,0,0-.26.62l-.24.93a2.23,2.23,0,0,1-.17.43c0,.08-.07.5-.22,1.27l-.11.23c-.1.39-.18.79-.25,1.2-.2.63-.37,1.23-.52,1.82a1.56,1.56,0,0,0,0,.4s-.06,0-.07,0a3.42,3.42,0,0,1-.08.5q-.06.25-.3,1c.05.32.12.52.22.58l2.51.64a3.9,3.9,0,0,0,1.08.13,3.19,3.19,0,0,0,2.94-2.62l.35-1.38a3.9,3.9,0,0,0-.09-2.29,3.59,3.59,0,0,0,1.19-2l.35-1.38a3.4,3.4,0,0,0-.38-2.79ZM50.9,15.27c0,.08,0,.26-.09.56a3.87,3.87,0,0,1-.23.68c-.17.65-.43,1-.8,1l-.64-.16-.37-.19.86-3.32.79.21c.35.09.56.39.61.89Zm1.56-5.86-.34,1.34q-.36,1.38-1,1.2c-.57-.2-.84-.36-.82-.47l.81-3.17a.1.1,0,0,1,.12-.07l.49.13c.65.23.91.58.79,1Z"/><path class="a" d="M69,66.13l-1-1A3.91,3.91,0,0,0,66,64a3.54,3.54,0,0,0-1-2l-1-1a3.39,3.39,0,0,0-2.57-1.15,3.85,3.85,0,0,0-1.86.79c-.35.38-.59.64-.73.77s-.57.51-1,.88-.44.79-.21,1l.57.51a3.67,3.67,0,0,1,.42.52l1.93,1.89a1.48,1.48,0,0,0,.39.55l.66.7a2.08,2.08,0,0,1,.28.37c.06,0,.38.33.95.86l.14.22c.27.28.57.57.88.85.43.5.85,1,1.26,1.4a3.32,3.32,0,0,0,.32.25s0,0,0,.08l.39.33c.12.12.34.39.67.78.3.13.5.17.61.12L69,70.85a4,4,0,0,0,.68-.85A3.2,3.2,0,0,0,69,66.12Zm-5.38-1.28c-.48.37-.76.52-.84.44l-2.25-2.37a.09.09,0,0,1,0-.13l.37-.35c.54-.43,1-.47,1.31-.12l.95,1c.65.69.8,1.2.46,1.53Zm4.08,4.06-.49.46-.35.21L64.49,67.1l.59-.56a.88.88,0,0,1,1.08,0l.17.25.43.37a4.25,4.25,0,0,1,.45.56c.47.49.62.9.47,1.24Z"/><path class="a" d="M19.89,50.57a4.43,4.43,0,0,1-.09,2.07,3.19,3.19,0,0,1-1.95,1.76l-1.22.39c-.35,0-.57-.08-.65-.34l-.39-1.21c-.07-.21,0-.42.29-.63.46-.11.86-.22,1.18-.32l.05,0c.42-.13.6-.51.55-1.14-.26-.42-.54-.58-.86-.48l-.82.26q-.93.3-1.59,2.61a4.23,4.23,0,0,1-2.73,2.87l-1.12.35a3.15,3.15,0,0,1-3.79-1.42l-.27-.66a2.89,2.89,0,0,1,1.29-3.37A1.8,1.8,0,0,1,8.3,51l.89-.23.57-.24c.36-.11.7.33,1,1.34.06.48,0,.77-.32.86l-1.27.4c-.31.1-.48.41-.5.92l.08.24c.14.46.72.53,1.72.2a2.57,2.57,0,0,0,1.83-2c.65-1.93,1.33-3,2-3.23,0,0,.2-.18.62-.41a4.42,4.42,0,0,0,.55-.12c.07,0,.1-.05.08-.09l.26,0,.64-.21a3.6,3.6,0,0,1,2.43.72,3.73,3.73,0,0,1,1,1.47Z"/><path class="a" d="M23.35,57.47l-.15-.21a3.43,3.43,0,0,0-1.95-1.11,3.57,3.57,0,0,0-2.05.49l-1.12.82a7,7,0,0,1-.65.41,2.06,2.06,0,0,1-.46.4l-.17.13a.36.36,0,0,1-.19.08l-.05.1c-.19.14-.62.43-1.32.9l-.42.37-.28.14-.66.55-1.27.87a3.42,3.42,0,0,0-1.15,1.91A3.23,3.23,0,0,0,12,65.6a3.87,3.87,0,0,0,1.09,1A3.44,3.44,0,0,0,16.91,66l5.37-3.93a6.44,6.44,0,0,0,1-.84,2.91,2.91,0,0,0,.1-3.76Zm-1.94,2.37,0,0a3.11,3.11,0,0,1-.53.32l-.21.22c-.68.45-1.15.77-1.4,1a2.26,2.26,0,0,0-.43.44,1.17,1.17,0,0,1-.35.13c-.29.25-.54.45-.76.62l0,0a3.55,3.55,0,0,1-.53.32,3,3,0,0,1-.38.34c-.5.37-1.15.82-1.93,1.35-.48,0-.79,0-.92-.22l0,0c-.24-.32-.13-.73.3-1.23l6.07-4.45c.52-.38.93-.37,1.23,0s.21.94-.06,1.13Z"/><path class="a" d="M29.79,64.39a4.43,4.43,0,0,0-1.15-1.72A3.59,3.59,0,0,0,27,62.05a3.57,3.57,0,0,0-2.39.85l-.39.54-.2.17s0,.06,0,.12a3,3,0,0,1-.37.42c-.2.45-.29.68-.26.7-.43.6-.34,1.87.28,3.81a2.61,2.61,0,0,1-.31,2.68c-.62.86-1.13,1.14-1.51.86l-.21-.15c-.28-.43-.33-.77-.13-1l.78-1.07c.17-.24.09-.53-.25-.88-.85-.62-1.39-.78-1.61-.48l-.32.53-.59.71a1.89,1.89,0,0,0-.23.59,2.87,2.87,0,0,0,.95,3.47l.6.38a3.15,3.15,0,0,0,3.9-1.08l.69-1a4.19,4.19,0,0,0,.52-3.93c-.55-1.5-.64-2.51-.26-3l.51-.7c.2-.27.53-.31,1-.12.41.48.49.89.23,1.25l0,0c-.2.27-.45.59-.76,1-.09.32-.05.54.13.67l1,.76q.33.24.72-.12l.75-1a3.16,3.16,0,0,0,.55-2.57Z"/><path class="a" d="M37.25,66.74a4.13,4.13,0,0,1-.55-.13l-.53-.19c-.36-.12-.82-.3-1.39-.53a.35.35,0,0,1-.2,0,.33.33,0,0,1-.14-.1c-.35-.08-.66-.17-.93-.26l-.57-.2-.47-.21c-.2-.08-.46,0-.76.33-.08.43-.14.72-.18.85l-.14.23a.19.19,0,0,1,0,.15l-.08.08a.58.58,0,0,0,.45.59l1.15.4a3.83,3.83,0,0,1-.07.67l-.46,1.36a7.15,7.15,0,0,1-.29.66.38.38,0,0,1,0,.21l-.22.46c-.06.19-.15.49-.25.88-.41,1.1-.69,1.85-.83,2.25s-.29.91-.47,1.52a9.39,9.39,0,0,0-.42,1.08c-.06.15-.16.51-.32,1.08a2.51,2.51,0,0,0-.2.42.75.75,0,0,0,.19.55l1.35.47c.25.09.47,0,.64-.32l3.63-10.5,1.06.36c.51.18.83.11.94-.22l.43-1.25c.07-.23,0-.45-.37-.67Z"/><path class="a" d="M43.06,67.4l-1.85-.13c-.14,0-.33,0-.56,0a1,1,0,0,0-.41-.08l-.86-.06c-.23,0-.43.14-.6.47v.72l-.07.3s.07.11.08.31a2,2,0,0,1-.14.46,6.24,6.24,0,0,1,0,.76q0,.66-.15,1.38a3.12,3.12,0,0,1,0,.62.3.3,0,0,1-.06.14.39.39,0,0,1,0,.21v.1a3.08,3.08,0,0,1-.1.66,4.32,4.32,0,0,1,0,.72l0,.36a3.1,3.1,0,0,1-.09.5,2.29,2.29,0,0,1,0,.47l0,.25c0,.36-.07.73-.13,1.13a2.1,2.1,0,0,1,0,.4s0,.24-.1.66,0,.5,0,.57l-.06.2,0,.11c0,.17-.07.27-.07.3a1.73,1.73,0,0,0,0,.4,4,4,0,0,0-.09.66l0,.47c0,.37.2.57.47.59l3.83.27c.35,0,.56-.23.62-.77l.07-1c0-.27-.18-.46-.59-.56s-.52,0-.71,0L40.79,79a1.35,1.35,0,0,1-.49-.18l.24-3.43,1.12.08c.55,0,.83-.14.86-.5l.1-1.38c0-.23-.62-.43-1.91-.59L41,69.49l2.08.15q.45,0,.57-.63l.08-1.12c0-.31-.19-.47-.63-.51Z"/><path class="a" d="M51.9,66.13a.71.71,0,0,0-.72-.2l-1,.24c-.27.06-.42.31-.45.74a9.56,9.56,0,0,1,.27.93l0,.2c.14.6.24,1.08.3,1.46.08.22.21.67.37,1.33l0,.15a1.68,1.68,0,0,1,.06.67l.08.08a3,3,0,0,0,0,.32.31.31,0,0,0,.09.13l-.09.08h-.06l-3-4.71A.91.91,0,0,0,46.69,67l-.28.12-.71.12c-.29.07-.43.37-.42.89.27.82.46,1.48.58,2a.48.48,0,0,1,0,.16.38.38,0,0,1,.09.19l.11.45a6.52,6.52,0,0,1,.11.7l.2.38.14,1q.21.65.39,1.38c.07.3.16.74.26,1.3a.4.4,0,0,1,.09.14l0,.11a9.5,9.5,0,0,0,.5,1.62l0,.31.47,1.94c0,.17.08.42.13.76.23.24.4.36.5.35l1.34-.32c.26-.06.4-.29.42-.68a.49.49,0,0,1-.1-.19l-1.35-5.61,0,0c0,.14.08.19.14.18.3.52.51.77.61.75.93,1.53,1.62,2.59,2.08,3.18.52,1.17,1,1.72,1.34,1.63l1.24-.3c.27-.07.39-.27.38-.62L51.9,66.12Z"/><path class="a" d="M61.93,75.5a.44.44,0,0,1-.14-.16L55.58,64c-.1-.17-.6,0-1.49.47l-.29.22c-.24.13,0,.8.65,2a3,3,0,0,1,.24.34.3.3,0,0,0,0,.16l.17.19.07.25.25.34c.07.14.25.49.52,1,.2.3.31.46.34.52l.22.62.46.62a.68.68,0,0,0,.08.26,1.57,1.57,0,0,0,.24.32l0,.21c.07.12.23.38.49.78a3.61,3.61,0,0,1,.16.38l.62.94a2.58,2.58,0,0,0,.21.58c.11.2.36.63.76,1.27s.47,1,.57,1.14.47.27.66.16l1.11-.61c.24-.13.31-.39.23-.76Z"/><path class="a" d="M76.75,59.4l-1.07-.6a.49.49,0,0,0-.67.14l-.36.73a6.54,6.54,0,0,1-.42.64.28.28,0,0,1,0,.16,1.47,1.47,0,0,0-.32.28L64.3,55.29c-.27-.16-.53-.09-.77.21a.32.32,0,0,0,0,.16,6.22,6.22,0,0,0-.4.59l-.05.09c-.19.48-.14.8.15,1l.57.32a2.42,2.42,0,0,1,.38.28,2.25,2.25,0,0,1,.72.29q.5.28.9.57c.34.16.78.39,1.31.69l0,0a2.26,2.26,0,0,1,.37.27.68.68,0,0,1,.34.13,12.52,12.52,0,0,1,1.12.7l.73.36c.3.17.65.39,1,.66s.88.44,1.14.58l1,.66.43.18a7.51,7.51,0,0,0,.72.47c.51.29.84.28,1,0l1.89-3.32a.54.54,0,0,0-.2-.76Z"/><path class="a" d="M79.38,50.71l-.93-.26c-.27-.07-.49.08-.67.46a5.35,5.35,0,0,1-.14.7l-.21.74a1.17,1.17,0,0,1-.28.45l-3.31-.93.31-1.08c.13-.53,0-.85-.32-.94l-1.34-.38c-.22-.06-.54.52-1,1.75l-3.35-.94.56-2c.08-.28-.08-.51-.5-.67l-1.09-.31c-.29-.08-.5.09-.62.52L66,49.58c0,.13-.07.32-.1.55a.92.92,0,0,0-.16.39l-.23.83c-.06.22,0,.45.33.68l.71.14.28.14s.12-.05.33,0a2.27,2.27,0,0,1,.42.23c.33,0,.58.11.74.15.43.12.87.26,1.32.43a2.61,2.61,0,0,1,.61.12s.07,0,.13.09a.37.37,0,0,1,.21,0l.09,0a2.93,2.93,0,0,1,.63.23,4,4,0,0,1,.71.14l.34.1a2.39,2.39,0,0,1,.48.19,1.66,1.66,0,0,1,.46.07l.25.07a11.06,11.06,0,0,1,1.07.35l.4.06.63.23a4,4,0,0,1,.56.11l.18.1.12,0,.28.13a1.44,1.44,0,0,0,.4.06,4.39,4.39,0,0,0,.63.23l.45.13c.38,0,.6-.08.68-.34l1-3.69c.09-.35-.12-.6-.64-.77Z"/><circle class="a" cx="10.7" cy="40.76" r="2.35"/><circle class="a" cx="73.57" cy="40.76" r="2.35"/><path class="a" d="M42.5,0A42.5,42.5,0,1,0,85,42.5,42.5,42.5,0,0,0,42.5,0Zm0,82.86A40.36,40.36,0,1,1,82.86,42.5,40.36,40.36,0,0,1,42.5,82.86Z"/></svg>